<svg xmlns="http://www.w3.org/2000/svg" xmlns:xlink="http://www.w3.org/1999/xlink" width="545.389" height="664.834" viewBox="0 0 545.389 664.834">
  <defs>
    <linearGradient id="linear-gradient" x1="0.5" x2="0.5" y2="1" gradientUnits="objectBoundingBox">
      <stop offset="0" stop-color="#de9ac0" stop-opacity="0.988"/>
      <stop offset="0.398" stop-color="#b9aa8d"/>
      <stop offset="0.745" stop-color="#68b6c9"/>
      <stop offset="1" stop-color="#45aeb2"/>
    </linearGradient>
  </defs>
  <g id="bg_anahata" transform="translate(0.777 0.248)">
    <g id="Group_734" data-name="Group 734">
      <path id="Path_1298" data-name="Path 1298" d="M272.96,664.616l-.131-.019a.972.972,0,0,0,.1-.193l-.184-.007-.695.087-.793-.115h-.217a.973.973,0,0,0,.111.227l-.144.018a26.438,26.438,0,0,0-2.331-4.233c-.154-.243-.255-.4-.311-.5l-.009-.015a75.642,75.642,0,0,0-8.251-11.821,99.138,99.138,0,0,0-9.915-10.089c-7.069-6.3-15.069-11.948-22.806-17.412-1.809-1.278-3.68-2.6-5.517-3.913a82.374,82.374,0,0,1-26.729-32.061,87.3,87.3,0,0,1-6.556-19.832,93.15,93.15,0,0,1-1.794-21.265,119.366,119.366,0,0,1,4.534-28.585,166.25,166.25,0,0,1,9.925-26.133,170.213,170.213,0,0,1-28.325-16.424,140.031,140.031,0,0,1-11.085,14.6,114.235,114.235,0,0,1-13.92,13.509,91.586,91.586,0,0,1-26.17,14.974,84.092,84.092,0,0,1-29.072,5.228A82.4,82.4,0,0,1,68.48,517c-2.159-.662-4.344-1.346-6.457-2.008-7.416-2.323-15.084-4.724-22.669-6.483a101.583,101.583,0,0,0-23.01-2.916,74.9,74.9,0,0,0-10.441.723l-.023,0c-.106.012-.283.028-.55.052a26.439,26.439,0,0,0-4.814.719l-.061-.11a1,1,0,0,0,.191-.035l-.191-.279-.081-.08v.248l-.3-.55-.145-.145.055-.019-.21-.382-.237-.3a1.02,1.02,0,0,0-.1.207l-.1-.1A25.922,25.922,0,0,0,1.247,501.2c.117-.314.194-.521.242-.637l0-.008a75.808,75.808,0,0,0,4.385-13.763A99.38,99.38,0,0,0,7.871,472.76c.709-9.46.337-19.267-.023-28.751-.083-2.174-.168-4.423-.24-6.64a82.456,82.456,0,0,1,9.251-40.708A87.3,87.3,0,0,1,28.635,379.41a93.118,93.118,0,0,1,15.808-14.338,112.2,112.2,0,0,1,13.463-8.264,131.682,131.682,0,0,1,14.4-6.421,174.777,174.777,0,0,1,29.566-8.083c-.146-3.008-.217-5.8-.217-8.512,0-4.252.158-8.518.47-12.693a173.175,173.175,0,0,1-29.2-7.875,131.355,131.355,0,0,1-14.256-6.28,112.362,112.362,0,0,1-13.354-8.087A93.156,93.156,0,0,1,29.4,284.63a87.287,87.287,0,0,1-11.9-17.171,82.353,82.353,0,0,1-9.522-40.652c.056-2.213.126-4.457.194-6.627.3-9.488.6-19.3-.172-28.756A99.31,99.31,0,0,0,5.913,177.4,75.734,75.734,0,0,0,1.43,163.669l-.006-.014c-.045-.108-.117-.3-.225-.586a26.057,26.057,0,0,0-1.956-4.377l.09-.088a1.015,1.015,0,0,0,.081.172l.24-.282.214-.382-.023-.008.061-.059L.27,157.4v.292l.056-.055.237-.332a1,1,0,0,0-.217-.041l.066-.118a25.906,25.906,0,0,0,4.76.686c.3.024.493.041.609.054l.017,0a74.667,74.667,0,0,0,9.925.656,100.48,100.48,0,0,0,23.262-3.013c7.66-1.818,15.4-4.3,22.888-6.7,2.1-.674,4.275-1.371,6.422-2.046a82.509,82.509,0,0,1,24.74-3.807,84.193,84.193,0,0,1,28.81,5.124,91.5,91.5,0,0,1,26,14.7,115.158,115.158,0,0,1,15.2,14.777,144.677,144.677,0,0,1,11.981,16.19A171.211,171.211,0,0,1,202.5,178.277a171.085,171.085,0,0,1-10.786-27.341,120.362,120.362,0,0,1-4.941-30.009,93.2,93.2,0,0,1,1.792-21.263,87.254,87.254,0,0,1,6.552-19.828A82.394,82.394,0,0,1,221.85,47.768c1.837-1.314,3.708-2.635,5.517-3.913,7.737-5.464,15.737-11.115,22.806-17.412a99.152,99.152,0,0,0,9.915-10.089,75.648,75.648,0,0,0,8.251-11.821l.009-.015c.056-.095.156-.254.307-.495A27.122,27.122,0,0,0,270.99-.218l.131.019a.974.974,0,0,0-.1.193l.185.007.694-.086.792.116h.218A.974.974,0,0,0,272.8-.2l.144-.018a26.448,26.448,0,0,0,2.331,4.233c.154.243.255.4.311.5l.009.015a75.648,75.648,0,0,0,8.251,11.821,99.144,99.144,0,0,0,9.915,10.089c7.069,6.3,15.069,11.948,22.806,17.412,1.809,1.278,3.68,2.6,5.517,3.913A82.375,82.375,0,0,1,348.814,79.83a87.3,87.3,0,0,1,6.556,19.832,93.158,93.158,0,0,1,1.794,21.265,120.829,120.829,0,0,1-4.948,30.009,170.872,170.872,0,0,1-10.78,27.341,170.849,170.849,0,0,1,26.782,15.016,141.751,141.751,0,0,1,11.274-15.456,114.823,114.823,0,0,1,14.288-14.265,91.52,91.52,0,0,1,26.421-15.4,83.99,83.99,0,0,1,29.482-5.387,82.415,82.415,0,0,1,23.353,3.389c2.145.634,4.317,1.289,6.418,1.922,7.322,2.208,14.893,4.492,22.369,6.165a103.442,103.442,0,0,0,22.638,2.772,75.3,75.3,0,0,0,11.267-.836c.136-.02.367-.044.716-.079a25.4,25.4,0,0,0,4.654-.756l.06.107a1,1,0,0,0-.179.034l.185.272.085.084v-.227l.282.5.172.17-.064.022.206.37.246.308a1.018,1.018,0,0,0,.1-.214l.1.1a25.446,25.446,0,0,0-1.871,4.36c-.113.313-.187.52-.235.638l0,.009a75.494,75.494,0,0,0-4.245,13.785,98.981,98.981,0,0,0-1.849,14.034c-.611,9.455-.134,19.247.326,28.718.107,2.2.218,4.472.313,6.714a82.457,82.457,0,0,1-8.814,40.812,87.268,87.268,0,0,1-11.592,17.376,93.089,93.089,0,0,1-15.654,14.5,112.337,112.337,0,0,1-13.307,8.367,131.612,131.612,0,0,1-14.253,6.554,174.143,174.143,0,0,1-29.3,8.391c.313,4.163.471,8.411.471,12.642,0,2.71-.071,5.5-.217,8.512a174.928,174.928,0,0,1,29.56,8.082,131.773,131.773,0,0,1,14.4,6.421,112.149,112.149,0,0,1,13.466,8.264,93.221,93.221,0,0,1,15.81,14.336,87.271,87.271,0,0,1,11.78,17.248,82.327,82.327,0,0,1,9.271,39.682h.039l-.033,1.032c-.072,2.238-.159,4.507-.242,6.7-.361,9.474-.734,19.27-.025,28.719a99.083,99.083,0,0,0,2,14.018,75.609,75.609,0,0,0,4.388,13.747l.008.018c.043.1.109.283.208.553a26.639,26.639,0,0,0,1.942,4.423l-.089.084a1.035,1.035,0,0,0-.073-.157l-.288.322-.182.324.017.006-.044.041-.368.655v-.308l-.012.011-.287.4a1,1,0,0,0,.216.042l-.067.119a26.611,26.611,0,0,0-4.818-.721c-.267-.024-.444-.039-.55-.052l-.023,0a74.9,74.9,0,0,0-10.441-.723,101.586,101.586,0,0,0-23.011,2.916c-7.586,1.759-15.254,4.161-22.671,6.484-2.113.662-4.3,1.346-6.455,2.008a82.405,82.405,0,0,1-24.194,3.643,84.091,84.091,0,0,1-29.072-5.228,91.584,91.584,0,0,1-26.17-14.974,114.234,114.234,0,0,1-13.92-13.509,140.008,140.008,0,0,1-11.085-14.6,170.21,170.21,0,0,1-28.325,16.424,166.271,166.271,0,0,1,9.925,26.127,119.35,119.35,0,0,1,4.534,28.591,93.2,93.2,0,0,1-1.792,21.263,87.253,87.253,0,0,1-6.552,19.828A82.392,82.392,0,0,1,322.1,616.629c-1.837,1.314-3.707,2.635-5.517,3.913-7.737,5.464-15.737,11.115-22.806,17.412a99.132,99.132,0,0,0-9.915,10.089,75.642,75.642,0,0,0-8.251,11.821l-.009.015c-.056.095-.156.254-.307.494A27.123,27.123,0,0,0,272.96,664.616Zm-2.867-5.741c.042.072.15.241.273.437.585.926,1.158,1.854,1.619,2.685.462-.831,1.034-1.76,1.619-2.689.121-.193.227-.36.27-.432a77.626,77.626,0,0,1,8.462-12.123,101.118,101.118,0,0,1,10.112-10.292c7.153-6.373,15.2-12.056,22.983-17.553,1.807-1.276,3.675-2.6,5.507-3.906,22.626-16.17,35.107-42.221,34.243-71.472a117.35,117.35,0,0,0-4.461-28.11A165.271,165.271,0,0,0,340.477,488.7l-.444-.925.936-.421A168.143,168.143,0,0,0,370.72,470.1l.85-.616.575.878a138.833,138.833,0,0,0,11.493,15.256,112.228,112.228,0,0,0,13.674,13.272,89.59,89.59,0,0,0,25.6,14.649,82.1,82.1,0,0,0,28.382,5.105,80.406,80.406,0,0,0,23.607-3.555c2.152-.66,4.334-1.343,6.444-2,7.452-2.334,15.158-4.747,22.817-6.523a103.543,103.543,0,0,1,23.463-2.968,76.924,76.924,0,0,1,10.707.741c.082.009.269.026.483.045,1.1.1,2.193.206,3.141.344-.376-.867-.763-1.88-1.14-2.9-.08-.216-.149-.4-.182-.485a77.592,77.592,0,0,1-4.5-14.1,101.063,101.063,0,0,1-2.037-14.3c-.718-9.562-.342-19.416.021-28.945.071-1.854.143-3.762.208-5.658h-.032l.033-1.032a80.337,80.337,0,0,0-9.021-39.73,85.27,85.27,0,0,0-11.51-16.852,91.219,91.219,0,0,0-15.47-14.027,118.947,118.947,0,0,0-27.409-14.438,173.854,173.854,0,0,0-30.076-8.145l-.865-.158.046-.879c.174-3.31.259-6.347.259-9.284,0-4.479-.18-8.978-.533-13.371l-.072-.891.877-.171a173.061,173.061,0,0,0,29.83-8.463,119.007,119.007,0,0,0,27.1-14.67A91.088,91.088,0,0,0,512.8,282.036a85.273,85.273,0,0,0,11.326-16.977,80.456,80.456,0,0,0,8.6-39.827c-.1-2.236-.206-4.506-.313-6.7-.463-9.526-.942-19.376-.325-28.944a100.961,100.961,0,0,1,1.887-14.315,77.468,77.468,0,0,1,4.354-14.14c.033-.083.113-.3.2-.559.357-.993.724-1.979,1.082-2.827-.931.145-1.98.259-2.976.361-.276.028-.536.055-.623.067a77.274,77.274,0,0,1-11.562.858,105.409,105.409,0,0,1-23.075-2.82c-7.548-1.688-15.154-3.983-22.51-6.2-2.1-.633-4.267-1.287-6.407-1.919a80.416,80.416,0,0,0-22.786-3.308c-19.426,0-38.826,7.219-54.625,20.327a112.823,112.823,0,0,0-14.037,14.016,140.557,140.557,0,0,0-11.664,16.112l-.556.891-.862-.6a168.809,168.809,0,0,0-28.264-15.846l-.96-.422.467-.939A169.919,169.919,0,0,0,350.3,150.377a118.835,118.835,0,0,0,4.868-29.51,91.149,91.149,0,0,0-1.755-20.807A85.3,85.3,0,0,0,347,80.683,80.375,80.375,0,0,0,320.921,49.4c-1.832-1.311-3.7-2.63-5.508-3.906-7.782-5.5-15.83-11.18-22.983-17.553a101.131,101.131,0,0,1-10.112-10.292,77.627,77.627,0,0,1-8.461-12.122c-.042-.072-.15-.241-.273-.437C273,4.16,272.426,3.232,271.965,2.4c-.461.83-1.033,1.76-1.618,2.688-.122.194-.228.363-.271.434a77.635,77.635,0,0,1-8.461,12.122A101.127,101.127,0,0,1,251.5,27.936c-7.153,6.373-15.2,12.056-22.983,17.553-1.807,1.276-3.675,2.6-5.507,3.906-22.626,16.171-35.107,42.221-34.243,71.472a118.359,118.359,0,0,0,4.862,29.509,170.117,170.117,0,0,0,11.12,27.947l.467.939-.96.422A169.159,169.159,0,0,0,175.315,196l-.859.6-.561-.887a143.529,143.529,0,0,0-12.368-16.837A113.16,113.16,0,0,0,146.6,164.357a89.5,89.5,0,0,0-25.433-14.38,82.2,82.2,0,0,0-28.127-5,80.515,80.515,0,0,0-24.141,3.715c-2.141.673-4.312,1.369-6.411,2.042-7.522,2.413-15.3,4.907-23.037,6.743a102.44,102.44,0,0,1-23.724,3.067,76.675,76.675,0,0,1-10.183-.672c-.086-.01-.293-.027-.532-.046-1.078-.089-2.149-.188-3.081-.318.377.856.765,1.854,1.144,2.86.087.232.163.433.2.511a77.728,77.728,0,0,1,4.6,14.083A101.277,101.277,0,0,1,10,191.261c.784,9.569.476,19.438.178,28.981-.068,2.167-.137,4.409-.194,6.616a80.355,80.355,0,0,0,9.293,39.669A85.284,85.284,0,0,0,30.9,283.3a91.156,91.156,0,0,0,15.566,13.922A118.9,118.9,0,0,0,73.62,311.351a172.074,172.074,0,0,0,29.746,7.941l.894.16-.073.9c-.354,4.409-.534,8.93-.534,13.436,0,2.938.085,5.974.259,9.284l.046.879-.866.158a173.674,173.674,0,0,0-30.081,8.145,118.952,118.952,0,0,0-27.4,14.438,91.111,91.111,0,0,0-15.468,14.029,85.3,85.3,0,0,0-11.506,16.856,80.455,80.455,0,0,0-9.028,39.724c.071,2.211.157,4.457.239,6.628.362,9.54.737,19.4.019,28.976A101.359,101.359,0,0,1,7.83,487.223a77.785,77.785,0,0,1-4.5,14.118c-.034.081-.115.3-.21.555-.369.993-.746,1.978-1.112,2.824.948-.138,2.042-.246,3.144-.343.213-.019.4-.035.482-.044a76.919,76.919,0,0,1,10.708-.741,103.545,103.545,0,0,1,23.462,2.968c7.659,1.776,15.364,4.189,22.815,6.523,2.111.661,4.293,1.344,6.446,2a80.406,80.406,0,0,0,23.607,3.555,82.1,82.1,0,0,0,28.382-5.1,89.589,89.589,0,0,0,25.6-14.649,112.227,112.227,0,0,0,13.674-13.272,138.837,138.837,0,0,0,11.493-15.256l.575-.878.85.616A168.149,168.149,0,0,0,203,487.352l.936.421-.444.925a165.243,165.243,0,0,0-10.243,26.73,117.365,117.365,0,0,0-4.461,28.1,91.151,91.151,0,0,0,1.755,20.808,85.3,85.3,0,0,0,6.4,19.377A80.376,80.376,0,0,0,223.029,615c1.833,1.311,3.7,2.63,5.508,3.906,7.782,5.5,15.83,11.18,22.983,17.553a101.116,101.116,0,0,1,10.112,10.292A77.631,77.631,0,0,1,270.092,658.875Z" transform="translate(-0.02 -0.03)" fill="url(#linear-gradient)"/>
    </g>
    <path id="Path_1299" data-name="Path 1299" d="M218.387,340.7a134.859,134.859,0,0,1-26.981-2.72A133.16,133.16,0,0,1,143.53,317.83a134.282,134.282,0,0,1-48.508-58.906,133.217,133.217,0,0,1-7.8-25.133,134.859,134.859,0,0,1-2.72-26.981c0-2.548.1-5.307.311-8.683h2c4.427,69.157,62.224,123.33,131.58,123.33s127.153-54.173,131.58-123.33l2,0c.215,3.442.311,6.12.311,8.683a134.857,134.857,0,0,1-2.72,26.981,133.159,133.159,0,0,1-20.147,47.876A134.282,134.282,0,0,1,270.5,330.175a133.221,133.221,0,0,1-25.133,7.8A134.86,134.86,0,0,1,218.387,340.7ZM86.668,213.5c3.493,69.629,61.238,125.2,131.719,125.2s128.227-55.569,131.72-125.2q-.929,5.152-2.255,10.2a133.356,133.356,0,0,1-21.393,44.884,134.145,134.145,0,0,1-57.867,45.137,133.191,133.191,0,0,1-24.259,7.221,135.2,135.2,0,0,1-51.893,0,133.042,133.042,0,0,1-46.35-18.673A134.367,134.367,0,0,1,97.582,247.3a133.318,133.318,0,0,1-8.66-23.6Q87.6,218.66,86.668,213.5Z" transform="translate(53.535 124.122)" fill="url(#linear-gradient)"/>
    <path id="Path_1300" data-name="Path 1300" d="M232.427,100.12a171.6,171.6,0,0,1,34.329,3.461,169.412,169.412,0,0,1,60.91,25.63,170.825,170.825,0,0,1,61.712,74.942,169.487,169.487,0,0,1,9.925,31.976,172,172,0,0,1,0,68.657,169.41,169.41,0,0,1-25.63,60.911,170.825,170.825,0,0,1-74.942,61.712,169.49,169.49,0,0,1-31.976,9.925,172,172,0,0,1-68.657,0,169.409,169.409,0,0,1-60.911-25.63,170.826,170.826,0,0,1-61.712-74.942,169.486,169.486,0,0,1-9.925-31.976,172,172,0,0,1,0-68.657,169.409,169.409,0,0,1,25.63-60.911,170.823,170.823,0,0,1,74.942-61.712,169.487,169.487,0,0,1,31.976-9.926A171.6,171.6,0,0,1,232.427,100.12Zm0,338.675c92.822,0,168.337-75.516,168.337-168.337S325.249,102.12,232.427,102.12,64.09,177.636,64.09,270.457,139.606,438.795,232.427,438.795Zm0-310.666a143.341,143.341,0,0,1,28.679,2.891,141.538,141.538,0,0,1,50.888,21.415,142.736,142.736,0,0,1,51.561,62.613,141.6,141.6,0,0,1,8.293,26.714,143.67,143.67,0,0,1,0,57.357,141.538,141.538,0,0,1-21.415,50.888,142.736,142.736,0,0,1-62.613,51.561,141.6,141.6,0,0,1-26.714,8.293,143.67,143.67,0,0,1-57.357,0,141.538,141.538,0,0,1-50.888-21.415A142.736,142.736,0,0,1,101.3,325.834a141.6,141.6,0,0,1-8.293-26.714,143.668,143.668,0,0,1,0-57.357,141.537,141.537,0,0,1,21.415-50.888,142.736,142.736,0,0,1,62.613-51.561,141.6,141.6,0,0,1,26.714-8.293A143.342,143.342,0,0,1,232.427,128.129Zm0,282.625c77.368,0,140.312-62.944,140.312-140.312S309.8,130.129,232.427,130.129,92.115,193.073,92.115,270.441,155.059,410.754,232.427,410.754Z" transform="translate(39.495 63.305)" fill="url(#linear-gradient)"/>
  </g>
</svg>
