<svg xmlns="http://www.w3.org/2000/svg" width="1481.44" height="1094.608" viewBox="0 0 1481.44 1094.608"><g transform="translate(0)"><g transform="translate(0)"><g transform="translate(0 396.054)"><path d="M748.991,236.787C353.223,80.266,7.464,233.458.144,236.758a1.483,1.483,0,0,1-.144.086,1.492,1.492,0,0,1,.144.086c7.321,3.271,353.079,156.492,748.876-.029l.057-.057-.057-.057Z" transform="translate(0 -85.608)" fill="rgba(239,252,251,0.6)" opacity="0.9"/><path d="M748.887,289.47C462.181-47.529,8.509,283.215.04,289.441,7.389,286.142,353.148,132.95,748.887,289.47Z" transform="translate(0.075 -138.292)" fill="rgba(239,252,251,0.6)" opacity="0.8"/><path d="M.03,191.059c8.44,6.2,462.169,336.971,748.876-.029C353.109,347.55,7.35,194.358.03,191.059Z" transform="translate(0.056 -39.708)" fill="rgba(239,252,251,0.6)" opacity="0.8"/></g><g transform="translate(145.119)"><g transform="translate(0 159.275)"><path d="M51.383,56.543c-.545-.689-.833-1.033-.833-1.033A1.958,1.958,0,0,0,51.383,56.543Z" transform="translate(-50.55 -55.51)" fill="rgba(239,252,251,0.6)"/><path d="M654.451,444.3C289.314,345.424,66.54,75.337,51.383,56.543a1.958,1.958,0,0,1-.833-1.033S131.392,425.478,654.451,444.3Z" transform="translate(-50.55 -55.51)" fill="rgba(239,252,251,0.6)" opacity="0.8"/><path d="M653.871,443.646q-1.55-9.3-3.273-18.564c-15.187-80.484-42.66-161.169-93.244-226.589C494.743,117.55,400.064,70.723,297.749,77.609c-77.282,5.222-153.53,14.748-227.8-14.088-1.866-.717-15.56-4.878-19.091-7.661C66.018,74.654,288.763,344.713,653.9,443.617Z" transform="translate(-49.97 -54.856)" fill="rgba(239,252,251,0.6)" opacity="0.7"/><path d="M50.55,55.51c83.54,504.739,603.9,388.79,603.9,388.79C131.392,425.478,50.55,55.51,50.55,55.51Z" transform="translate(-50.55 -55.51)" fill="rgba(239,252,251,0.6)" opacity="0.9"/></g><g transform="translate(211.516)"><path d="M130.184,1.205C129.954.43,129.839,0,129.839,0A1.938,1.938,0,0,0,130.184,1.205Z" transform="translate(-113.759 0)" fill="rgba(239,252,251,0.6)"/><path d="M508.185,548.094C231.871,332.982,138.455,22.639,132.255,1.205A1.9,1.9,0,0,1,131.91,0S68.379,344.8,508.185,548.094Z" transform="translate(-115.83)" fill="rgba(239,252,251,0.6)" opacity="0.8"/><path d="M505.881,547.328q2.024-8.479,3.847-17.015c15.876-74.143,21.33-152.848,1.579-226.847-24.459-91.5-88.507-165.386-178.334-196.117C265.107,84.136,196.61,65,143.529,13.781,142.18,12.49,131.988,4.054,129.95.41c6.2,21.462,99.617,331.777,375.959,546.889Z" transform="translate(-113.525 0.766)" fill="rgba(239,252,251,0.6)" opacity="0.7"/><path d="M140.309,0C30.788,460.839,516.584,548.094,516.584,548.094,76.778,344.8,140.309,0,140.309,0Z" transform="translate(-124.229)" fill="rgba(239,252,251,0.6)" opacity="0.9"/></g><g transform="translate(0 535.052)"><path d="M51.383,326.13c-.545.689-.833,1.033-.833,1.033A1.958,1.958,0,0,1,51.383,326.13Z" transform="translate(-50.55 73.089)" fill="rgba(239,252,251,0.6)"/><path d="M654.432,190.99C289.3,289.895,66.522,559.953,51.393,578.747a1.958,1.958,0,0,0-.833,1.033s80.842-369.968,603.9-388.79Z" transform="translate(-50.531 -179.528)" fill="rgba(239,252,251,0.6)" opacity="0.8"/><path d="M653.871,190.99q-1.55,9.3-3.273,18.564c-15.187,80.484-42.66,161.169-93.244,226.589-62.612,80.943-157.291,127.77-259.606,120.884-77.282-5.222-153.53-14.748-227.8,14.088-1.866.717-15.56,4.878-19.091,7.661,15.158-18.794,237.9-288.853,603.039-387.757Z" transform="translate(-49.97 -179.528)" fill="rgba(239,252,251,0.6)" opacity="0.7"/><path d="M50.55,587.276c83.54-504.739,603.9-388.79,603.9-388.79C131.392,217.309,50.55,587.276,50.55,587.276Z" transform="translate(-50.55 -186.995)" fill="rgba(239,252,251,0.6)" opacity="0.9"/><g transform="translate(211.516 11.433)"><path d="M130.184,381.59c-.23.775-.344,1.205-.344,1.205A1.938,1.938,0,0,1,130.184,381.59Z" transform="translate(-113.759 165.328)" fill="rgba(239,252,251,0.6)"/><path d="M508.2,190.98C231.89,406.092,138.474,716.406,132.245,737.869a1.9,1.9,0,0,0-.344,1.205S68.369,394.27,508.175,190.98Z" transform="translate(-115.848 -190.98)" fill="rgba(239,252,251,0.6)" opacity="0.8"/><path d="M505.881,190.98q2.024,8.479,3.847,17.015c15.876,74.143,21.33,152.848,1.579,226.847-24.459,91.5-88.507,165.387-178.334,196.117-67.866,23.213-136.363,42.351-189.444,93.568-1.349,1.291-11.541,9.727-13.579,13.371,6.2-21.463,99.617-331.777,375.959-546.889Z" transform="translate(-113.525 -190.98)" fill="rgba(239,252,251,0.6)" opacity="0.7"/><path d="M140.309,739.074C30.788,278.236,516.584,190.98,516.584,190.98,76.75,394.27,140.309,739.074,140.309,739.074Z" transform="translate(-124.229 -190.98)" fill="rgba(239,252,251,0.6)" opacity="0.9"/></g></g></g><path d="M260.89,190.98l.057.057-.057.057h.057a.106.106,0,0,0,.086-.029.105.105,0,0,1-.086-.029h-.057Z" transform="translate(488.072 356.252)" fill="rgba(239,252,251,0.6)"/></g><g transform="translate(714.325)"><g transform="translate(18.039 396.06)"><path d="M256.086,236.9c395.768,156.52,741.527,3.328,748.847.029a1.5,1.5,0,0,1,.143-.086,1.45,1.45,0,0,1-.143-.086c-7.321-3.271-353.079-156.492-748.876.029l-.057.057.057.057Z" transform="translate(-256 -85.611)" fill="rgba(239,252,251,0.6)" opacity="0.9"/><path d="M256.05,191.02c286.706,337,740.378,6.255,748.847.029-7.349,3.3-353.108,156.492-748.847-.029Z" transform="translate(-255.907 -39.733)" fill="rgba(239,252,251,0.6)" opacity="0.8"/><path d="M1004.916,289.437c-8.44-6.2-462.169-336.971-748.876.029C651.837,132.945,997.6,286.137,1004.916,289.437Z" transform="translate(-255.925 -138.294)" fill="rgba(239,252,251,0.6)" opacity="0.8"/></g><g transform="translate(0 535.052)"><g transform="translate(18.096)"><path d="M466.09,326.13c.545.689.832,1.033.832,1.033A1.958,1.958,0,0,0,466.09,326.13Z" transform="translate(136.978 73.089)" fill="rgba(239,252,251,0.6)"/><path d="M256.049,190.99c365.137,98.9,587.911,368.963,603.04,387.757a1.959,1.959,0,0,1,.833,1.033s-80.842-369.968-603.9-388.79Z" transform="translate(-256.02 -179.528)" fill="rgba(239,252,251,0.6)" opacity="0.8"/><path d="M256.049,190.99q1.55,9.3,3.273,18.564c15.186,80.484,42.66,161.169,93.243,226.589,62.612,80.943,157.291,127.77,259.606,120.884,77.282-5.222,153.53-14.748,227.8,14.088,1.866.717,15.56,4.878,19.091,7.661C843.9,559.982,621.157,289.924,256.02,191.019Z" transform="translate(-256.02 -179.528)" fill="rgba(239,252,251,0.6)" opacity="0.7"/><path d="M859.921,587.276c-83.54-504.739-603.9-388.79-603.9-388.79C779.079,217.309,859.921,587.276,859.921,587.276Z" transform="translate(-256.02 -186.995)" fill="rgba(239,252,251,0.6)" opacity="0.9"/></g><g transform="translate(0 11.433)"><path d="M386.98,381.59c.23.775.345,1.205.345,1.205A1.939,1.939,0,0,0,386.98,381.59Z" transform="translate(7.076 165.328)" fill="rgba(239,252,251,0.6)"/><path d="M256.03,190.98C532.344,406.092,625.76,716.406,631.989,737.869a1.9,1.9,0,0,1,.345,1.205s63.531-344.8-376.275-548.094Z" transform="translate(-237.905 -190.98)" fill="rgba(239,252,251,0.6)" opacity="0.8"/><path d="M267.841,190.98q-2.024,8.479-3.847,17.015c-15.876,74.143-21.33,152.848-1.579,226.847,24.459,91.5,88.507,165.387,178.334,196.117,67.866,23.213,136.363,42.351,189.444,93.568,1.349,1.291,11.541,9.727,13.579,13.371-6.2-21.463-99.617-331.777-375.96-546.889Z" transform="translate(-249.717 -190.98)" fill="rgba(239,252,251,0.6)" opacity="0.7"/><path d="M632.305,739.074C741.826,278.235,256.03,190.98,256.03,190.98,695.865,394.27,632.305,739.074,632.305,739.074Z" transform="translate(-237.905 -190.98)" fill="rgba(239,252,251,0.6)" opacity="0.9"/></g></g><g transform="translate(18.096 159.275)"><path d="M466.09,56.543c.545-.689.832-1.033.832-1.033A1.958,1.958,0,0,1,466.09,56.543Z" transform="translate(136.978 -55.51)" fill="rgba(239,252,251,0.6)"/><path d="M256.049,444.3C621.185,345.4,843.959,75.337,859.088,56.543a1.959,1.959,0,0,0,.833-1.033S779.079,425.478,256.02,444.3Z" transform="translate(-256.02 -55.51)" fill="rgba(239,252,251,0.6)" opacity="0.8"/><path d="M256.049,443.646q1.55-9.3,3.273-18.564c15.186-80.484,42.66-161.169,93.243-226.589C415.177,117.55,509.856,70.723,612.171,77.609c77.282,5.222,153.53,14.748,227.8-14.088,1.866-.717,15.56-4.878,19.091-7.661C843.9,74.654,621.157,344.713,256.02,443.617Z" transform="translate(-256.02 -54.856)" fill="rgba(239,252,251,0.6)" opacity="0.7"/><path d="M859.921,55.51c-83.54,504.739-603.9,388.79-603.9,388.79C779.079,425.478,859.921,55.51,859.921,55.51Z" transform="translate(-256.02 -55.51)" fill="rgba(239,252,251,0.6)" opacity="0.9"/></g><path d="M386.98,1.205c.23-.775.345-1.205.345-1.205A1.939,1.939,0,0,1,386.98,1.205Z" transform="translate(7.076 0)" fill="rgba(239,252,251,0.6)"/><path d="M256.03,548.094C532.344,332.982,625.76,22.639,631.961,1.205A1.894,1.894,0,0,0,632.305,0S695.836,344.8,256.03,548.094Z" transform="translate(-237.905)" fill="rgba(239,252,251,0.6)" opacity="0.8"/><path d="M267.841,547.328q-2.024-8.479-3.847-17.015c-15.876-74.143-21.33-152.848-1.579-226.847,24.459-91.5,88.507-165.386,178.334-196.117C508.615,84.136,577.112,65,630.193,13.781,631.542,12.49,641.734,4.054,643.772.41c-6.2,21.462-99.617,331.777-375.96,546.889Z" transform="translate(-249.717 0.766)" fill="rgba(239,252,251,0.6)" opacity="0.7"/><path d="M632.305,0C741.826,460.839,256.03,548.094,256.03,548.094,695.836,344.8,632.305,0,632.305,0Z" transform="translate(-237.905)" fill="rgba(239,252,251,0.6)" opacity="0.9"/><path d="M256.134,191.095l-.057-.057.057-.057h-.057a.106.106,0,0,0-.086.029.106.106,0,0,1,.086.029h.057Z" transform="translate(-237.98 356.252)" fill="rgba(239,252,251,0.6)"/></g></g></svg>