<svg xmlns="http://www.w3.org/2000/svg" width="499.736" height="349.563" viewBox="0 0 499.736 349.563"><g transform="translate(0 0)"><g transform="translate(180.913)"><path d="M198.583,341.3C269.944,160.958,200.1,3.4,198.6.065A.678.678,0,0,1,198.557,0a.678.678,0,0,1-.039.065c-1.491,3.336-71.348,160.892.013,341.25l.026.026.026-.026Z" transform="translate(-129.609 0)" fill="rgba(0,206,209,0.44)" opacity="0.9"/><path d="M191.02,341.277C344.665,210.63,193.872,3.9,191.033.04,192.537,3.389,262.381,160.945,191.02,341.277Z" transform="translate(-122.045 0.012)" fill="rgba(0,206,209,0.44)" opacity="0.8"/><path d="M207.2.03c-2.826,3.846-153.632,210.6.013,341.25C135.856,160.922,205.7,3.366,207.2.03Z" transform="translate(-138.294 0.009)" fill="rgba(0,206,209,0.44)" opacity="0.8"/></g><g transform="translate(0 66.128)"><g transform="translate(244.623)"><path d="M326.13,50.929c.314-.249.471-.379.471-.379A.892.892,0,0,0,326.13,50.929Z" transform="translate(-144.117 -50.55)" fill="rgba(0,206,209,0.44)"/><path d="M190.99,325.735c45.093-166.387,168.218-267.9,176.787-274.8a.893.893,0,0,1,.471-.379S199.572,87.4,190.99,325.748Z" transform="translate(-185.764 -50.547)" fill="rgba(0,206,209,0.44)" opacity="0.8"/><path d="M190.99,325.642q4.239-.706,8.464-1.491c36.694-6.92,73.48-19.439,103.307-42.49,36.9-28.531,58.253-71.675,55.113-118.3-2.381-35.216-6.724-69.961,6.423-103.8.327-.85,2.224-7.09,3.493-8.7C359.221,57.767,236.1,159.268,191,325.655Z" transform="translate(-185.764 -50.454)" fill="rgba(0,206,209,0.44)" opacity="0.7"/><path d="M369.492,50.55C139.371,88.618,192.234,325.738,192.234,325.738,200.816,87.388,369.492,50.55,369.492,50.55Z" transform="translate(-186.995 -50.55)" fill="rgba(0,206,209,0.44)" opacity="0.9"/><g transform="translate(5.213 96.385)"><path d="M381.59,129.989c.353-.1.549-.157.549-.157A.884.884,0,0,0,381.59,129.989Z" transform="translate(-132.239 -122.504)" fill="rgba(0,206,209,0.44)"/><path d="M190.98,301.638c98.074-125.912,239.553-168.48,249.338-171.319a.865.865,0,0,1,.549-.157s-157.2-28.95-249.888,171.462Z" transform="translate(-190.98 -122.848)" fill="rgba(0,206,209,0.44)" opacity="0.8"/><path d="M190.98,301.255q3.866.922,7.757,1.753c33.8,7.234,69.686,9.72,103.424.719,41.718-11.146,75.4-40.331,89.414-81.264,10.583-30.925,19.309-62.138,42.66-86.326.589-.615,4.435-5.259,6.1-6.188-9.785,2.826-151.264,45.394-249.338,171.319Z" transform="translate(-190.98 -122.465)" fill="rgba(0,206,209,0.44)" opacity="0.7"/><path d="M440.868,131.556C230.762,81.649,190.98,303.019,190.98,303.019c92.684-200.425,249.888-171.462,249.888-171.462Z" transform="translate(-190.98 -124.229)" fill="rgba(0,206,209,0.44)" opacity="0.9"/></g></g><g transform="translate(72.617)"><path d="M55.981,50.929c-.314-.249-.471-.379-.471-.379A.893.893,0,0,1,55.981,50.929Z" transform="translate(-55.51 -50.55)" fill="rgba(0,206,209,0.44)"/><path d="M232.768,325.738C187.688,159.351,64.549,57.837,55.981,50.929a.893.893,0,0,0-.471-.379S224.186,87.388,232.768,325.738Z" transform="translate(-55.51 -50.55)" fill="rgba(0,206,209,0.44)" opacity="0.8"/><path d="M232.66,325.642q-4.239-.706-8.464-1.491c-36.694-6.92-73.48-19.439-103.307-42.49-36.9-28.531-58.253-71.675-55.113-118.3,2.381-35.216,6.724-69.961-6.423-103.8-.327-.85-2.224-7.09-3.493-8.7,8.569,6.907,131.694,108.408,176.787,274.8Z" transform="translate(-55.402 -50.454)" fill="rgba(0,206,209,0.44)" opacity="0.7"/><path d="M55.51,50.55C285.631,88.618,232.768,325.738,232.768,325.738,224.186,87.388,55.51,50.55,55.51,50.55Z" transform="translate(-55.51 -50.55)" fill="rgba(0,206,209,0.44)" opacity="0.9"/></g><g transform="translate(0 96.385)"><path d="M.549,129.989c-.353-.1-.549-.157-.549-.157A.884.884,0,0,1,.549,129.989Z" transform="translate(0 -122.504)" fill="rgba(0,206,209,0.44)"/><path d="M249.888,301.635C151.814,175.723,10.321,133.155.549,130.33A.864.864,0,0,0,0,130.173s157.2-28.95,249.888,171.462Z" transform="translate(0 -122.845)" fill="rgba(0,206,209,0.44)" opacity="0.8"/><path d="M249.761,301.255q-3.866.922-7.757,1.753c-33.8,7.234-69.686,9.72-103.424.719-41.718-11.146-75.4-40.331-89.414-81.264-10.583-30.925-19.309-62.138-42.66-86.326-.589-.615-4.435-5.259-6.1-6.188,9.785,2.826,151.264,45.394,249.338,171.319Z" transform="translate(0.126 -122.465)" fill="rgba(0,206,209,0.44)" opacity="0.7"/><path d="M0,131.556C210.106,81.649,249.888,303.019,249.888,303.019,157.2,102.606,0,131.556,0,131.556Z" transform="translate(0 -124.229)" fill="rgba(0,206,209,0.44)" opacity="0.9"/></g></g><path d="M191.032,260.89l-.026.026-.026-.026v.026a.048.048,0,0,0,.013.039.048.048,0,0,1,.013-.039v-.026Z" transform="translate(58.855 80.4)" fill="rgba(0,206,209,0.44)"/></g></svg>