<svg xmlns="http://www.w3.org/2000/svg" xmlns:xlink="http://www.w3.org/1999/xlink" width="533.51" height="506.652" viewBox="0 0 533.51 506.652">
  <defs>
    <linearGradient id="linear-gradient" x1="0.5" x2="0.5" y2="1" gradientUnits="objectBoundingBox">
      <stop offset="0" stop-color="#de9ac0"/>
      <stop offset="0.398" stop-color="#b9aa8d"/>
      <stop offset="0.745" stop-color="#68b6c9"/>
      <stop offset="1" stop-color="#45aeb2"/>
    </linearGradient>
  </defs>
  <g id="bg_muladhara" transform="translate(1.398 1.398)">
    <path id="Ellipse_5" data-name="Ellipse 5" d="M148.575-1a150.676,150.676,0,0,1,30.144,3.039A148.762,148.762,0,0,1,232.2,24.546,150.009,150.009,0,0,1,286.4,90.353a148.829,148.829,0,0,1,8.716,28.078,151.025,151.025,0,0,1,0,60.287A148.762,148.762,0,0,1,272.6,232.2,150.009,150.009,0,0,1,206.8,286.4a148.829,148.829,0,0,1-28.078,8.716,151.025,151.025,0,0,1-60.287,0A148.762,148.762,0,0,1,64.946,272.6,150.009,150.009,0,0,1,10.755,206.8a148.829,148.829,0,0,1-8.716-28.078,151.025,151.025,0,0,1,0-60.287A148.762,148.762,0,0,1,24.546,64.946,150.009,150.009,0,0,1,90.353,10.755a148.829,148.829,0,0,1,28.078-8.716A150.676,150.676,0,0,1,148.575-1Zm0,297.15c81.373,0,147.575-66.2,147.575-147.575S229.948,1,148.575,1,1,67.2,1,148.575,67.2,296.15,148.575,296.15Z" transform="translate(116.389 102.56)" opacity="0.74" fill="url(#linear-gradient)"/>
    <path id="Path_1294" data-name="Path 1294" d="M224.932,163.933c-42.431,0-85.847-.042-103.234-.1h-.384l-.284-.258a101.923,101.923,0,0,1-17.512-20.726,75.594,75.594,0,0,1-8.543-18.359,57.274,57.274,0,0,1-2.312-22.271,60.165,60.165,0,0,1,8.683-25.23,89.781,89.781,0,0,1,15.7-19,119.9,119.9,0,0,1,24.234-17.514c9.045-4.756,17.923-7.565,27.321-10.539,16.281-5.152,33.116-10.479,51.439-26.753,1.9-1.674,3.326-3.041,4.191-3.893l.7-.686.7.68c1.353,1.312,2.766,2.624,4.2,3.9,18.312,16.255,35.138,21.582,51.411,26.734,9.409,2.979,18.3,5.792,27.349,10.558a119.906,119.906,0,0,1,24.234,17.514,89.78,89.78,0,0,1,15.7,19,60.166,60.166,0,0,1,8.683,25.23,57.252,57.252,0,0,1-2.314,22.271,75.606,75.606,0,0,1-8.546,18.359,102.1,102.1,0,0,1-17.506,20.725l-.284.258-.384,0C312.914,163.9,275.286,163.933,224.932,163.933Zm-102.843-2.1c17.635.057,60.725.1,102.843.1,49.934,0,87.35-.036,102.842-.1,9.414-8.619,30.223-31.123,27.438-59.419-1.493-15.17-9.487-29.626-23.758-42.967a117.742,117.742,0,0,0-23.8-17.2c-8.9-4.683-17.7-7.47-27.021-10.421-16.472-5.215-33.5-10.607-52.136-27.146-1.209-1.077-2.4-2.179-3.561-3.285-.879.847-2.085,1.975-3.571,3.287C202.726,21.233,185.684,26.626,169.2,31.841c-9.312,2.946-18.107,5.73-26.994,10.4a117.742,117.742,0,0,0-23.8,17.2c-14.271,13.341-22.264,27.8-23.758,42.967C91.861,130.768,112.673,153.234,122.089,161.834Z" transform="translate(40.032 0)" opacity="0.75" fill="url(#linear-gradient)"/>
    <path id="Path_1295" data-name="Path 1295" d="M224.942,237.64c42.426,0,85.843.042,103.235.1h.384l.284.258a101.923,101.923,0,0,1,17.512,20.726,75.594,75.594,0,0,1,8.543,18.359,57.274,57.274,0,0,1,2.312,22.271,60.165,60.165,0,0,1-8.683,25.23,89.78,89.78,0,0,1-15.7,19A119.908,119.908,0,0,1,308.6,361.1c-9.045,4.756-17.922,7.565-27.321,10.539-16.281,5.152-33.116,10.479-51.439,26.753-1.9,1.674-3.326,3.041-4.191,3.893l-.7.686-.7-.68c-1.353-1.312-2.765-2.624-4.2-3.9-18.312-16.255-35.138-21.582-51.411-26.734-9.409-2.979-18.3-5.792-27.349-10.558a119.91,119.91,0,0,1-24.234-17.514,89.781,89.781,0,0,1-15.7-19,60.166,60.166,0,0,1-8.683-25.23,57.252,57.252,0,0,1,2.314-22.271,75.609,75.609,0,0,1,8.546-18.359A102.1,102.1,0,0,1,121.038,238l.284-.258.384,0C136.962,237.676,174.589,237.64,224.942,237.64Zm102.843,2.1c-17.639-.057-60.729-.1-102.843-.1-49.932,0-87.348.036-102.842.1-9.414,8.619-30.223,31.123-27.438,59.419,1.493,15.17,9.487,29.626,23.758,42.967a117.747,117.747,0,0,0,23.8,17.2c8.9,4.683,17.7,7.47,27.021,10.421,16.472,5.215,33.5,10.607,52.136,27.146,1.209,1.077,2.4,2.179,3.561,3.285.879-.847,2.086-1.975,3.571-3.287,18.639-16.555,35.681-21.948,52.162-27.163,9.312-2.947,18.107-5.73,26.994-10.4a117.749,117.749,0,0,0,23.8-17.2c14.271-13.341,22.264-27.8,23.758-42.967C358.013,270.8,337.2,248.339,327.785,239.739Z" transform="translate(40.036 102.283)" opacity="0.75" fill="url(#linear-gradient)"/>
    <path id="Path_1296" data-name="Path 1296" d="M107.557,82.73a59.625,59.625,0,0,1,20.364,3.718,79.224,79.224,0,0,1,16.715,8.563,103.148,103.148,0,0,1,18.937,16.347l.258.284,0,.384c.064,15.26.1,52.888.1,103.235,0,42.431-.042,85.847-.1,103.235v.384l-.258.284a102.6,102.6,0,0,1-18.937,16.353,79.2,79.2,0,0,1-16.714,8.56,59.645,59.645,0,0,1-20.363,3.716c-1.778,0-3.575-.088-5.341-.262a60.165,60.165,0,0,1-25.23-8.683,89.781,89.781,0,0,1-19-15.7,119.9,119.9,0,0,1-17.514-24.234c-4.756-9.045-7.565-17.922-10.539-27.321-5.152-16.281-10.479-33.116-26.753-51.439-1.674-1.9-3.041-3.326-3.894-4.191l-.686-.7.68-.7c1.313-1.354,2.625-2.766,3.9-4.2,16.255-18.312,21.582-35.138,26.734-51.411,2.979-9.409,5.792-18.3,10.558-27.349a119.906,119.906,0,0,1,17.514-24.234,89.783,89.783,0,0,1,19-15.7,60.166,60.166,0,0,1,25.23-8.683C103.984,82.818,105.78,82.73,107.557,82.73Zm54.277,29.69c-7.837-8.558-28.276-27.69-54.277-27.69-1.712,0-3.442.085-5.142.252-15.17,1.493-29.626,9.487-42.967,23.758a117.744,117.744,0,0,0-17.2,23.8c-4.683,8.9-7.47,17.7-10.421,27.021-5.215,16.472-10.607,33.5-27.146,52.136-1.076,1.209-2.178,2.4-3.285,3.561.847.879,1.975,2.085,3.287,3.571,16.555,18.639,21.948,35.681,27.163,52.162,2.947,9.312,5.73,18.107,10.4,26.994a117.739,117.739,0,0,0,17.2,23.8c13.341,14.271,27.8,22.264,42.967,23.758,1.7.167,3.432.252,5.145.252,26.056,0,46.457-19.132,54.274-27.689.057-17.635.1-60.725.1-102.843C161.933,165.335,161.9,127.918,161.834,112.42Z" transform="translate(0 35.887)" opacity="0.75" fill="url(#linear-gradient)"/>
    <path id="Path_1297" data-name="Path 1297" d="M312.816,347.784a59.625,59.625,0,0,1-20.364-3.718,79.222,79.222,0,0,1-16.715-8.563A103.144,103.144,0,0,1,256.8,319.155l-.258-.284,0-.384c-.064-15.251-.1-52.879-.1-103.235,0-42.445.042-85.861.1-103.234v-.384l.258-.284A102.6,102.6,0,0,1,275.735,95a79.2,79.2,0,0,1,16.714-8.56,59.646,59.646,0,0,1,20.363-3.716c1.778,0,3.575.088,5.341.262a60.166,60.166,0,0,1,25.23,8.683,89.781,89.781,0,0,1,19,15.7A119.908,119.908,0,0,1,379.9,131.6c4.756,9.045,7.565,17.923,10.539,27.322,5.152,16.281,10.479,33.116,26.753,51.439,1.674,1.9,3.041,3.326,3.894,4.191l.686.7-.68.7c-1.312,1.353-2.624,2.765-3.9,4.2-16.255,18.312-21.582,35.138-26.734,51.411-2.979,9.409-5.792,18.3-10.558,27.349a119.91,119.91,0,0,1-17.514,24.234,89.783,89.783,0,0,1-19,15.7,60.166,60.166,0,0,1-25.23,8.683C316.388,347.7,314.592,347.784,312.816,347.784Zm-54.277-29.69c7.836,8.558,28.275,27.69,54.277,27.69,1.712,0,3.442-.085,5.142-.252,15.17-1.493,29.626-9.487,42.967-23.758a117.748,117.748,0,0,0,17.2-23.8c4.683-8.9,7.47-17.7,10.421-27.021,5.215-16.472,10.607-33.5,27.146-52.136,1.077-1.209,2.179-2.4,3.285-3.561-.847-.879-1.975-2.085-3.287-3.571-16.555-18.639-21.948-35.681-27.162-52.162-2.947-9.312-5.73-18.107-10.4-26.994a117.745,117.745,0,0,0-17.2-23.8c-13.341-14.271-27.8-22.265-42.967-23.758-1.7-.167-3.432-.252-5.145-.252-26.056,0-46.457,19.131-54.274,27.689-.057,17.621-.1,60.711-.1,102.843C258.44,265.188,258.476,302.6,258.538,318.094Z" transform="translate(110.341 35.883)" opacity="0.75" fill="url(#linear-gradient)"/>
  </g>
</svg>
