<svg xmlns="http://www.w3.org/2000/svg" width="465.011" height="426.689" viewBox="0 0 465.011 426.689">
  <g id="icon_om" transform="matrix(0.985, 0.174, -0.174, 0.985, 45.335, -34.992)">
    <path id="path2" d="M240.77,31.44,212.03,60.18l28.74,28.746,28.74-28.746Zm60.853,33.3s-1.673,2.232-2.786,3.9c-3.9,4.455-7.8,8.907-11.138,12.248-14.478,13.364-30.622,22.273-50.668,20.046-16.148-1.67-29.511-8.907-41.761-18.93C189.7,77.554,178,67.529,178,67.529a18.3,18.3,0,0,0,1.671,3.341c6.682,16.7,15.038,31.738,27.288,45.1,10.58,12.25,23.388,20.048,39.536,22.832,12.25,2.227,25.055,3.9,37.3,2.786,20.046-1.671,37.311-9.468,50.675-24.5,1.67-1.67,4.45-5.011,4.45-5.011a41.988,41.988,0,0,1-3.9-4.457c-10.58-12.807-20.606-25.611-30.629-38.975A27.643,27.643,0,0,1,301.624,64.743Zm-164.446,33.3a79.6,79.6,0,0,0-18.755,2.9c-25.614,7.238-45.657,22.833-64.032,40.652L51.6,144.37a27.866,27.866,0,0,0,2.786,3.9c9.466,14.478,18.932,28.4,28.4,42.877l4.457,5.566a29.717,29.717,0,0,1,3.9-5.011c12.25-16.148,27.84-27.286,46.773-32.854,10.58-2.784,21.158-3.343,31.738.555,11.137,3.9,15.6,12.81,13.925,23.947-1.67,8.909-6.684,13.919-14.479,17.26-10.58,4.455-25.618,4.456-32.3,4.456h-7.791a36.618,36.618,0,0,1,1.67,5.566c3.341,12.807,6.125,26.172,8.352,39.536.557,2.227,1.11,6.127,1.11,6.127a58.27,58.27,0,0,1,6.127-.555c9.466-.557,18.932-1.118,28.4,1.109,12.807,2.784,25.059,7.8,29.513,21.716,5.012,15.591,3.339,31.181-7.8,43.432-16.148,17.819-37.865,22.832-61.252,19.491-22.83-2.784-42.316-13.918-60.691-27.282-19.489-13.921-33.41-32.854-46.218-52.9-1.114-1.671-5.011-8.913-5.011-8.913l1.116,6.127c.557,2.227,1.114,3.9,1.67,6.127a241.191,241.191,0,0,0,43.432,77.4,149.688,149.688,0,0,0,61.807,44.542c34.524,13.364,68.488,4.457,90.2-23.941,15.591-20.6,18.381-43.992,15.04-69.05-1.113-8.352-5.017-24.5-5.017-24.5s31.185,18.373,62.367-2.786c13.364-8.909,21.161-24.5,27.843-38.981,5.568-12.807,13.92-23.382,23.386-32.848,8.352-7.8,17.82-13.368,29.513-10.584,15.591,3.341,24.5,15.036,28.952,29.513,3.9,12.807,3.345,26.727.561,40.091-5.568,25.057-19.492,44.547-40.652,59.582-16.7,12.25-34.526,14.475-54.015,7.237-15.591-5.568-27.839-15.589-38.975-27.282l-4.456-4.456s-.553,5.015-1.11,7.243a65.116,65.116,0,0,0,48.443,67.373c32.853,8.352,60.695,1.669,82.968-24.5,14.478-17.262,22.832-37.306,29.514-58.466a92.587,92.587,0,0,0,4.45-49c-6.682-42.319-31.183-70.722-69.6-86.87-25.614-10.58-55.125-5.01-73.5,19.49-7.8,10.023-12.809,21.163-16.15,33.97-2.784,11.137-7.234,21.712-14.473,31.178-11.137,15.591-25.62,20.049-43.438,13.924-8.909-2.784-16.7-7.243-24.5-12.254-5.012-3.34-5.016-3.338-.561-7.236,16.148-12.807,25.616-28.956,24.5-49.559a72.706,72.706,0,0,0-12.248-37.866C184.9,111.134,163.266,97.283,137.177,98.039Z" transform="translate(0 0)" fill="rgba(230,132,181,0.4)"/>
  </g>
</svg>
