<svg xmlns="http://www.w3.org/2000/svg" width="407" height="407" viewBox="0 0 407 407">
  <g id="icon_sun" transform="translate(-0.81 -0.81)">
    <g id="g15827" transform="translate(0.81 0.81)">
      <path id="path13170" d="M204.312.81C91.923.81.81,91.923.81,204.312s91.113,203.5,203.5,203.5,203.5-91.108,203.5-203.5S316.7.81,204.312.81Zm0,40.7c89.771,0,162.8,73.038,162.8,162.8s-73.029,162.8-162.8,162.8-162.8-73.033-162.8-162.8S114.542,41.509,204.312,41.509Zm-2.393,121.758a41.111,41.111,0,1,0,30.6,11.136A41.111,41.111,0,0,0,201.919,163.267Z" transform="translate(-0.81 -0.81)" fill="rgba(128,181,227,0.4)"/>
    </g>
  </g>
</svg>
