<svg xmlns="http://www.w3.org/2000/svg" width="25" height="18.561" viewBox="0 0 25 18.561">
  <path id="path5770" d="M24.3,3.19A3.3,3.3,0,0,0,21.692.7a51.607,51.607,0,0,0-9.28-.7A52.368,52.368,0,0,0,3.075.7,3.219,3.219,0,0,0,.464,3.19,38.056,38.056,0,0,0,0,9.28a31.568,31.568,0,0,0,.521,6.09,3.3,3.3,0,0,0,2.61,2.495,53.356,53.356,0,0,0,9.339.7,53.356,53.356,0,0,0,9.339-.7,3.222,3.222,0,0,0,2.61-2.495A44.5,44.5,0,0,0,25,9.28,40.592,40.592,0,0,0,24.3,3.19ZM9.28,13.341V5.22l7.076,4.06Z" fill="#104f7e"/>
</svg>
