<?xml version="1.0" encoding="UTF-8"?><svg id="Layer_2" xmlns="http://www.w3.org/2000/svg" viewBox="0 0 352.9 185.74"><g id="Layer_1-2"><g><path d="m0,0h352.9v185.74H0V0Z" fill="#b22234"/><path d="m0,21.43h352.9m0,28.57H0m0,28.57h352.9m0,28.57H0m0,28.57h352.9m0,28.57H0" fill="none" stroke="#fff" stroke-miterlimit="10" stroke-width="14.29"/><g><rect x="0" width="141.16" height="99.98" fill="#3c3b6e"/><g><g id="d"><g id="c"><g id="e"><g id="b"><path id="a" d="m11.76,4.29l3.36,10.34-8.79-6.39h10.87l-8.79,6.39,3.36-10.34Z" fill="#fff"/><path id="a-2" d="m11.76,24.29l3.36,10.34-8.79-6.39h10.87l-8.79,6.39,3.36-10.34Z" fill="#fff"/><path id="a-3" d="m11.76,44.29l3.36,10.34-8.79-6.39h10.87l-8.79,6.39,3.36-10.34Z" fill="#fff"/><path id="a-4" d="m11.76,64.29l3.36,10.34-8.79-6.39h10.87l-8.79,6.39,3.36-10.34Z" fill="#fff"/></g><path id="a-5" d="m11.76,84.3l3.36,10.34-8.79-6.39h10.87l-8.79,6.39,3.36-10.34Z" fill="#fff"/></g><g id="b-2"><path id="a-6" d="m23.53,14.29l3.36,10.34-8.79-6.39h10.87l-8.79,6.39,3.36-10.34Z" fill="#fff"/><path id="a-7" d="m23.53,34.29l3.36,10.34-8.79-6.39h10.87l-8.79,6.39,3.36-10.34Z" fill="#fff"/><path id="a-8" d="m23.53,54.29l3.36,10.34-8.79-6.39h10.87l-8.79,6.39,3.36-10.34Z" fill="#fff"/><path id="a-9" d="m23.53,74.29l3.36,10.34-8.79-6.39h10.87l-8.79,6.39,3.36-10.34Z" fill="#fff"/></g></g><g id="c-2"><g id="e-2"><g id="b-3"><path id="a-10" d="m35.29,4.29l3.36,10.34-8.79-6.39h10.87l-8.79,6.39,3.36-10.34Z" fill="#fff"/><path id="a-11" d="m35.29,24.29l3.36,10.34-8.79-6.39h10.87l-8.79,6.39,3.36-10.34Z" fill="#fff"/><path id="a-12" d="m35.29,44.29l3.36,10.34-8.79-6.39h10.87l-8.79,6.39,3.36-10.34Z" fill="#fff"/><path id="a-13" d="m35.29,64.29l3.36,10.34-8.79-6.39h10.87l-8.79,6.39,3.36-10.34Z" fill="#fff"/></g><path id="a-14" d="m35.29,84.3l3.36,10.34-8.79-6.39h10.87l-8.79,6.39,3.36-10.34Z" fill="#fff"/></g><g id="b-4"><path id="a-15" d="m47.05,14.29l3.36,10.34-8.79-6.39h10.87l-8.79,6.39,3.36-10.34Z" fill="#fff"/><path id="a-16" d="m47.05,34.29l3.36,10.34-8.79-6.39h10.87l-8.79,6.39,3.36-10.34Z" fill="#fff"/><path id="a-17" d="m47.05,54.29l3.36,10.34-8.79-6.39h10.87l-8.79,6.39,3.36-10.34Z" fill="#fff"/><path id="a-18" d="m47.05,74.29l3.36,10.34-8.79-6.39h10.87l-8.79,6.39,3.36-10.34Z" fill="#fff"/></g></g></g><g id="d-2"><g id="c-3"><g id="e-3"><g id="b-5"><path id="a-19" d="m58.82,4.29l3.36,10.34-8.79-6.39h10.87l-8.79,6.39,3.36-10.34Z" fill="#fff"/><path id="a-20" d="m58.82,24.29l3.36,10.34-8.79-6.39h10.87l-8.79,6.39,3.36-10.34Z" fill="#fff"/><path id="a-21" d="m58.82,44.29l3.36,10.34-8.79-6.39h10.87l-8.79,6.39,3.36-10.34Z" fill="#fff"/><path id="a-22" d="m58.82,64.29l3.36,10.34-8.79-6.39h10.87l-8.79,6.39,3.36-10.34Z" fill="#fff"/></g><path id="a-23" d="m58.82,84.3l3.36,10.34-8.79-6.39h10.87l-8.79,6.39,3.36-10.34Z" fill="#fff"/></g><g id="b-6"><path id="a-24" d="m70.58,14.29l3.36,10.34-8.79-6.39h10.87l-8.79,6.39,3.36-10.34Z" fill="#fff"/><path id="a-25" d="m70.58,34.29l3.36,10.34-8.79-6.39h10.87l-8.79,6.39,3.36-10.34Z" fill="#fff"/><path id="a-26" d="m70.58,54.29l3.36,10.34-8.79-6.39h10.87l-8.79,6.39,3.36-10.34Z" fill="#fff"/><path id="a-27" d="m70.58,74.29l3.36,10.34-8.79-6.39h10.87l-8.79,6.39,3.36-10.34Z" fill="#fff"/></g></g><g id="c-4"><g id="e-4"><g id="b-7"><path id="a-28" d="m82.34,4.29l3.36,10.34-8.79-6.39h10.87l-8.79,6.39,3.36-10.34Z" fill="#fff"/><path id="a-29" d="m82.34,24.29l3.36,10.34-8.79-6.39h10.87l-8.79,6.39,3.36-10.34Z" fill="#fff"/><path id="a-30" d="m82.34,44.29l3.36,10.34-8.79-6.39h10.87l-8.79,6.39,3.36-10.34Z" fill="#fff"/><path id="a-31" d="m82.34,64.29l3.36,10.34-8.79-6.39h10.87l-8.79,6.39,3.36-10.34Z" fill="#fff"/></g><path id="a-32" d="m82.34,84.3l3.36,10.34-8.79-6.39h10.87l-8.79,6.39,3.36-10.34Z" fill="#fff"/></g><g id="b-8"><path id="a-33" d="m94.11,14.29l3.36,10.34-8.79-6.39h10.87l-8.79,6.39,3.36-10.34Z" fill="#fff"/><path id="a-34" d="m94.11,34.29l3.36,10.34-8.79-6.39h10.87l-8.79,6.39,3.36-10.34Z" fill="#fff"/><path id="a-35" d="m94.11,54.29l3.36,10.34-8.79-6.39h10.87l-8.79,6.39,3.36-10.34Z" fill="#fff"/><path id="a-36" d="m94.11,74.29l3.36,10.34-8.79-6.39h10.87l-8.79,6.39,3.36-10.34Z" fill="#fff"/></g></g></g><g id="c-5"><g id="e-5"><g id="b-9"><path id="a-37" d="m105.87,4.29l3.36,10.34-8.79-6.39h10.87l-8.79,6.39,3.36-10.34Z" fill="#fff"/><path id="a-38" d="m105.87,24.29l3.36,10.34-8.79-6.39h10.87l-8.79,6.39,3.36-10.34Z" fill="#fff"/><path id="a-39" d="m105.87,44.29l3.36,10.34-8.79-6.39h10.87l-8.79,6.39,3.36-10.34Z" fill="#fff"/><path id="a-40" d="m105.87,64.29l3.36,10.34-8.79-6.39h10.87l-8.79,6.39,3.36-10.34Z" fill="#fff"/></g><path id="a-41" d="m105.87,84.3l3.36,10.34-8.79-6.39h10.87l-8.79,6.39,3.36-10.34Z" fill="#fff"/></g><g id="b-10"><path id="a-42" d="m117.63,14.29l3.36,10.34-8.79-6.39h10.87l-8.79,6.39,3.36-10.34Z" fill="#fff"/><path id="a-43" d="m117.63,34.29l3.36,10.34-8.79-6.39h10.87l-8.79,6.39,3.36-10.34Z" fill="#fff"/><path id="a-44" d="m117.63,54.29l3.36,10.34-8.79-6.39h10.87l-8.79,6.39,3.36-10.34Z" fill="#fff"/><path id="a-45" d="m117.63,74.29l3.36,10.34-8.79-6.39h10.87l-8.79,6.39,3.36-10.34Z" fill="#fff"/></g></g><g id="e-6"><g id="b-11"><path id="a-46" d="m129.4,4.29l3.36,10.34-8.79-6.39h10.87l-8.79,6.39,3.36-10.34Z" fill="#fff"/><path id="a-47" d="m129.4,24.29l3.36,10.34-8.79-6.39h10.87l-8.79,6.39,3.36-10.34Z" fill="#fff"/><path id="a-48" d="m129.4,44.29l3.36,10.34-8.79-6.39h10.87l-8.79,6.39,3.36-10.34Z" fill="#fff"/><path id="a-49" d="m129.4,64.29l3.36,10.34-8.79-6.39h10.87l-8.79,6.39,3.36-10.34Z" fill="#fff"/></g><path id="a-50" d="m129.4,84.3l3.36,10.34-8.79-6.39h10.87l-8.79,6.39,3.36-10.34Z" fill="#fff"/></g></g></g></g></g></svg>