<svg xmlns="http://www.w3.org/2000/svg" width="146.3" height="100.076" viewBox="0 0 146.3 100.076">
  <g id="icon_lotus_flower" transform="translate(1.158 0.66)">
    <path id="Path_1313" data-name="Path 1313" d="M166.509.661,166.495.65l-.011.011c-.86,1-42.434,58.166,0,94.252h0v.007s0,0,.007.007l.007-.007h0l0-.007c42.431-36.086,1.055-93.45,0-94.252Z" transform="translate(-94.576 -0.65)" fill="none" stroke="#c9924d" stroke-width="1"/>
    <g id="Group_757" data-name="Group 757" transform="translate(0 18.373)">
      <path id="Path_1314" data-name="Path 1314" d="M113.45,127.4q-1.171-.2-2.334-.416c-10.135-1.911-20.3-5.366-28.534-11.736-10.193-7.881-16.093-19.8-15.223-32.675.658-9.731,2.5-18.03-.874-27.475a21.809,21.809,0,0,0-1.76-3.425c-.022-.033-.1-.177-.1-.177C128.148,62.029,113.45,127.4,113.45,127.4Z" transform="translate(-41.687 -51.5)" fill="none" stroke="#c9924d" stroke-width="1"/>
      <path id="Path_1315" data-name="Path 1315" d="M73.087,162.7c-.777.145-1.554.285-2.334.412-10.175,1.687-20.9,1.933-30.828-1.218-12.281-3.9-21.918-13.066-25.524-25.455-2.724-9.366-3.848-17.792-10.262-25.5a21.779,21.779,0,0,0-2.829-2.612c-.029-.025-.159-.13-.159-.13C64.429,96.249,73.087,162.7,73.087,162.7Z" transform="translate(-1.15 -86.79)" fill="none" stroke="#c9924d" stroke-width="1"/>
    </g>
    <path id="Path_1316" data-name="Path 1316" d="M292.444,275.74l-.007.007-.007-.007v.007a.013.013,0,0,0,0,.011.013.013,0,0,1,0-.011v-.007Z" transform="translate(-187.183 -176.343)" fill="#104f7e"/>
    <g id="Group_758" data-name="Group 758" transform="translate(70.755 18.373)">
      <path id="Path_1317" data-name="Path 1317" d="M198.44,127.4q1.171-.2,2.334-.416c10.135-1.911,20.3-5.366,28.534-11.736,10.193-7.881,16.093-19.8,15.223-32.675-.658-9.731-2.5-18.03.874-27.475a21.81,21.81,0,0,1,1.76-3.425c.022-.033.1-.177.1-.177C183.741,62.029,198.44,127.4,198.44,127.4Z" transform="translate(-196.969 -51.5)" fill="none" stroke="#c9924d" stroke-width="1"/>
      <path id="Path_1318" data-name="Path 1318" d="M200.55,162.7c.777.145,1.554.285,2.334.412,10.175,1.687,20.9,1.933,30.828-1.218,12.281-3.9,21.918-13.066,25.524-25.455,2.724-9.366,3.848-17.792,10.262-25.5a21.78,21.78,0,0,1,2.829-2.612c.029-.025.159-.13.159-.13C209.207,96.249,200.55,162.7,200.55,162.7Z" transform="translate(-199.256 -86.79)" fill="none" stroke="#c9924d" stroke-width="1"/>
    </g>
  </g>
</svg>
