<?xml version="1.0" encoding="UTF-8" standalone="no"?>
<svg
   width="200"
   height="200"
   style="overflow:visible"
   viewBox="0 0 200 200"
   version="1.1"
   id="svg23"
   sodipodi:docname="anahata_chakra_with_background.svg"
   inkscape:version="1.2.1 (9c6d41e410, 2022-07-14)"
   xmlns:inkscape="http://www.inkscape.org/namespaces/inkscape"
   xmlns:sodipodi="http://sodipodi.sourceforge.net/DTD/sodipodi-0.dtd"
   xmlns:xlink="http://www.w3.org/1999/xlink"
   xmlns="http://www.w3.org/2000/svg"
   xmlns:svg="http://www.w3.org/2000/svg">
  <sodipodi:namedview
     id="namedview25"
     pagecolor="#ffffff"
     bordercolor="#000000"
     borderopacity="0.25"
     inkscape:showpageshadow="2"
     inkscape:pageopacity="0.0"
     inkscape:pagecheckerboard="0"
     inkscape:deskcolor="#d1d1d1"
     showgrid="false"
     inkscape:zoom="3.0652721"
     inkscape:cx="92.324593"
     inkscape:cy="128.53671"
     inkscape:window-width="1920"
     inkscape:window-height="1009"
     inkscape:window-x="-8"
     inkscape:window-y="-8"
     inkscape:window-maximized="1"
     inkscape:current-layer="svg23">
    <inkscape:grid
       type="xygrid"
       id="grid432"
       originx="-129.868"
       originy="-44.866733" />
  </sodipodi:namedview>
  <defs
     data-uid="o_f2gb2gem6_87"
     id="defs9">
    <linearGradient
       x1="255.84641"
       y1="747.82721"
       x2="422.55359"
       y2="421.78558"
       id="linearGradient3709"
       gradientUnits="userSpaceOnUse"
       data-uid="o_f2gb2gem6_118">
      <stop
         offset="0"
         stop-color="rgb(230, 52, 148)"
         stop-opacity="1.00"
         data-uid="o_f2gb2gem6_119"
         id="stop3703"
         style="stop-color:#f0bad8;stop-opacity:1;" />
      <stop
         offset="0.54000002"
         stop-color="rgb(221, 76, 154)"
         stop-opacity="1.00"
         data-uid="o_f2gb2gem6_120"
         id="stop3705"
         style="stop-color:#e496c0;stop-opacity:1;" />
      <stop
         offset="1"
         stop-color="rgb(233, 84, 127)"
         stop-opacity="1.00"
         data-uid="o_f2gb2gem6_121"
         id="stop3707"
         style="stop-color:#e4819e;stop-opacity:1;" />
    </linearGradient>
    <linearGradient
       x1="255.84641"
       y1="747.82721"
       x2="422.55359"
       y2="421.78558"
       id="g_-2050387061_1"
       gradientUnits="userSpaceOnUse"
       data-uid="o_f2gb2gem6_118">
      <stop
         offset="0%"
         stop-color="rgb(230, 52, 148)"
         stop-opacity="1.00"
         data-uid="o_f2gb2gem6_119"
         id="stop2" />
      <stop
         offset="54%"
         stop-color="rgb(221, 76, 154)"
         stop-opacity="1.00"
         data-uid="o_f2gb2gem6_120"
         id="stop4" />
      <stop
         offset="100%"
         stop-color="rgb(233, 84, 127)"
         stop-opacity="1.00"
         data-uid="o_f2gb2gem6_121"
         id="stop6" />
    </linearGradient>
    <linearGradient
       inkscape:collect="always"
       id="linearGradient7328">
      <stop
         style="stop-color:#e89090;stop-opacity:1;"
         offset="0"
         id="stop7324" />
      <stop
         style="stop-color:#de7aae;stop-opacity:1;"
         offset="1"
         id="stop7326" />
    </linearGradient>
    <linearGradient
       inkscape:collect="always"
       xlink:href="#linearGradient7328"
       id="linearGradient432"
       x1="171.77441"
       y1="628.81836"
       x2="1119.7744"
       y2="628.81836"
       gradientUnits="userSpaceOnUse" />
    <linearGradient
       inkscape:collect="always"
       xlink:href="#linearGradient3709"
       id="linearGradient1272"
       gradientUnits="userSpaceOnUse"
       x1="255.84641"
       y1="747.82721"
       x2="422.55359"
       y2="421.78558"
       gradientTransform="translate(608.03188,191.36374)" />
    <linearGradient
       inkscape:collect="always"
       xlink:href="#linearGradient3709"
       id="linearGradient13143"
       gradientUnits="userSpaceOnUse"
       gradientTransform="translate(608.03188,191.36374)"
       x1="255.84641"
       y1="747.82721"
       x2="422.55359"
       y2="421.78558" />
  </defs>
  <g
     transform="matrix(0.55396354,0,0,0.55396354,-209.05737,-54.299375)"
     data-uid="o_f2gb2gem6_86"
     fill="url(#g_-2050387061_1)"
     id="g21"
     style="fill:url(#linearGradient1272)">
    <g
       id="g13114"
       style="fill:url(#linearGradient13143)">
      <path
         opacity="0.1"
         fill="url(#g_-2050387061_1)"
         data-type="circle"
         data-cx="256.001"
         data-cy="256"
         data-r="182.701"
         d="m 557.90201,278.53706 m -180.51729,0 a 180.5173,180.47482 0 1 0 361.03459,0 180.5173,180.47482 0 1 0 -361.03459,0"
         data-uid="o_f2gb2gem6_49"
         id="path11"
         style="fill:#85e5c5;fill-opacity:0.795918;stroke-width:1" />
      <path
         opacity="0.2"
         fill="url(#g_-2050387061_1)"
         data-type="circle"
         data-cx="256.001"
         data-cy="255.999"
         data-r="162.926"
         d="m 557.90202,278.53706 m -162.46557,0 a 162.46557,162.40858 0 1 0 324.93112,0 162.46557,162.40858 0 1 0 -324.93112,0"
         data-uid="o_f2gb2gem6_50"
         id="path13"
         style="fill:#85e5c5;fill-opacity:0.803571;stroke-width:0.999998" />
      <path
         opacity="0.2"
         fill="url(#g_-2050387061_1)"
         data-type="circle"
         data-cx="256.001"
         data-cy="255.999"
         data-r="162.926"
         d="m 557.902,278.53706 m -144.41383,0 a 144.41384,144.37584 0 1 0 288.82767,0 144.41384,144.37584 0 1 0 -288.82767,0"
         data-uid="o_f2gb2gem6_50"
         id="path13-5"
         style="overflow:visible;fill:#85e5c5;fill-opacity:0.803571;stroke-width:1" />
      <path
         opacity="0.3"
         fill="url(#g_-2050387061_1)"
         data-type="circle"
         data-cx="256.001"
         data-cy="256"
         data-r="128.997"
         d="m 557.90201,278.68063 m -126.36211,0 a 126.36211,126.36211 0 1 0 252.72422,0 126.36211,126.36211 0 1 0 -252.72422,0"
         data-uid="o_f2gb2gem6_51"
         id="path15"
         style="fill:#85e5c5;fill-opacity:0.803571;stroke-width:0.999999" />
    </g>
  </g>
  <g
     id="g300"
     transform="matrix(0.26434118,0,0,0.26436468,17.537408,17.52899)"
     style="fill:#58dbaf;fill-opacity:1;stroke-width:3.78282">
    <path
       style="fill:#58dbaf;fill-opacity:1;stroke-width:3.78281"
       d="m 309.68418,538.46107 c -0.6137,-0.30787 -1.56286,-1.43755 -2.10926,-2.5104 -2.39531,-4.70333 -5.61591,-7.37976 -16.21492,-13.47523 -11.74321,-6.75346 -16.35648,-10.02413 -20.21678,-14.33304 -3.22169,-3.59606 -6.12418,-8.30362 -7.04398,-11.42462 l -0.80266,-2.72352 -2.40829,2.04331 c -7.51268,6.37411 -15.57942,8.41949 -33.36829,8.46067 -14.42753,0.0336 -19.19677,0.68755 -22.78945,3.12557 -2.38205,1.61654 -4.11475,1.91654 -5.85903,1.01453 -2.28321,-1.18066 -2.61188,-1.91578 -2.75837,-6.1694 -0.17342,-5.03572 -1.56862,-8.52312 -7.59743,-18.99038 -8.58075,-14.89794 -10.60422,-20.43864 -10.64875,-29.15856 -0.0148,-2.904 0.16232,-6.10733 0.39367,-7.11851 l 0.42065,-1.8385 -2.34065,0.3985 c -3.82252,0.65081 -11.18312,0.40162 -14.56329,-0.49303 -5.19846,-1.3759 -10.64083,-3.83399 -18.83512,-8.50702 -14.12373,-8.05448 -15.43503,-8.60345 -21.59003,-9.0387 -4.82992,-0.34155 -5.98878,-1.06378 -6.47056,-4.03262 -0.23048,-1.42031 -0.033,-2.15734 0.99409,-3.70932 2.82525,-4.26924 3.14631,-6.41156 3.62983,-24.2208 0.34693,-12.77816 0.54763,-15.42241 1.42091,-18.72 1.3335,-5.03544 4.25681,-10.92087 6.93056,-13.95315 l 2.14547,-2.43315 -2.69773,-0.83071 c -2.88901,-0.8896 -6.81989,-3.10611 -10.06604,-5.67596 -4.14126,-3.27846 -9.65887,-10.78026 -15.46545,-21.02703 -5.712934,-10.0815 -9.21331,-14.41145 -13.341502,-16.50336 -4.475612,-2.26796 -4.634362,-7.11225 -0.300466,-9.16882 4.287797,-2.03469 7.882387,-6.52655 14.367948,-17.95442 5.16662,-9.10384 10.37823,-16.10347 14.56232,-19.55839 3.41499,-2.81985 8.70862,-5.71333 11.36387,-6.21146 l 1.63822,-0.30733 -2.04559,-2.3384 c -3.00328,-3.43321 -5.49918,-8.40932 -6.88981,-13.73633 -1.13117,-4.33316 -1.25872,-5.88603 -1.62811,-19.82149 -0.44066,-16.62449 -0.80489,-19.08912 -3.42431,-23.17113 -1.20582,-1.87911 -1.42402,-2.62279 -1.19097,-4.05895 0.15694,-0.96707 0.82007,-2.29304 1.47362,-2.9466 0.99406,-0.99405 1.60454,-1.17535 3.73489,-1.1091 5.25946,0.16354 9.88039,-1.60196 20.94819,-8.00356 11.41818,-6.60428 16.79065,-8.94463 23.30354,-10.15149 3.58895,-0.66504 11.15394,-0.42625 13.35571,0.42158 1.27359,0.49042 1.29015,0.47367 0.79045,-0.79992 -0.28072,-0.71546 -0.61376,-3.56883 -0.7401,-6.34083 -0.4031,-8.84394 1.9053,-15.45709 10.76454,-30.83857 5.94962,-10.32975 7.42438,-13.97597 7.60984,-18.81462 0.1726,-4.50304 1.02937,-6.02951 3.77435,-6.72464 1.47355,-0.37315 2.08648,-0.29098 3.31401,0.44427 5.61585,3.36372 6.95401,3.58512 24.78608,4.10084 8.052,0.23286 15.288,0.56406 16.08,0.73599 6.89414,1.49659 12.53207,4.02334 16.64612,7.46029 1.23536,1.03204 2.33517,1.87644 2.44402,1.87644 0.10885,0 0.47216,-0.918 0.80736,-2.04 2.05189,-6.86818 7.57059,-13.3939 16.67369,-19.71623 1.37016,-0.95161 5.55625,-3.46684 9.30245,-5.58941 10.8338,-6.138368 15.48828,-9.895928 17.49418,-14.123048 1.96502,-4.14097 6.88868,-4.183037 8.97994,-0.07672 2.38701,4.687046 5.85931,7.463433 18.35795,14.678688 4.21614,2.4339 9.18414,5.54895 11.04,6.92231 7.04804,5.21565 11.72279,11.02426 13.91012,17.28401 l 1.03883,2.97295 2.37267,-2.10232 c 2.96571,-2.62779 8.87129,-5.55398 13.89267,-6.88376 3.29759,-0.87328 5.94184,-1.07398 18.72,-1.42091 17.80924,-0.48352 19.95156,-0.80458 24.2208,-3.62983 1.55823,-1.03119 2.28889,-1.22567 3.73801,-0.99493 2.82142,0.44924 3.96119,2.12253 3.96119,5.81541 0,5.54968 1.15289,8.37503 9.05383,22.18786 4.6443,8.11943 7.15287,13.67269 8.53463,18.89328 0.89465,3.38017 1.14384,10.74077 0.49303,14.56329 l -0.3985,2.34065 1.8385,-0.42065 c 1.01118,-0.23135 4.21451,-0.40851 7.11851,-0.39367 8.45011,0.0431 14.75413,2.28663 27.8557,9.9133 11.97729,6.97223 16.0786,8.59238 21.38112,8.44625 3.04094,-0.0838 3.90225,0.36451 5.08152,2.645 0.90201,1.74428 0.60201,3.47698 -1.01453,5.85903 -2.41714,3.56186 -3.09235,8.38364 -3.12408,22.30945 -0.0125,5.412 -0.25968,11.784 -0.54965,14.16 -0.98083,8.03731 -3.64147,14.63465 -7.98518,19.8 -1.40559,1.67147 -1.87028,2.52 -1.38,2.52 1.46246,0 6.09638,2.02061 8.84846,3.85837 6.29654,4.2047 11.88269,11.18271 18.81384,23.50163 5.55221,9.86812 9.24504,14.4379 13.34683,16.51644 2.65935,1.3476 3.72883,3.183 3.21576,5.51888 -0.33686,1.53384 -1.71936,2.85387 -5.07393,4.84468 -2.87069,1.70364 -5.89541,5.64777 -10.77615,14.0515 -10.09257,17.37771 -15.47798,23.38521 -24.53971,27.37428 -1.61702,0.71182 -3.30941,1.29422 -3.7608,1.29422 -0.6083,0 -0.30302,0.58823 1.17922,2.27213 2.38819,2.71315 5.12174,7.4686 6.08721,10.58981 1.86701,6.03553 2.1504,8.6327 2.55082,23.37806 0.43459,16.00544 0.84792,18.94315 3.15888,22.45124 1.62115,2.4609 1.90272,4.21741 0.96638,6.02805 -1.05053,2.03152 -2.08905,2.48071 -5.73537,2.48071 -4.61952,0 -9.1824,1.84191 -20.46634,8.2617 -14.22235,8.09153 -19.77046,10.12088 -27.84,10.18313 -2.508,0.0193 -5.60777,-0.14333 -6.88838,-0.3615 l -2.32839,-0.39666 0.40839,2.07666 c 0.22461,1.14217 0.38382,4.45267 0.3538,7.35667 -0.0864,8.36243 -1.98247,13.46408 -10.5496,28.38581 -5.88323,10.24704 -7.85975,15.21153 -7.8694,19.76573 -0.008,3.55968 -0.46666,4.60536 -2.47896,5.646 -1.66945,0.86328 -4.27425,0.60691 -5.20296,-0.51212 -0.93924,-1.13174 -5.43295,-2.5739 -9.67884,-3.10632 -2.18926,-0.27451 -8.52214,-0.5004 -14.07307,-0.50193 -17.60769,-0.005 -26.20272,-2.21501 -33.46099,-8.604 l -2.23266,-1.96527 -0.3286,1.49612 c -0.99936,4.55006 -4.45029,9.89308 -9.46639,14.6567 -4.31856,4.10117 -6.85286,5.85096 -16.92395,11.68507 -9.69124,5.61399 -14.12065,8.89723 -15.90079,11.78621 -2.33315,3.78648 -3.63331,5.04278 -5.45921,5.27506 -0.924,0.11755 -2.18212,-0.0384 -2.79582,-0.34599 z m 4.02602,-14.81957 c 2.20437,-2.31172 6.48809,-5.18481 15.3298,-10.28169 9.07796,-5.23311 13.90661,-8.62479 16.84719,-11.83368 5.18188,-5.65474 6.93948,-12.46056 5.38984,-20.87079 -0.65432,-3.55113 -0.31651,-3.44356 -6.70419,-2.13483 -12.6555,2.5929 -28.58361,3.72181 -41.39915,2.93418 -8.78633,-0.54 -19.03638,-1.83265 -24.86845,-3.13616 -4.98738,-1.11473 -4.97204,-1.12021 -5.59898,2.00153 -1.31007,6.52335 -0.22808,13.41706 2.83066,18.0349 1.78606,2.69645 6.24919,6.9035 9.97325,9.40094 1.50141,1.0069 5.99297,3.6914 9.98125,5.96554 8.05501,4.59302 12.67779,7.69133 14.79838,9.91814 0.7754,0.81423 1.54498,1.48042 1.7102,1.48042 0.16522,0 0.9348,-0.66533 1.7102,-1.4785 z M 208.8,495.82344 c 1.188,-0.29275 8.964,-0.70608 17.28,-0.91853 16.15015,-0.41251 19.59287,-0.89169 24.53975,-3.41539 3.58358,-1.82822 7.25568,-5.79086 9.42028,-10.16568 2.12865,-4.30216 2.93894,-7.08384 2.06349,-7.08384 -0.29302,0 -3.60419,-1.11325 -7.35814,-2.4739 -20.50371,-7.43171 -39.18234,-18.527 -55.41238,-32.91551 l -3.46699,-3.07361 -1.57301,1.76263 c -4.70643,5.27383 -7.093,10.79246 -7.093,16.40167 0,5.98871 2.14509,11.6238 8.75022,22.98656 4.94399,8.50509 7.34157,13.33389 8.37437,16.86616 0.64477,2.20517 1.06511,2.93702 1.59541,2.77786 0.396,-0.1189 1.692,-0.45572 2.88,-0.74842 z m 211.05225,-2.96285 c 1.24539,-3.71534 3.1462,-7.3919 8.97267,-17.35504 7.23835,-12.37744 9.17169,-19.50976 7.26878,-26.81551 -0.84396,-3.24018 -4.08431,-8.81733 -6.48478,-11.16133 l -1.7281,-1.68745 -3.34041,3.04259 c -9.45534,8.61232 -22.81451,17.76304 -35.26041,24.15257 -7.79339,4.00099 -12.1943,5.89573 -20.5728,8.85725 -8.46036,2.99045 -8.11606,2.41375 -5.20358,8.71603 2.01905,4.36896 6.04804,8.79912 9.84089,10.82068 4.98917,2.6592 7.47914,3.01306 24.33549,3.4585 10.2689,0.27139 16.23503,0.62717 18,1.07342 1.452,0.36711 2.72074,0.60706 2.81942,0.53319 0.0987,-0.0739 0.70745,-1.70957 1.35283,-3.6349 z M 303.23865,469.8 c -2.55527,-4.48049 -10.65351,-18.52047 -17.23474,-29.88 -3.82377,-6.6 -10.47186,-18.102 -14.77355,-25.56 l -7.82124,-13.56 h -42.18456 c -23.20151,0 -42.18456,0.11859 -42.18456,0.26354 0,0.42521 8.13835,11.19618 11.22527,14.85646 4.5023,5.33854 15.42308,15.94051 21.17532,20.55715 15.56222,12.48993 34.02157,22.38198 53.04835,28.42771 8.6819,2.75866 24.08118,5.82816 31.67106,6.3129 2.244,0.14332 4.17,0.34195 4.28,0.44141 0.11,0.0995 1.04647,0.18083 2.08104,0.18083 h 1.88104 z m 23.91798,1.53142 c 39.34975,-3.81677 76.19418,-22.16232 102.54421,-51.05875 4.65709,-5.10714 12.18463,-14.56479 14.45017,-18.15528 l 0.83454,-1.32261 -42.31864,0.12261 -42.31865,0.12261 -4.55609,7.92 c -2.50586,4.356 -7.0524,12.24 -10.10344,17.52 -23.19867,40.14668 -26.00873,45.03055 -26.00873,45.20307 0,0.27075 2.05748,0.17398 7.47663,-0.35165 z M 319.2,453.0294 c 3.828,-6.63798 10.281,-17.81114 14.34,-24.82923 9.6462,-16.67849 15.42,-26.8455 15.42,-27.15288 0,-0.13601 -16.73122,-0.24729 -37.18048,-0.24729 h -37.18048 l 5.33184,9.24 c 2.93251,5.082 7.26642,12.588 9.63091,16.68 13.78427,23.85516 19.41389,33.63896 20.64545,35.88 0.76168,1.386 1.53064,2.51516 1.70881,2.50924 0.17817,-0.006 3.45595,-5.44184 7.28395,-12.07984 z M 175.23288,436.02647 c 3.78715,-1.12365 6.69717,-2.71685 10.03299,-5.49295 l 2.94361,-2.4497 -3.03123,-3.44191 c -15.04968,-17.08865 -25.09565,-33.95924 -32.83729,-55.14493 -1.41953,-3.88467 -2.58096,-7.31367 -2.58096,-7.62 0,-1.70878 -9.79964,2.76316 -13.1141,5.98445 -3.3841,3.28897 -5.51596,7.23 -6.63447,12.26476 -0.26806,1.20659 -0.67034,8.99781 -0.89395,17.31381 -0.28527,10.6088 -0.62062,15.97552 -1.12398,17.9874 -0.77421,3.09448 -0.69549,3.60824 0.55483,3.62067 1.55526,0.0155 8.52824,3.16559 13.77167,6.2215 12.9413,7.54227 18.0692,9.98507 23.52,11.20433 2.22555,0.49782 6.96846,0.27189 9.39288,-0.44743 z M 463.2,434.92448 c 2.244,-0.82441 6.78,-3.03781 10.08,-4.91866 13.12656,-7.48155 15.25421,-8.59644 18.72,-9.80938 1.98,-0.69295 3.84542,-1.32841 4.14538,-1.41214 0.39542,-0.11039 0.35371,-0.92084 -0.15173,-2.94827 -0.48015,-1.92604 -0.82426,-7.57529 -1.10583,-18.15603 -0.44755,-16.81652 -0.80683,-19.36247 -3.42585,-24.27618 -2.13144,-3.99905 -5.73029,-7.36453 -10.26197,-9.59663 -2.112,-1.04028 -4.488,-2.00968 -5.28,-2.15422 l -1.44,-0.26281 -2.59405,7.34492 c -3.39313,9.60746 -6.74302,16.99939 -11.79621,26.0297 -5.55866,9.93362 -13.85526,21.57278 -21.53011,30.20424 l -2.80038,3.14942 1.76851,1.58078 c 2.73488,2.44459 8.14276,5.60976 10.92117,6.39203 3.95771,1.11431 9.79992,0.65221 14.75107,-1.16677 z M 257.28,390.71667 c 0,-0.45201 -7.57009,-13.79842 -17.15026,-30.23667 -2.3848,-4.092 -7.18972,-12.408 -10.6776,-18.48 -11.12969,-19.37556 -11.20608,-19.49748 -11.80262,-18.83859 -0.29808,0.32922 -3.63709,5.99859 -7.42002,12.59859 -3.78294,6.6 -10.26416,17.832 -14.40272,24.96 -9.66416,16.64493 -17.26678,29.96222 -17.26678,30.24573 0,0.12239 17.712,0.22394 39.36,0.22565 25.80267,0.002 39.36,-0.16147 39.36,-0.47471 z m 98.64132,-1.32679 c 0.56465,-0.98444 4.33686,-7.51388 8.38269,-14.50988 4.04583,-6.996 9.40747,-16.284 11.91476,-20.64 2.50728,-4.356 8.94802,-15.52014 14.31275,-24.80919 l 9.75406,-16.8892 -3.15427,-5.4308 c -1.73484,-2.98695 -4.82378,-8.34681 -6.8643,-11.91081 -3.65984,-6.39233 -4.66075,-8.1237 -13.45825,-23.28 -2.45182,-4.224 -4.94592,-8.544 -5.54243,-9.6 -0.59651,-1.056 -2.96441,-5.16 -5.26201,-9.12 -2.29759,-3.96 -5.69456,-9.846 -7.54882,-13.08 l -3.37138,-5.88 h -43.10594 -43.10593 l -3.94654,6.84 c -2.1706,3.762 -6.14672,10.62 -8.83582,15.24 -2.6891,4.62 -5.43525,9.372 -6.10255,10.56 -0.66731,1.188 -3.14958,5.508 -5.51616,9.6 -2.36659,4.092 -7.2829,12.624 -10.92513,18.96 -3.64224,6.336 -7.3726,12.77 -8.2897,14.29776 l -1.66744,2.77777 8.38932,14.50223 c 4.61413,7.97624 13.62088,23.57424 20.01501,34.66224 6.39413,11.088 12.84543,22.26389 14.33622,24.83532 l 2.71054,4.67531 42.92734,-0.005 42.92734,-0.005 1.02664,-1.78988 z m -17.63375,-22.6295 -1.56757,-1.39962 -0.13753,-9.28038 -0.13753,-9.28038 -4.66247,4.5744 c -2.56829,2.51978 -6.34393,5.62093 -8.40606,6.90439 -21.56048,13.41908 -47.62514,10.22062 -56.24813,-6.90235 C 264.87686,346.90572 264,343.55531 264,339.42355 c 0,-9.2869 3.88999,-17.23841 15.6,-31.88789 9.25007,-11.57204 12.66738,-16.31714 14.58767,-20.25566 1.02974,-2.112 1.98564,-4.272 2.12421,-4.8 0.13857,-0.528 0.39164,-1.446 0.56238,-2.04 l 0.31043,-1.08 h -16.13618 c -17.73771,0 -18.28906,-0.0808 -19.43582,-2.84937 -0.93521,-2.2578 -0.28019,-4.58701 1.62026,-5.76155 1.5867,-0.98064 1.99042,-0.98908 47.28754,-0.98908 39.81117,0 45.86749,0.0932 47.08912,0.72497 1.69122,0.87456 2.39039,2.06648 2.39039,4.07503 0,3.7271 -1.97953,4.8 -8.85616,4.8 H 346.08 v 42.768 42.768 l -1.632,1.632 c -2.10273,2.10273 -3.98608,2.17377 -6.16043,0.23238 z M 306.24,355.7871 c 12.6166,-3.79804 22.65812,-12.33173 28.22248,-23.98461 L 336.24,328.08 l 0.13272,-24.36 0.13272,-24.36 h -15.13272 c -15.06583,0 -15.13272,0.004 -15.13272,1.01072 0,2.05003 -1.56637,7.01114 -3.3321,10.55358 -2.5734,5.16285 -5.76105,9.72761 -13.796,19.75603 -10.90688,13.6129 -14.59405,19.80031 -15.46526,25.95215 -0.93685,6.61539 2.0957,13.31704 7.63408,16.87058 1.70814,1.09598 6.45787,2.92418 8.63928,3.3253 2.92015,0.53697 13.27117,-0.12345 16.32,-1.04126 z m 31.53006,-91.43217 c -0.95096,-0.76102 -1.42801,-1.66233 -1.61407,-3.04953 -0.22699,-1.69236 -0.0709,-2.18361 1.10994,-3.49398 3.63186,-4.03015 10.06066,-1.16822 9.08295,4.04347 -0.61976,3.30357 -5.71814,4.78933 -8.57882,2.50004 z M 445.44,390.93531 c 0,-0.11356 -3.58802,-6.41847 -7.97338,-14.01089 -4.38535,-7.59243 -10.40676,-18.01642 -13.38091,-23.16442 -2.97415,-5.148 -8.15056,-14.112 -11.50313,-19.92 -3.35258,-5.808 -6.26737,-10.73741 -6.47732,-10.95424 -0.33209,-0.34297 -1.56916,1.57818 -5.66278,8.79424 -0.52418,0.924 -3.64556,6.324 -6.9364,12 -3.29084,5.676 -8.96739,15.504 -12.61454,21.84 -3.64715,6.336 -7.6501,13.248 -8.89544,15.36 -1.24534,2.112 -3.06906,5.29897 -4.0527,7.08217 l -1.78845,3.24217 39.64253,-0.0312 c 21.80338,-0.0172 39.64252,-0.12421 39.64252,-0.23778 z M 176.99272,373.92 c 0.94286,-1.716 2.18938,-3.876 2.77005,-4.8 0.58067,-0.924 2.36106,-3.948 3.95643,-6.72 1.59536,-2.772 8.64719,-14.99737 15.67073,-27.1675 7.02354,-12.17012 12.77007,-22.43606 12.77007,-22.8132 0,-0.37713 -0.29643,-1.11176 -0.65873,-1.6325 -0.3623,-0.52074 -3.56829,-6.0228 -7.12442,-12.2268 -7.31355,-12.75916 -18.3531,-31.87562 -27.0265,-46.8 -3.22194,-5.544 -6.24968,-10.836 -6.72832,-11.76 l -0.87025,-1.68 -2.05183,4.32 c -8.16404,17.18882 -12.86918,33.85796 -15.10693,53.52 -0.75253,6.61213 -0.76672,24.2232 -0.0251,31.2 2.02344,19.0366 6.91336,36.6059 14.81805,53.24068 l 2.60436,5.48068 2.64407,-4.52068 c 1.45425,-2.48637 3.41551,-5.92468 4.35837,-7.64068 z m 278.90021,8.02864 C 471.84628,348.8428 476.06219,312.90915 468.18252,277.2 c -2.63321,-11.93317 -7.16789,-24.7174 -13.17046,-37.1303 l -0.7787,-1.61031 -7.5806,13.13031 c -4.16932,7.22166 -9.62776,16.6943 -12.12985,21.0503 -2.50209,4.356 -7.80226,13.536 -11.77816,20.4 -3.9759,6.864 -8.14592,14.06465 -9.26671,16.00143 l -2.03781,3.52144 4.09044,7.03856 c 2.24974,3.87122 7.01702,12.11457 10.59395,18.31857 3.57693,6.204 8.37388,14.52 10.65989,18.48 2.286,3.96 7.05301,12.222 10.59335,18.36 3.54034,6.138 6.47395,11.16 6.51914,11.16 0.0452,0 0.94336,-1.78711 1.99593,-3.97136 z M 142.83184,351.32116 c 1.56649,-0.28536 3.0287,-0.6927 3.24936,-0.9052 0.22065,-0.21249 -0.0421,-2.62501 -0.58396,-5.36116 -2.03838,-10.29347 -3.47125,-24.12248 -3.40004,-32.8148 0.0832,-10.14842 1.6404,-25.11089 3.56271,-34.23138 0.40705,-1.93126 0.74009,-3.79144 0.74009,-4.13373 0,-0.83735 -4.55914,-1.71489 -8.9095,-1.71489 -6.24956,0 -11.64514,2.32601 -16.27014,7.01398 -2.473,2.50667 -7.06426,9.06247 -9.48053,13.53713 -3.45516,6.39855 -7.85995,13.32445 -10.31369,16.21678 l -2.636044,3.10722 1.883344,2.04319 c 2.54703,2.76319 5.97706,7.94818 10.21517,15.4417 1.94103,3.432 4.3915,7.536 5.44548,9.12 2.33828,3.51415 8.09684,9.37897 10.38591,10.57756 4.49539,2.35384 10.46185,3.13284 16.11184,2.1036 z m 349.73898,-0.36573 c 3.90556,-1.08298 7.20187,-3.14311 10.31875,-6.44906 3.05313,-3.23829 5.41377,-6.75452 10.78032,-16.05741 4.88477,-8.46768 6.88449,-11.43701 9.69019,-14.38857 l 1.91976,-2.01961 -1.91832,-2.08114 c -2.58523,-2.80464 -6.00173,-7.96637 -10.24584,-15.47964 -1.93867,-3.432 -4.5947,-7.80733 -5.90227,-9.72296 -2.66381,-3.90256 -7.60767,-8.76641 -10.30911,-10.14234 -4.64467,-2.36568 -10.78756,-3.07258 -16.58424,-1.90844 -3.1107,0.62472 -3.14243,0.70989 -2.03131,5.45374 1.55738,6.64913 2.83661,17.5373 3.41189,29.04 0.48662,9.72994 -1.25578,29.51803 -3.39943,38.60709 -1.1166,4.7343 -1.07223,4.86657 1.81879,5.42234 4.12536,0.79307 8.98862,0.68604 12.45082,-0.274 z M 419.06342,280.08 c 6.69904,-11.616 15.34893,-26.628 19.22197,-33.36 l 7.0419,-12.24 -19.58774,-0.12529 c -10.77326,-0.0689 -28.54083,-0.0689 -39.48347,0 l -19.89573,0.12529 4.18261,7.2 c 2.30044,3.96 7.16835,12.384 10.8176,18.72 3.64924,6.336 8.07794,14.004 9.84156,17.04 1.76361,3.036 5.77804,9.97379 8.92095,15.41731 4.69928,8.13916 5.80727,9.75922 6.23732,9.12 0.28762,-0.42752 6.00399,-10.28131 12.70303,-21.89731 z m -196.5387,15 c 2.31761,-4.026 7.59568,-13.152 11.72904,-20.28 20.12479,-34.70533 23.17861,-40.08763 22.90198,-40.36426 -0.11076,-0.11076 -17.82474,-0.14611 -39.36439,-0.0786 l -39.16302,0.12282 2.04153,3.6 c 1.12284,1.98 4.16929,7.272 6.76989,11.76 2.6006,4.488 7.02843,12.156 9.83962,17.04 2.81119,4.884 6.43907,11.148 8.06195,13.92 1.62289,2.772 5.06299,8.76333 7.64469,13.31407 2.58169,4.55074 4.83594,8.27674 5.00943,8.28 0.17349,0.003 2.21167,-3.28807 4.52928,-7.31407 z m -71.62845,-36.72 c 6.24824,-19.80885 19.34116,-42.45094 33.99516,-58.78911 l 3.32677,-3.70912 -1.78669,-1.57088 c -7.20472,-6.3345 -14.45681,-8.38162 -22.44223,-6.335 -3.81064,0.97665 -10.44637,4.11892 -17.49971,8.28678 -7.32219,4.32673 -12.60678,6.95229 -16.16957,8.03358 -1.584,0.48074 -2.94611,0.91536 -3.0269,0.96581 -0.0808,0.0505 0.21976,1.46563 0.66791,3.14484 0.63602,2.3832 0.89499,6.37069 1.18027,18.1731 0.39997,16.5478 0.76027,19.11074 3.3676,23.95533 1.58457,2.94423 3.71445,5.42985 6.4229,7.49569 1.61592,1.23252 8.95733,4.52212 10.13396,4.54091 0.27816,0.004 1.1019,-1.88193 1.83053,-4.19193 z m 330.01755,1.90325 c 6.31464,-3.07501 10.9945,-8.53624 12.42812,-14.50325 0.2854,-1.188 0.66163,-2.7 0.83601,-3.36 0.17439,-0.66 0.49426,-8.004 0.71083,-16.32 0.27912,-10.71863 0.60413,-15.95721 1.11644,-17.99604 0.39748,-1.58183 0.68491,-2.889 0.63873,-2.90484 -0.0461,-0.0158 -1.37995,-0.41655 -2.96395,-0.89047 -3.48053,-1.04135 -8.48002,-3.52986 -16.75216,-8.33843 C 465.56508,189.34509 459.92999,187.2 453.94128,187.2 c -5.5932,0 -11.01258,2.34613 -16.38425,7.093 l -1.78005,1.57301 3.07361,3.46699 c 15.35613,17.32149 27.78715,38.87393 34.47028,59.76324 1.11139,3.47388 1.12789,3.49432 2.57884,3.1969 0.80316,-0.16463 3.0595,-1.07808 5.01411,-2.02989 z m -218.49344,-35.9423 c 0.58322,-0.14034 1.52927,-1.04397 2.10234,-2.00806 0.57307,-0.96409 3.90637,-6.72089 7.40734,-12.79289 3.50097,-6.072 9.11366,-15.792 12.47266,-21.6 3.359,-5.808 6.48164,-11.208 6.9392,-12 0.45756,-0.792 3.68931,-6.37351 7.18166,-12.40334 3.49235,-6.02985 6.22539,-11.0877 6.07341,-11.23967 -0.46664,-0.46664 -13.57791,0.8563 -20.43311,2.06171 -14.73024,2.59016 -28.00226,6.8825 -41.52388,13.42938 -23.61441,11.43359 -43.73825,28.12628 -59.45504,49.31784 -2.2003,2.96674 -4.24952,5.86679 -4.55384,6.44456 l -0.55329,1.05048 41.64108,-0.002 c 22.9026,-0.001 42.11826,-0.11725 42.70147,-0.2576 z M 348.96,224.1121 c 0,-0.27805 -2.02497,-3.99902 -4.49994,-8.26882 -2.47496,-4.26981 -8.11629,-14.02728 -12.53628,-21.68328 -4.41999,-7.656 -10.48506,-18.14241 -13.47796,-23.30314 -2.99288,-5.16073 -5.58266,-9.75073 -5.75507,-10.2 -0.1724,-0.44927 -0.46474,-0.81686 -0.64963,-0.81686 -0.18489,0 -2.20973,3.294 -4.49964,7.32 -2.28991,4.026 -6.35737,11.1 -9.0388,15.72 -2.68144,4.62 -5.41937,9.372 -6.08431,10.56 -0.66494,1.188 -3.41079,5.94 -6.10189,10.56 -8.31103,14.26811 -11.27648,19.55504 -11.27648,20.10415 0,0.3795 10.39513,0.52597 36.96,0.52075 25.5603,-0.005 36.96,-0.16318 36.96,-0.5128 z m 96.48,-0.0358 c 0,-0.84098 -5.15787,-7.96691 -10.01496,-13.83634 -24.11094,-29.1362 -58.68371,-49.49548 -94.62504,-55.72297 -9.74533,-1.68856 -21.6,-2.85504 -21.6,-2.12541 0,0.19595 1.26619,2.546 2.81376,5.22234 1.54756,2.67634 6.11074,10.59008 10.14039,17.58608 4.02964,6.996 8.77625,15.204 10.548,18.24 1.77176,3.036 6.20489,10.704 9.8514,17.04 3.64651,6.336 7.03944,12.107 7.53984,12.82444 l 0.90982,1.30444 42.21839,-0.0346 c 26.79009,-0.022 42.2184,-0.20393 42.2184,-0.49795 z M 206.88435,178.70998 c 4.44102,-3.57643 14.1569,-10.20519 19.84825,-13.54168 8.96665,-5.2566 22.71652,-11.4613 31.6274,-14.27203 2.31,-0.72863 4.2,-1.50534 4.2,-1.72602 0,-0.22067 -0.65928,-2.11079 -1.46507,-4.20026 -3.01933,-7.82939 -8.42214,-12.67126 -16.40573,-14.70244 -2.22028,-0.56488 -6.97323,-0.87076 -18.1292,-1.1667 -10.83168,-0.28735 -15.93682,-0.60893 -18,-1.13388 -1.584,-0.40302 -3.00117,-0.74047 -3.14926,-0.74987 -0.14809,-0.009 -0.55582,1.1169 -0.90607,2.5029 -0.77127,3.05207 -3.7273,9.04807 -8.55566,17.35426 -7.07066,12.16359 -8.99404,17.51772 -8.63802,24.04574 0.29773,5.45922 2.70453,10.69794 6.98969,15.21394 l 1.68326,1.77395 3.64803,-3.24764 c 2.00642,-1.7862 5.26999,-4.55382 7.25238,-6.15027 z M 434.09731,180 c 2.15228,-4.13132 2.89158,-7.49606 2.57245,-11.70784 -0.45222,-5.96834 -2.62029,-10.9755 -10.7266,-24.77313 -3.42531,-5.83016 -6.87656,-13.32435 -6.89438,-14.9707 -0.0135,-1.24914 -0.52559,-1.32873 -3.62138,-0.56289 -1.98748,0.49167 -7.50728,0.8351 -17.9874,1.11914 -11.10748,0.30104 -15.92568,0.61298 -18.15598,1.17543 -7.31629,1.84507 -12.14061,5.71914 -15.41055,12.37511 -1.07673,2.19168 -2.07986,4.63288 -2.22918,5.42488 l -0.27149,1.44 4.9536,1.64251 c 5.51032,1.82711 16.40126,6.34593 21.67618,8.9938 11.96779,6.0075 27.72286,16.78433 37.03742,25.33445 l 2.88,2.64364 2.27595,-2.5072 c 1.25177,-1.37896 3.00739,-3.9112 3.90136,-5.6272 z M 277.76862,145.71205 c 21.84658,-4.59418 46.58314,-4.61309 68.22276,-0.0521 1.93126,0.40705 3.78392,0.74009 4.11703,0.74009 0.747,0 1.73159,-5.04126 1.73159,-8.86606 0,-1.51545 -0.34055,-4.06959 -0.75678,-5.67587 -2.10015,-8.10475 -6.75968,-12.54867 -22.76322,-21.70992 -7.81084,-4.47132 -9.95707,-5.89158 -13.56,-8.97333 l -2.76,-2.360748 -2.76,2.364008 c -3.6525,3.12845 -7.14012,5.40862 -15.24,9.96376 -8.20144,4.61225 -11.8516,7.1276 -14.89315,10.26298 -4.86478,5.01484 -6.94685,9.83595 -6.94685,16.08568 0,4.35036 0.87754,8.9095 1.71489,8.9095 0.34229,0 2.09447,-0.30958 3.89373,-0.68795 z"
       id="path314" />
    <path
       style="fill:#58dbaf;fill-opacity:1;stroke-width:3.78281"
       d="m 310.0266,538.52213 c -0.7701,-0.29352 -1.77653,-1.44255 -2.61008,-2.97994 -2.11914,-3.90845 -5.68993,-6.93283 -13.97339,-11.83517 -13.28048,-7.85971 -15.75822,-9.52992 -19.93515,-13.43788 -4.62981,-4.33167 -7.64123,-8.62244 -9.21744,-13.13328 l -1.07988,-3.09044 -1.64533,1.40636 c -2.77167,2.36904 -6.29388,4.50355 -9.56533,5.79676 -6.0238,2.38119 -9.31503,2.80268 -25.2,3.22695 -16.23124,0.43353 -17.86379,0.67761 -22.58009,3.37598 -2.51702,1.4401 -2.84772,1.51224 -4.56929,0.99643 -2.56838,-0.76948 -3.33062,-2.05665 -3.33062,-5.62416 0,-5.4407 -1.14972,-8.22907 -9.27894,-22.50374 -7.45583,-13.09225 -9.84378,-20.43718 -9.27521,-28.52899 0.15887,-2.26106 0.43368,-4.73614 0.61069,-5.50019 0.30809,-1.3299 0.26254,-1.37622 -1.06736,-1.08531 -0.76405,0.16713 -3.11718,0.44042 -5.22918,0.60731 -8.143,0.64346 -16.15505,-2.05251 -30.39252,-10.22679 -11.51931,-6.61368 -14.48982,-7.84212 -19.76748,-8.17478 -4.74269,-0.29893 -5.47788,-0.59337 -6.52174,-2.61196 -0.93632,-1.81064 -0.65472,-3.56715 0.9664,-6.02805 2.31281,-3.51092 2.71585,-6.42411 3.1393,-22.69124 0.36273,-13.93444 0.48943,-15.48653 1.61579,-19.79458 1.42523,-5.4511 3.7864,-10.20583 6.75125,-13.59509 l 2.10733,-2.409 -3.13257,-1.09328 c -4.54729,-1.58701 -8.63849,-4.36575 -12.72431,-8.64233 -3.99634,-4.18292 -6.81692,-8.30758 -13.12588,-19.19456 -5.337484,-9.21056 -8.203501,-12.73831 -12.126464,-14.92632 -2.470762,-1.37806 -3.057879,-1.95651 -3.50688,-3.45515 -0.790666,-2.63901 0.121478,-4.49197 2.90724,-5.90585 4.330977,-2.19813 7.730294,-6.45111 14.160784,-17.71693 4.48969,-7.86565 6.11099,-10.32734 9.34413,-14.18757 4.93607,-5.89345 9.59299,-9.34808 15.28037,-11.3354 l 2.99382,-1.04613 -1.20783,-1.13469 c -1.83155,-1.72065 -4.53187,-6.00592 -6.00466,-9.52908 -2.44088,-5.83899 -2.87234,-9.16293 -3.30666,-25.47404 -0.35391,-13.29143 -0.52381,-15.50383 -1.40484,-18.29379 -0.55124,-1.74558 -1.48878,-3.7923 -2.08341,-4.54826 -0.74617,-0.94859 -1.08117,-2.0231 -1.08117,-3.46778 0,-3.03438 1.6989,-4.41017 5.44592,-4.41017 5.45072,0 9.56925,-1.64209 21.41841,-8.53973 7.7137,-4.4903 14.00948,-7.45704 18.58755,-8.75896 4.73055,-1.34528 11.77391,-1.72368 15.54574,-0.83517 l 2.91762,0.68728 -0.63012,-2.67671 c -1.18188,-5.02051 -0.62278,-11.75449 1.50365,-18.11039 1.20937,-3.61479 4.67396,-10.51585 8.91089,-17.74942 5.99652,-10.23766 7.65297,-14.50123 7.65766,-19.71014 0.002,-2.44865 0.20707,-3.21084 1.16112,-4.32 0.94878,-1.10302 1.54777,-1.34676 3.30961,-1.34676 1.39941,0 2.48543,0.30251 3.10769,0.86565 2.93377,2.65502 9.71623,3.67248 24.58426,3.68796 16.90965,0.0176 25.59732,2.28997 32.6361,8.53635 l 2.10679,1.86961 1.02359,-2.92933 c 1.99617,-5.71269 5.49489,-10.37131 11.60269,-15.44922 3.26821,-2.71713 7.47258,-5.38619 18.75489,-11.906201 7.04053,-4.068701 11.55687,-8.127456 13.04711,-11.725224 0.31798,-0.767664 1.30073,-1.784894 2.18391,-2.260512 2.44,-1.314029 4.96527,-0.416683 6.47887,2.302243 2.78435,5.00162 6.07136,7.70772 16.80605,13.835934 12.20441,6.96725 17.90451,11.30365 21.933,16.6857 2.25149,3.00799 4.65349,7.68068 5.16636,10.05028 l 0.33834,1.56324 2.47081,-2.16141 c 3.44867,-3.01681 8.17528,-5.37211 13.65691,-6.80532 4.30805,-1.12636 5.86014,-1.25306 19.79458,-1.61579 16.26713,-0.42345 19.18032,-0.82649 22.69124,-3.1393 2.4609,-1.62112 4.21741,-1.90272 6.02805,-0.9664 2.03346,1.05154 2.33056,1.80222 2.58113,6.52174 0.27385,5.15799 1.41371,7.92095 7.9613,19.29765 5.19991,9.03506 6.72981,12.14057 8.50649,17.26716 2.11793,6.11127 2.60931,12.69391 1.38616,18.56935 l -0.33603,1.61416 2.11083,-0.41416 c 1.16096,-0.22779 4.48683,-0.39605 7.39083,-0.37392 4.76439,0.0363 5.79245,0.21364 10.52772,1.81603 5.43401,1.83883 8.636,3.4187 19.23228,9.48931 10.0536,5.7597 13.70582,7.13442 18.95405,7.13442 3.19718,0 4.51761,0.79191 5.30659,3.18258 0.53726,1.62784 0.44784,1.99008 -1.39195,5.63851 -2.49893,4.95554 -2.94869,8.21139 -2.94869,21.34623 0,5.46583 -0.22378,11.7682 -0.49728,14.00527 -1.02206,8.35964 -3.64282,15.12341 -7.79914,20.1285 l -2.14771,2.58623 3.09519,1.08155 c 5.95814,2.08193 12.61987,7.44309 17.1672,13.81561 1.2192,1.70853 4.59724,7.16808 7.50676,12.13232 7.32975,12.50601 8.98152,14.53136 14.22509,17.44198 3.04546,1.69048 3.78927,4.91729 1.68581,7.31338 -0.40181,0.45769 -1.87387,1.47743 -3.2713,2.26608 -3.07084,1.73309 -6.56673,5.96992 -10.51353,12.74176 -8.47402,14.53973 -11.33031,18.60026 -16.25343,23.10613 -3.29102,3.01212 -8.094,5.85247 -11.69553,6.91644 l -2.01787,0.59613 2.06755,2.45065 c 2.65862,3.15117 4.21205,5.91999 5.75064,10.24983 1.94371,5.46988 2.28273,8.49906 2.69961,24.12082 0.42548,15.94494 0.67671,17.57549 3.46479,22.48675 1.3331,2.34828 1.41067,2.72167 0.91171,4.38701 -0.76238,2.54471 -2.02685,3.19312 -6.78034,3.47698 -5.1443,0.30719 -8.5367,1.67423 -18.73737,7.55061 -9.32948,5.37453 -15.467,8.29877 -20.14085,9.59615 -4.91033,1.36303 -10.955,1.7247 -14.89747,0.89135 l -3.13746,-0.66319 0.60746,2.89717 c 1.44251,6.87974 0.1283,14.66146 -3.99707,23.66746 -0.45089,0.98434 -3.09199,5.78571 -5.8691,10.66971 -6.56348,11.54294 -7.76334,14.45664 -8.10417,19.68 -0.31014,4.75301 -0.96318,6.02198 -3.48843,6.77856 -1.66534,0.49896 -2.03873,0.42139 -4.38701,-0.91171 -4.94175,-2.80541 -6.52146,-3.04762 -22.72675,-3.48495 -15.76524,-0.42542 -18.96293,-0.81868 -24.91299,-3.06374 -4.00712,-1.512 -5.98677,-2.6689 -9.24803,-5.40461 l -2.48103,-2.08118 -0.33155,1.56379 c -0.18236,0.86011 -1.21294,3.29184 -2.29018,5.40384 -3.5543,6.9684 -11.02785,13.49741 -23.37622,20.42184 -10.71909,6.0108 -15.20274,9.42355 -17.32788,13.1891 -0.77429,1.37194 -1.79644,2.84616 -2.27146,3.27605 -1.12264,1.01597 -3.35375,1.35744 -4.93406,0.75514 z m 3.44973,-14.65349 c 1.82779,-1.96555 9.2187,-6.91392 16.04367,-10.74163 3.432,-1.9248 7.80733,-4.57771 9.72296,-5.89531 3.9716,-2.73178 8.7768,-7.6478 10.19758,-10.43276 2.26632,-4.44235 2.92282,-10.11494 1.87019,-16.15963 -0.60592,-3.4794 -0.4684,-3.42207 -5.61281,-2.33991 -20.991,4.41558 -46.19051,4.35711 -68.20492,-0.15823 l -4.29874,-0.88171 -0.51713,2.9696 c -1.09181,6.26961 -0.45805,11.9963 1.82091,16.45387 1.61701,3.16281 6.85683,8.3771 11.22473,11.16998 2.17647,1.39167 4.54248,2.93007 5.25779,3.41871 0.71532,0.48859 1.39926,0.88838 1.51988,0.88838 0.12063,0 2.26733,1.15982 4.77046,2.57741 5.58475,3.16277 11.19286,7.00512 13.04306,8.9363 0.7621,0.79546 1.52358,1.44629 1.69217,1.44629 0.16859,0 0.83018,-0.56314 1.4702,-1.25136 z M 209.28,495.75418 c 0.924,-0.25997 8.592,-0.65055 17.04,-0.86794 16.82328,-0.43291 19.32624,-0.78595 24.27618,-3.42427 4.06107,-2.16451 7.38554,-5.73427 9.55692,-10.26197 1.01286,-2.112 1.97752,-4.50373 2.1437,-5.31497 l 0.30212,-1.47497 -4.69946,-1.59173 c -21.49512,-7.28049 -42.30964,-19.43321 -59.32356,-34.63652 l -2.7841,-2.48781 -1.43991,1.633 c -4.66833,5.29434 -7.15189,11.09121 -7.15189,16.69321 0,6.11202 2.19288,11.7337 9.41877,24.14606 4.39627,7.55173 7.11008,13.12189 7.90591,16.22706 0.66968,2.61297 0.48884,2.56118 4.75532,1.36085 z m 210.22215,-1.85429 c 1.03778,-3.30955 3.9254,-9.04834 8.54961,-16.99124 9.55633,-16.4147 10.96309,-24.06403 6.10563,-33.19965 -1.12195,-2.1101 -5.51683,-7.8703 -5.99739,-7.86055 -0.132,0.003 -1.968,1.53551 -4.08,3.40629 -16.91745,14.98523 -36.84041,26.36186 -60.1544,34.35003 -2.4464,0.83823 -2.54288,0.93611 -2.28211,2.31523 0.14976,0.792 1.13491,3.19619 2.18923,5.34264 2.29587,4.6741 5.67913,8.27443 9.66749,10.28774 5.06963,2.55917 7.49659,2.89373 24.17979,3.33356 10.8935,0.28723 16.05789,0.60638 17.76,1.09771 1.32,0.38102 2.58914,0.65793 2.82032,0.61545 0.23117,-0.0427 0.79,-1.25625 1.24183,-2.69721 z M 304.32,471.61703 c 0,-0.12264 -0.93601,-1.79664 -2.08002,-3.72 -1.14401,-1.92337 -3.38585,-5.76503 -4.98187,-8.53703 -1.59602,-2.772 -4.84155,-8.388 -7.21229,-12.48 -2.37074,-4.092 -8.15988,-14.136 -12.86476,-22.32 -4.70487,-8.184 -9.71593,-16.878 -11.13569,-19.32 L 263.464,400.8 h -42.212 c -23.2166,0 -42.212,0.13306 -42.212,0.29569 0,0.45388 3.09864,4.63057 8.14531,10.97917 16.02989,20.16526 37.3811,36.47554 61.45469,46.94554 7.06229,3.07151 17.17234,6.4812 25.11486,8.47016 5.71831,1.43198 19.15793,3.71843 23.60514,4.01588 4.4122,0.29511 6.96,0.33559 6.96,0.11059 z m 30.96,-1.25355 c 41.55132,-6.19997 79.04293,-28.4426 104.3672,-61.91788 2.35893,-3.11818 4.52692,-6.11407 4.81777,-6.65752 L 444.99378,400.8 h -42.22214 -42.22213 l -1.6587,2.76 c -0.91229,1.518 -4.19951,7.188 -7.30493,12.6 -3.10543,5.412 -6.76929,11.784 -8.14192,14.16 -1.37262,2.376 -6.54048,11.34 -11.48412,19.92 -4.94364,8.58 -9.729,16.82056 -10.63414,18.31235 -0.90513,1.49179 -1.6457,2.86748 -1.6457,3.05708 0,0.50091 8.37654,-0.16812 15.6,-1.24595 z M 321.34215,449.4 c 13.85415,-23.97384 19.21669,-33.27569 23.798,-41.28 l 4.18964,-7.32 h -37.4401 -37.4401 l 0.68808,1.08 c 0.37845,0.594 8.75224,15.066 18.60842,32.16 9.85619,17.094 18.0534,31.08 18.21602,31.08 0.16262,0 4.38364,-7.074 9.38004,-15.72 z M 177.6,435.36166 c 2.86388,-1.21929 7.77117,-4.49723 9.44603,-6.30969 l 1.04603,-1.13197 -3.61245,-4.08 c -9.49845,-10.72783 -20.3073,-27.02465 -25.59563,-38.59129 -0.73646,-1.61079 -1.92913,-4.22471 -2.65036,-5.80871 -1.55152,-3.40745 -6.47362,-16.7612 -6.47362,-17.56302 0,-0.91866 -2.77158,-0.13233 -7.2,2.04272 -6.62139,3.25214 -10.23023,7.6938 -12.28728,15.12285 -0.58467,2.1115 -0.87508,6.50496 -1.18438,17.91745 -0.26814,9.89386 -0.64734,16.19841 -1.09708,18.24 -0.37801,1.716 -0.60636,3.25543 -0.50744,3.42096 0.0989,0.16553 1.19661,0.55698 2.4393,0.86989 2.8074,0.70692 9.05716,3.82045 17.16823,8.55295 7.61026,4.4403 13.1906,7.08966 16.89912,8.02316 4.10094,1.03229 10.28047,0.71203 13.60953,-0.7053 z m 282.19444,0.69945 c 4.06031,-0.95708 9.39318,-3.49804 18.3627,-8.74928 7.80868,-4.57163 12.4896,-6.8875 15.85977,-7.84656 1.13472,-0.32291 2.21103,-0.71269 2.39179,-0.86619 0.18082,-0.15349 0.005,-1.57508 -0.39297,-3.15908 -0.50943,-2.03295 -0.84005,-7.32698 -1.12407,-18 -0.44289,-16.64282 -0.79881,-19.10021 -3.50078,-24.16958 -2.19869,-4.12517 -5.3964,-7.11293 -10.07011,-9.40889 -2.17842,-1.07016 -4.61467,-2.07018 -5.41388,-2.22226 l -1.45312,-0.27652 -2.33192,6.63863 c -3.42402,9.74763 -10.10433,24.12764 -14.23336,30.63862 -6.77983,10.69102 -12.7824,18.81996 -19.84493,26.87489 l -2.35644,2.68757 1.63644,1.40726 c 7.49604,6.44623 14.25747,8.38743 22.47088,6.45139 z M 257.22948,390.12 c -0.31036,-0.594 -3.81319,-6.696 -7.78405,-13.56 -3.97087,-6.864 -9.20209,-15.936 -11.62493,-20.16 -13.64797,-23.79393 -19.38627,-33.58684 -19.74175,-33.69099 -0.21931,-0.0643 -3.26614,4.89793 -6.77072,11.02708 -3.50459,6.12915 -9.24311,16.11191 -12.75227,22.18391 -16.33472,28.26439 -19.57335,33.91156 -19.82661,34.57156 -0.23833,0.62107 4.62059,0.70844 39.39638,0.70844 h 39.66825 z m 103.46202,-8.88421 c 7.65427,-13.29569 29.98148,-51.9522 37.53894,-64.99354 l 2.13126,-3.67775 -11.60243,-20.08225 C 382.37793,281.43701 373.48893,266.028 369.00593,258.24 c -4.48301,-7.788 -9.44713,-16.37514 -11.03139,-19.08254 l -2.88047,-4.92255 -43.22843,0.12255 -43.22842,0.12254 -5.09889,8.88 c -5.7848,10.07454 -15.64784,27.14563 -24.26602,42 -3.21652,5.544 -8.04887,13.92128 -10.73856,18.61618 l -4.89036,8.53618 3.06287,5.38382 c 1.68458,2.9611 4.25465,7.43582 5.71127,9.94382 1.45661,2.508 5.44635,9.42 8.86607,15.36 3.41971,5.94 11.05503,19.17 16.96737,29.4 l 10.74971,18.6 42.97966,-0.004 42.97966,-0.004 5.7315,-9.95579 z m -22.40393,-14.47555 -1.56757,-1.39975 -0.15565,-9.31665 -0.15565,-9.31665 -3.20435,3.32591 c -7.71783,8.01062 -17.49749,13.39847 -28.64435,15.78087 -4.61358,0.98605 -14.64254,0.73848 -19.10423,-0.4716 -8.61087,-2.3354 -14.88757,-7.22868 -18.48064,-14.40742 -2.44441,-4.88378 -3.16307,-8.2971 -2.84553,-13.51495 0.2786,-4.57786 1.79981,-9.38774 4.53615,-14.3427 3.00734,-5.44567 3.74961,-6.46194 15.40652,-21.09353 7.90455,-9.9217 11.42838,-15.81539 12.74945,-21.32377 l 0.31657,-1.32 h -15.77752 c -10.30922,0 -16.30648,-0.1844 -17.30373,-0.53204 -2.45965,-0.85744 -3.56419,-3.80634 -2.39053,-6.38224 1.26181,-2.76939 -0.42106,-2.67724 48.86589,-2.67577 48.31109,0.001 47.6936,-0.0278 48.94896,2.31786 0.28525,0.53299 0.51864,1.64548 0.51864,2.47219 0,3.66724 -2.14681,4.8 -9.09701,4.8 h -4.80784 l -0.12758,42.99948 -0.12757,42.99947 -1.56757,1.40053 c -2.05422,1.8353 -3.93011,1.83554 -5.98486,9.6e-4 z M 303.74024,356.36767 C 316.6392,353.74471 328.03531,344.74943 334.10485,332.4 l 2.35912,-4.8 0.0181,-19.92 c 0.01,-10.956 0.0136,-21.81 0.008,-24.12 l -0.0101,-4.2 H 321.46943 306.4589 l -0.60919,3.21136 c -1.30915,6.90123 -5.80823,14.41865 -17.00184,28.40802 -12.98706,16.23074 -16.61683,23.5623 -15.24547,30.79342 1.3872,7.31469 6.48866,12.48175 14.39757,14.58272 3.52182,0.93555 11.17015,0.94146 15.74024,0.0121 z m 34.71259,-91.59751 c -2.67301,-1.48154 -3.16957,-4.75284 -1.07695,-7.09489 1.21885,-1.36413 1.66445,-1.53989 3.90412,-1.53989 2.23967,0 2.68527,0.17576 3.90412,1.53989 1.48036,1.65681 1.71221,3.14139 0.80243,5.13814 -1.07648,2.36263 -4.97468,3.37511 -7.53372,1.95675 z M 445.44,390.96768 c 0,-0.23045 -6.71958,-11.95588 -23.52352,-41.04768 -4.80347,-8.316 -10.37747,-17.98142 -12.38667,-21.4787 -2.98629,-5.19804 -3.73664,-6.20562 -4.11078,-5.52 -0.25173,0.46128 -5.2086,9.0467 -11.01528,19.0787 -5.80668,10.032 -11.7895,20.4 -13.29515,23.04 -1.50565,2.64 -5.46703,9.5061 -8.80307,15.25801 -3.33604,5.75191 -6.06553,10.55791 -6.06553,10.68 0,0.12209 17.82,0.22199 39.6,0.22199 21.78,0 39.6,-0.10454 39.6,-0.23232 z m -272.4471,-9.96504 c 1.48294,-2.57254 3.91395,-6.78454 5.40224,-9.36 1.48829,-2.57545 6.69272,-11.59464 11.5654,-20.04264 4.87268,-8.448 11.91493,-20.64092 15.64944,-27.09539 3.73451,-6.45445 6.72199,-11.95055 6.63884,-12.21353 -0.0831,-0.263 -5.57546,-9.88607 -12.20513,-21.38462 C 184.65943,264.22387 176.81026,250.63619 175.905,249.12 c -0.39407,-0.66 -1.94413,-3.35958 -3.44459,-5.99907 l -2.72811,-4.79907 -2.5209,5.27907 c -11.42782,23.93124 -16.94759,52.66508 -15.07584,78.47907 0.64052,8.83355 0.54349,8.00894 1.94851,16.56 1.70427,10.37234 4.55687,20.81366 8.39278,30.72 2.25258,5.81736 7.34193,16.82799 7.63449,16.51697 0.10191,-0.10833 1.39861,-2.30178 2.88156,-4.87433 z m 284.8773,-3.27304 c 8.55588,-19.22596 12.53447,-35.53586 13.98482,-57.3296 1.01184,-15.2044 -1.00099,-34.76514 -5.11216,-49.68 -2.48264,-9.00676 -7.77779,-22.9864 -11.42496,-30.16284 l -1.09972,-2.16389 -1.35199,2.36336 c -0.7436,1.29985 -2.48473,4.30737 -3.86919,6.68337 -1.38446,2.376 -6.06735,10.476 -10.40643,18 -16.07885,27.88086 -19.05566,33.03887 -23.08065,39.99244 l -4.11694,7.11244 5.19478,8.96756 c 5.22557,9.02069 6.95344,12.01614 23.16994,40.16756 13.37862,23.22493 14.00838,24.26592 14.42672,23.84758 0.21361,-0.21361 1.87222,-3.72271 3.68578,-7.79798 z M 143.36068,351.31073 c 3.47694,-0.60549 3.48586,-0.62627 2.34968,-5.47073 -2.30264,-9.81798 -3.8638,-27.92384 -3.3896,-39.3116 0.33871,-8.13403 1.39233,-17.81209 2.69213,-24.72868 0.52503,-2.79384 1.07713,-5.8656 1.22687,-6.82612 l 0.27226,-1.7464 -3.35177,-0.59899 c -4.0953,-0.73187 -10.08262,-0.40516 -13.32025,0.72685 -6.18374,2.16209 -12.33261,8.73127 -18.10037,19.33762 -3.4718,6.38432 -7.40205,12.57496 -10.06122,15.8477 l -2.844125,3.50037 1.946735,2.21161 c 2.55263,2.89995 6.30896,8.61854 10.34404,15.74764 1.7931,3.168 4.28002,7.27554 5.52651,9.12786 2.58177,3.83659 7.74806,8.8835 10.56444,10.32031 4.41643,2.25309 10.12212,2.91134 16.14467,1.86256 z m 348.79311,-0.18845 c 7.85093,-2.0449 12.42605,-6.81152 21.21303,-22.10094 4.88481,-8.49968 7.38019,-12.212 10.21665,-15.19923 l 1.68816,-1.77789 -1.64601,-1.82211 c -2.72626,-3.01787 -5.84352,-7.68378 -10.03618,-15.02211 -5.44301,-9.52676 -7.98696,-13.1762 -11.58125,-16.61397 -4.80624,-4.5969 -9.20601,-6.4097 -15.58267,-6.42033 -3.28862,-0.005 -8.23411,0.68289 -8.77225,1.22103 -0.14298,0.14297 0.10179,2.03145 0.54394,4.19661 4.19415,20.53884 4.54465,42.2333 1.01353,62.73666 -0.65926,3.828 -1.31705,7.74944 -1.46177,8.7143 l -0.26311,1.75431 2.57707,0.46867 c 3.94425,0.71732 9.03691,0.66046 12.09086,-0.135 z M 231.81428,279.12 c 2.29247,-3.96 6.41033,-11.088 9.1508,-15.84 2.74047,-4.752 7.617,-13.176 10.83673,-18.72 3.21973,-5.544 5.79106,-10.14843 5.71406,-10.23206 -0.21265,-0.23098 -78.53628,-0.18753 -78.76751,0.0437 -0.1108,0.1108 1.2303,2.66451 2.98022,5.67491 1.74992,3.0104 6.10642,10.54945 9.6811,16.75345 3.57469,6.204 7.50248,13.008 8.72844,15.12 1.22596,2.112 5.75225,9.95168 10.05844,17.42151 l 7.82941,13.58152 4.81009,-8.30152 c 2.64555,-4.56581 6.68575,-11.54149 8.97822,-15.50149 z m 179.39491,14.64 c 2.63396,-4.62 8.04345,-14.016 12.02109,-20.88 16.40412,-28.30772 22.14699,-38.38272 21.97605,-38.55367 -0.22364,-0.22364 -78.5183,-0.21436 -78.74199,0.009 -0.0889,0.0889 1.78788,3.5058 4.1707,7.59302 2.38283,4.08723 4.8782,8.40332 5.54528,9.59132 1.11592,1.98737 6.71914,11.68408 23.35271,40.41328 3.46884,5.9913 6.43751,10.7433 6.59706,10.56 0.15955,-0.1833 2.44515,-4.11328 5.0791,-8.73328 z M 150.68436,259.08 c 6.70394,-20.95503 19.07948,-42.37861 34.58021,-59.86259 l 3.0389,-3.42772 -1.63173,-1.43886 c -7.98982,-7.04537 -16.56345,-8.85476 -25.87174,-5.46 -3.93539,1.43524 -6.93271,2.98736 -15.45645,8.00389 -6.28344,3.69803 -12.4966,6.70802 -15.74355,7.62704 -1.188,0.33625 -2.21825,0.64866 -2.28945,0.69425 -0.0712,0.0456 0.2229,1.57264 0.65354,3.39344 0.5795,2.45012 0.88258,7.24031 1.16611,18.43055 0.29813,11.76598 0.56156,15.75886 1.18756,18 1.58283,5.66666 4.3487,9.92978 8.26884,12.74501 2.30874,1.65801 8.96658,4.75913 10.23892,4.76913 0.50487,0.004 1.1049,-1.11748 1.85884,-3.47414 z m 330.49817,1.10726 c 4.54641,-2.21073 8.12582,-5.55041 10.27944,-9.59108 2.64,-4.95312 2.99179,-7.45056 3.41933,-24.27618 0.29688,-11.6825 0.57609,-16.03716 1.1662,-18.18831 0.42672,-1.55557 0.71664,-2.86274 0.64421,-2.90483 -0.0724,-0.0421 -1.42771,-0.46974 -3.01171,-0.95033 -3.53707,-1.07316 -7.77192,-3.16964 -15.6,-7.72287 -8.61275,-5.00963 -13.2081,-7.23302 -17.28355,-8.36238 -8.34094,-2.3114 -16.07262,-0.39318 -22.79645,5.65576 -1.056,0.95001 -1.92,1.86812 -1.92,2.04026 0,0.17213 1.296,1.77541 2.88,3.56283 14.26538,16.09741 25.97252,36.04278 33.18657,56.53973 l 2.33343,6.62986 1.42251,-0.27836 c 0.78238,-0.1531 3.15838,-1.12244 5.28002,-2.1541 z M 267.91474,216.59501 c 16.63724,-28.84315 24.81055,-42.99333 30.45402,-52.72401 3.53718,-6.09895 6.43124,-11.26076 6.43124,-11.4707 0,-1.04885 -18.13132,1.13852 -28.2513,3.40825 -37.78386,8.47423 -72.21521,31.45296 -95.04724,63.43244 -1.8818,2.63573 -3.42146,4.92876 -3.42146,5.09563 0,0.16686 19.17,0.30113 42.6,0.29839 l 42.6,-0.005 4.63474,-8.03502 z m 80.03043,5.28499 c -2.59673,-4.57873 -7.99504,-13.94825 -17.21553,-29.88 -4.81288,-8.316 -10.94196,-18.95144 -13.62017,-23.63431 -2.67821,-4.68288 -4.97747,-8.51657 -5.10947,-8.51933 -0.23315,-0.005 -2.88106,4.5042 -14.65385,24.95364 -3.1157,5.412 -9.51719,16.481 -14.22553,24.59777 -4.70834,8.11677 -8.56062,14.86677 -8.56062,15 0,0.13323 16.86385,0.24223 37.47523,0.24223 h 37.47522 z m 97.46164,1.73799 c -0.58875,-1.10009 -4.58001,-6.70722 -6.92681,-9.73113 -5.90671,-7.61094 -13.91527,-16.06811 -21.1445,-22.32892 -25.85551,-22.39193 -56.08916,-35.51191 -89.7355,-38.94099 -2.904,-0.29596 -6.08441,-0.46585 -7.06758,-0.37753 l -1.78758,0.16058 2.07763,3.36 c 1.14269,1.848 5.48878,9.3 9.65797,16.56 4.16919,7.26 9.02579,15.684 10.79246,18.72 1.76666,3.036 6.62973,11.46 10.8068,18.72 4.17708,7.26 7.91742,13.578 8.31189,14.04 0.67302,0.78826 3.33054,0.84 43.13969,0.84 h 42.4225 z M 201.07735,183.63687 c 16.87015,-14.58386 38.14503,-26.67102 58.04127,-32.97573 3.47945,-1.10256 3.51542,-1.13095 3.2315,-2.55056 -0.15792,-0.78958 -1.15486,-3.22833 -2.21542,-5.41945 -3.18381,-6.57774 -7.81609,-10.36998 -15.17676,-12.42455 -2.13117,-0.59487 -6.40113,-0.87615 -17.91794,-1.18033 -10.49969,-0.27732 -16.13662,-0.62443 -18.44689,-1.13591 -1.82979,-0.40511 -3.35297,-0.68566 -3.38483,-0.62345 -0.0319,0.0622 -0.45129,1.40911 -0.93203,2.99311 -1.06648,3.514 -3.71329,8.8674 -7.77078,15.71703 -6.7965,11.47349 -8.78428,16.3517 -9.17159,22.50801 -0.40717,6.47205 1.53957,11.71032 6.51721,17.53644 0.9619,1.12587 1.80407,2.05412 1.87148,2.06278 0.0674,0.009 2.47706,-2.01967 5.35478,-4.50739 z M 432.21081,183.12 c 2.9534,-4.19652 4.22625,-7.54339 4.47244,-11.76 0.38686,-6.62582 -1.59697,-12.19849 -8.63945,-24.26865 -4.7325,-8.11107 -7.84603,-14.36083 -8.55295,-17.16823 -0.31291,-1.24269 -0.70436,-2.34038 -0.86989,-2.4393 -0.16553,-0.0989 -1.70496,0.12943 -3.42096,0.50744 -2.04159,0.44974 -8.34614,0.82894 -18.24,1.09708 -11.47806,0.31108 -15.8137,0.599 -18,1.19533 -7.29719,1.99041 -11.78908,5.65682 -15.0403,12.27633 -1.10215,2.244 -2.12532,4.728 -2.2737,5.52 l -0.26979,1.44 4.57985,1.55397 c 21.56549,7.31729 40.93041,18.52225 58.12394,33.63177 l 3.84,3.37455 1.13197,-1.04014 c 0.62258,-0.57208 2.04406,-2.33615 3.15884,-3.92015 z M 276.94149,145.92531 c 3.69678,-1.06023 17.59341,-2.8919 25.84727,-3.40684 13.21843,-0.82469 31.78354,0.552 43.05124,3.19245 4.84489,1.13534 4.86526,1.12659 5.47073,-2.35024 1.5731,-9.03342 -0.18211,-15.394 -5.89676,-21.36886 -3.37093,-3.52442 -7.48693,-6.42142 -16.10483,-11.33521 -8.08265,-4.60859 -10.72735,-6.32987 -14.30914,-9.31302 l -3,-2.498587 -3,2.498587 c -3.62419,3.01846 -5.76595,4.40649 -14.60627,9.46601 -14.54485,8.32436 -19.49853,13.12054 -21.56416,20.87849 -0.80352,3.01779 -0.85817,8.3327 -0.12331,11.99186 0.60111,2.99311 0.96159,3.18423 4.23523,2.24536 z"
       id="path312" />
    <path
       style="fill:#58dbaf;fill-opacity:1;stroke-width:3.78281"
       d="m 310.32,538.6044 c -1.21164,-0.51883 -2.14519,-1.62163 -3.74044,-4.41854 -2.06734,-3.62468 -5.18327,-5.9738 -17.13956,-12.92175 -8.57983,-4.98585 -12.56465,-7.77129 -16.59696,-11.6016 -4.45786,-4.23456 -7.57393,-9.12715 -9.17047,-14.39875 l -0.39257,-1.29624 -2.62257,2.18184 c -4.35173,3.62045 -10.09568,6.14107 -16.89872,7.41562 -1.40729,0.26366 -9.25471,0.65313 -17.43871,0.86548 -13.56299,0.35189 -15.15615,0.48101 -18,1.45901 -1.716,0.59016 -3.44439,1.36339 -3.84088,1.71835 -1.43324,1.28309 -3.3991,1.73343 -5.10677,1.16986 -2.32828,-0.76843 -3.05235,-2.09203 -3.05235,-5.57971 0,-4.83903 -1.80098,-9.45931 -7.7329,-19.83797 -8.69213,-15.20803 -10.5667,-20.17968 -10.67812,-28.32 -0.0379,-2.772 0.10867,-6.14043 0.32581,-7.48541 l 0.39478,-2.44541 -3.27478,0.69052 c -6.1425,1.29521 -13.98045,0.005 -21.93144,-3.60882 -2.14684,-0.97589 -7.72152,-3.96276 -12.38819,-6.63749 -11.05519,-6.33637 -13.79653,-7.43487 -19.52339,-7.82333 -3.93987,-0.26724 -4.60037,-0.44293 -5.40609,-1.43795 -1.65752,-2.04695 -1.67358,-3.38496 -0.0753,-6.27715 2.84128,-5.14159 3.061,-6.59054 3.49596,-23.05496 0.40164,-15.20322 0.71854,-18.06073 2.63499,-23.76 1.13551,-3.37686 3.66129,-7.79065 5.93883,-10.37808 l 1.93858,-2.20233 -2.01936,-0.59657 c -4.52745,-1.33752 -8.66559,-3.99874 -13.07389,-8.40778 -4.55856,-4.55931 -6.83247,-7.81274 -14.33164,-20.50521 -5.179918,-8.76711 -7.366088,-11.59699 -10.281281,-13.30858 -3.562637,-2.09172 -4.901271,-3.48656 -5.209959,-5.42871 -0.252796,-1.59054 -0.100905,-1.96038 1.379919,-3.36 0.915187,-0.86501 2.650733,-2.17077 3.856757,-2.9017 2.892547,-1.75306 6.403742,-6.46037 11.897924,-15.95104 5.87529,-10.14899 7.61386,-12.65688 11.84302,-17.08349 4.14091,-4.33424 8.40359,-7.26235 12.81791,-8.80483 3.12266,-1.09115 3.13754,-1.10492 2.15504,-1.99407 -2.04338,-1.84923 -5.65352,-7.93567 -6.85696,-11.56032 -2.04657,-6.16411 -2.24218,-7.89805 -2.67106,-23.67729 -0.4474,-16.46059 -0.66713,-17.90184 -3.51478,-23.05496 -1.66681,-3.01624 -1.57969,-4.55935 0.36734,-6.50638 0.98213,-0.98213 1.62408,-1.15866 4.21336,-1.15866 5.34382,0 9.38581,-1.57663 20.02894,-7.81256 16.3145,-9.55886 25.70001,-12.29225 35.29754,-10.27989 l 2.89755,0.60754 -0.60754,-2.89755 c -1.14034,-5.43863 -0.66904,-10.72086 1.5679,-17.57252 1.40154,-4.29284 3.4409,-8.36529 9.63225,-19.23489 5.16604,-9.06954 6.8923,-13.69063 6.8923,-18.45023 0,-2.66206 0.17119,-3.29472 1.15866,-4.2822 1.94703,-1.94703 3.49014,-2.03415 6.50638,-0.36734 5.14159,2.84128 6.59054,3.061 23.05496,3.49596 10.49792,0.27733 16.07376,0.62068 18.24,1.12315 6.87213,1.59406 11.23095,3.67475 15.96,7.61853 1.6427,1.36992 2.28,1.6836 2.28,1.12224 0,-1.35274 2.41812,-6.5908 4.3224,-9.36309 2.21258,-3.22112 6.84983,-7.78336 10.88736,-10.71129 1.63337,-1.18448 6.98292,-4.49104 11.8879,-7.3479 10.31244,-6.006422 14.37609,-9.160426 16.25851,-12.619056 1.78733,-3.283915 3.45535,-4.55159 5.54322,-4.212778 2.04971,0.332626 3.04581,1.24214 4.83769,4.417181 1.95252,3.459663 5.57676,6.264418 15.74075,12.181543 10.67262,6.21323 15.34673,9.56032 19.59113,14.02902 3.37096,3.5491 6.95383,9.53569 7.63793,12.76218 l 0.33205,1.56606 2.19926,-1.93588 c 4.02995,-3.54729 9.02345,-5.89604 15.9618,-7.50781 2.16066,-0.50191 7.69529,-0.8466 18,-1.12098 16.28444,-0.43362 18.31656,-0.73566 23.21829,-3.45103 3.13651,-1.73751 4.67923,-1.64069 6.58262,0.4131 0.9966,1.07534 1.16051,1.72869 1.16921,4.66058 0.0162,5.43996 1.41703,8.71389 10.39336,24.28991 6.90295,11.97823 9.19196,21.12571 7.6664,30.63693 l -0.41012,2.55692 2.33012,-0.39692 c 1.28156,-0.21831 4.59812,-0.36589 7.37012,-0.32795 7.34321,0.10051 13.92758,2.34569 23.83817,8.12852 14.37981,8.39063 18.85322,10.2825 24.31332,10.2825 3.49459,0 4.81737,0.72276 5.58619,3.05235 0.56357,1.70767 0.11323,3.67353 -1.16986,5.10677 -0.35496,0.39649 -1.12819,2.12488 -1.71835,3.84088 -0.978,2.84385 -1.10712,4.43701 -1.45901,18 -0.21235,8.184 -0.60182,16.03142 -0.86548,17.43871 -1.27455,6.80304 -3.79517,12.54699 -7.41562,16.89872 l -2.18184,2.62257 1.29624,0.39257 c 9.80909,2.97074 17.36126,10.37879 25.77941,25.28743 6.45403,11.43015 9.65289,15.66619 13.44777,17.80788 3.39236,1.91454 4.28722,3.009 4.28722,5.2434 0,2.00599 -1.45469,4.03699 -3.2941,4.59902 -1.5982,0.48835 -4.96857,3.43789 -6.99374,6.12056 -1.02523,1.35803 -3.84955,5.92514 -6.27634,10.14914 -5.2402,9.12107 -8.17051,13.45595 -11.82854,17.49821 -4.22573,4.66955 -9.43123,8.15025 -14.42016,9.64213 l -2.03477,0.60846 2.13403,2.4979 c 2.11978,2.48122 4.91804,7.55816 5.95964,10.81268 1.68878,5.27675 2.05267,8.76478 2.45179,23.50062 0.44174,16.31047 0.55248,17.04946 3.35635,22.3984 1.40928,2.68852 1.49957,3.10989 0.99461,4.64001 -0.78898,2.39055 -2.28936,3.20159 -5.92291,3.20159 -5.30847,0 -8.53623,1.2925 -20.74402,8.30664 -15.81157,9.08474 -24.49397,11.61704 -33.6576,9.81654 l -3.41761,-0.6715 0.51142,1.71416 c 0.90056,3.01849 0.5914,11.81948 -0.5646,16.07251 -1.25601,4.62099 -4.48716,11.48307 -9.30355,19.75823 -6.64385,11.41492 -8.04806,14.94417 -8.04806,20.22744 0,3.6191 -0.81105,5.13398 -3.16451,5.91067 -1.507,0.49737 -1.97956,0.37761 -5.60068,-1.41893 -5.00462,-2.48299 -7.92536,-2.87875 -21.47481,-2.90971 -10.58961,-0.0245 -17.55588,-0.70186 -22.56,-2.19447 -3.94266,-1.176 -8.94029,-3.82382 -11.7533,-6.22704 l -2.4979,-2.13403 -0.60117,2.03477 c -2.69807,9.13186 -10.76595,17.08142 -25.94763,25.56715 -10.43485,5.83248 -15.90566,10.14211 -17.42022,13.72272 -1.21898,2.88183 -4.00015,4.35111 -6.33978,3.34925 z m 2.70123,-14.28869 c 1.26629,-1.54608 7.91588,-6.18125 13.30677,-9.27571 13.28459,-7.62557 17.03113,-10.29902 20.67216,-14.75131 4.13335,-5.05435 5.70276,-12.00043 4.38164,-19.39291 -0.67712,-3.78898 -0.67625,-3.78859 -5.87202,-2.60644 -1.66638,0.37914 -6.26978,1.18248 -10.22978,1.7852 -6.40666,0.97508 -8.97179,1.09628 -23.28,1.10012 -18.05199,0.005 -23.61734,-0.55719 -37.75671,-3.81254 -0.94601,-0.2178 -1.08855,0.0513 -1.62908,3.07593 -0.74876,4.18982 -0.367,11.09789 0.77158,13.96195 1.15316,2.90074 3.10787,5.71498 5.8574,8.43288 2.27954,2.25336 9.28741,7.11653 13.79681,9.57437 6.33059,3.45053 12.45846,7.37357 15.43647,9.88243 1.80594,1.52141 3.41908,2.78064 3.58476,2.79826 0.16567,0.0178 0.59767,-0.32986 0.96,-0.77223 z M 208.56,496.02994 c 2.07052,-0.52906 7.12975,-0.84903 18,-1.13828 16.62024,-0.44232 19.10335,-0.80049 24.13328,-3.48144 4.06894,-2.16873 7.20454,-5.52724 9.474,-10.14758 1.05432,-2.14645 2.04596,-4.57951 2.20366,-5.40679 l 0.28672,-1.50415 -4.72883,-1.57327 C 237.00188,465.81612 216.92497,454.18257 199.68,439.0262 c -1.98,-1.7402 -3.7445,-3.16899 -3.92111,-3.17509 -0.71712,-0.0248 -4.86316,5.73885 -6.53359,9.08272 -1.73721,3.47755 -1.7853,3.71677 -1.7853,8.88 0,3.86422 0.23904,6.02359 0.87965,7.94617 1.07915,3.23874 4.74358,10.60238 7.52429,15.12 3.43182,5.57544 7.98367,14.72035 8.66078,17.4 0.35022,1.386 0.75793,2.51232 0.90602,2.50291 0.14809,-0.01 1.56526,-0.34824 3.14926,-0.75297 z m 211.2152,-2.61831 c 1.29554,-3.83275 3.11324,-7.45329 8.03221,-15.99873 6.90746,-11.99992 8.99259,-17.44234 8.99259,-23.47162 0,-5.51348 -2.51276,-11.35434 -7.14289,-16.60351 l -1.43092,-1.62222 -1.63753,1.38222 c -0.90064,0.76023 -3.45353,2.92177 -5.67309,4.80343 -15.76274,13.36302 -37.25277,25.32376 -56.43579,31.41055 l -3.44022,1.09159 1.21586,3.39833 c 1.48591,4.15308 4.83428,9.33012 7.29496,11.27902 1.00537,0.79627 2.88582,1.97635 4.17878,2.62243 4.90385,2.45035 7.10817,2.74997 23.47084,3.18998 10.61975,0.28556 16.17473,0.62631 18,1.104 1.452,0.38007 2.84029,0.64944 3.08509,0.59861 0.2448,-0.0508 0.91535,-1.48368 1.49011,-3.18408 z M 304.32,471.52202 c 0,-0.17488 -0.62044,-1.30888 -1.37875,-2.52 -0.75831,-1.21111 -4.29781,-7.27802 -7.86555,-13.48202 -10.01774,-17.42001 -26.13401,-45.34563 -29.01729,-50.28 l -2.59441,-4.44 -5.852,-0.0662 c -13.98739,-0.15819 -78.24399,0.0582 -78.44998,0.26417 -0.31042,0.31042 5.09012,7.73808 9.45356,13.00202 24.31853,29.33723 58.47467,49.21703 95.68862,55.69335 10.23483,1.78117 20.0158,2.67477 20.0158,1.82867 z m 32.42835,-1.38999 c 42.31294,-6.50322 80.00603,-29.82218 105.73809,-65.41525 1.40092,-1.93777 2.45077,-3.61957 2.33301,-3.73734 -0.11777,-0.11776 -19.0717,-0.21522 -42.11985,-0.21657 -33.6281,-0.002 -42.01769,0.11997 -42.47255,0.61734 -0.31174,0.34088 -3.05098,4.93979 -6.08718,10.21979 -7.61609,13.24447 -15.02566,26.08864 -25.52666,44.24931 -4.91327,8.49712 -8.93321,15.60071 -8.93321,15.78576 0,0.545 8.76464,-0.22682 17.06835,-1.50304 z M 313.79897,462.6 c 0.76509,-1.386 4.26721,-7.488 7.78248,-13.56 3.51527,-6.072 8.81786,-15.252 11.78354,-20.4 2.96568,-5.148 7.76132,-13.464 10.65699,-18.48 l 5.26484,-9.12 -18.64341,-0.12557 c -10.25387,-0.0691 -27.05466,-0.0691 -37.33507,0 l -18.69166,0.12557 5.54857,9.6 c 3.05171,5.28 8.78564,15.216 12.74206,22.08 3.95642,6.864 7.88956,13.668 8.74032,15.12 0.85075,1.452 3.44961,5.934 5.77525,9.96 2.32563,4.026 4.39865,7.32 4.60672,7.32 0.20806,0 1.00428,-1.134 1.76937,-2.52 z M 176.2827,435.84133 c 3.03064,-0.93607 6.48683,-3.00275 10.19565,-6.09663 l 1.84046,-1.53531 -2.3594,-2.72067 C 170.02983,407.12003 159.12205,388.77418 151.92,368.23764 l -2.4,-6.84357 -1.66687,0.30477 c -3.18509,0.58234 -8.76419,3.72515 -11.57771,6.52192 -5.85241,5.81756 -7.06341,10.80717 -7.38291,30.41924 -0.14974,9.1919 -0.43746,14.42616 -0.91029,16.56 -0.38024,1.716 -0.54979,3.25545 -0.37678,3.421 0.17301,0.16555 1.50256,0.68198 2.95456,1.14763 3.43383,1.10121 9.22848,4.02312 17.28,8.7133 13.77436,8.02386 20.58555,9.78622 28.4427,7.3594 z m 283.72802,0.21451 c 3.40424,-0.85895 11.67918,-4.81095 17.58928,-8.4004 5.50766,-3.34504 13.64784,-7.3654 16.45238,-8.12569 1.26077,-0.34179 2.37768,-0.75948 2.48194,-0.92819 0.10426,-0.16872 -0.12768,-1.59709 -0.51547,-3.17416 -0.48874,-1.98785 -0.8293,-7.57896 -1.11015,-18.2274 -0.41179,-15.61286 -0.67891,-17.87183 -2.67979,-22.66056 -2.12237,-5.07958 -7.79827,-9.91227 -14.42724,-12.28402 l -3.39833,-1.21586 -1.08904,3.44022 c -3.27114,10.33331 -9.98182,24.97518 -16.05851,35.03763 -5.03821,8.34284 -12.93683,18.97526 -19.48573,26.22998 -1.06616,1.18106 -1.88257,2.28496 -1.81426,2.45311 0.268,0.65966 4.83671,4.32841 6.88511,5.52885 5.02875,2.94705 11.32773,3.80055 17.16981,2.32649 z M 256.98244,389.64 c -0.44121,-0.858 -6.41867,-11.28 -13.28324,-23.16 -11.75988,-20.35194 -22.24527,-38.52175 -24.60114,-42.63055 l -1.04959,-1.83055 -5.19056,9.03055 c -2.85481,4.9668 -8.25504,14.32255 -12.00053,20.79055 -18.18734,31.4074 -22.29738,38.58863 -22.29738,38.95894 0,0.22058 17.82555,0.40106 39.61233,0.40106 h 39.61232 z m 98.73388,0.23697 c 0.41597,-0.72434 2.45124,-4.23297 4.52282,-7.79697 2.07157,-3.564 5.31404,-9.18 7.20549,-12.48 3.18904,-5.56389 12.14109,-21.0602 22.46058,-38.88 2.36968,-4.092 5.68902,-9.85982 7.37631,-12.81737 l 3.06779,-5.37738 -7.40519,-12.86262 C 373.43599,265.77746 361.40855,244.95909 357.6432,238.56 L 354.96,234 312,233.87998 l -42.96,-0.12002 -7.44,12.8257 c -4.092,7.05413 -7.67495,13.26414 -7.96212,13.80002 -0.28716,0.53587 -6.20824,10.80232 -13.15797,22.81432 -14.39676,24.88357 -16.79991,29.08916 -16.79991,29.40031 0,0.12206 1.10984,2.14293 2.46631,4.49081 7.14671,12.37005 9.8167,16.99016 14.11762,24.42888 2.59487,4.488 8.20535,14.208 12.46774,21.6 4.26239,7.392 9.65287,16.734 11.97884,20.76 l 4.22905,7.32 43.01022,-0.003 43.01022,-0.003 0.75632,-1.31696 z M 339.36,367.56573 c -2.44632,-1.26207 -2.87844,-3.14631 -2.87926,-12.55515 l -7.4e-4,-8.58942 -2.86638,3.12815 c -7.0604,7.70518 -17.06613,13.45749 -27.52678,15.8252 -5.63419,1.27526 -14.348,1.36427 -19.52684,0.19945 -16.12503,-3.62683 -25.48882,-17.96883 -21.61661,-33.109 1.86348,-7.28616 5.75148,-13.68062 16.46942,-27.08668 7.45277,-9.32198 11.10603,-14.42643 12.95294,-18.09828 1.21166,-2.40889 2.89396,-7.46029 2.58684,-7.76741 -0.0903,-0.0903 -7.2468,-0.1653 -15.90338,-0.1667 -17.10752,-0.003 -18.23768,-0.15855 -19.3827,-2.67161 -0.88623,-1.94504 -0.63648,-3.43844 0.85402,-5.10671 L 263.92106,270 l 45.74428,-0.12264 c 31.144,-0.0835 46.23448,0.0392 47.28015,0.38425 4.02882,1.32964 4.07741,7.1859 0.0712,8.58248 -0.81398,0.28375 -3.60431,0.51591 -6.20075,0.51591 h -4.7208 l -0.12758,42.9492 -0.12757,42.9492 -1.2,1.19917 c -1.4718,1.47079 -3.67914,1.93406 -5.28,1.10816 z m -33.80784,-11.64185 c 12.93126,-3.28029 23.16098,-11.89129 29.04621,-24.45004 l 1.86159,-3.97253 0.0201,-19.87065 c 0.0111,-10.92886 0.0155,-21.76066 0.01,-24.07066 l -0.0101,-4.2 H 321.44293 306.4059 l -0.57475,3.11925 c -1.245,6.75689 -5.95646,14.68113 -16.72,28.12154 -10.5397,13.16088 -14.38036,19.44492 -15.52341,25.39921 -1.38473,7.21325 2.66894,15.23858 9.32947,18.47017 6.1191,2.96889 14.53193,3.5092 22.63491,1.45371 z M 338.6017,264.89062 C 337.29592,264.25701 336,262.0247 336,260.40901 c 0,-1.5708 2.35043,-4.06131 3.92308,-4.15689 3.6194,-0.21994 5.6189,0.83402 6.33782,3.34075 1.14433,3.99003 -3.59643,7.26914 -7.6592,5.29775 z M 445.24915,390.435 c -0.16146,-0.42076 -2.75408,-5.01076 -5.76138,-10.2 -5.52123,-9.52718 -15.77118,-27.2747 -24.16149,-41.835 -7.50767,-13.02858 -9.43253,-16.29382 -9.54062,-16.18423 -0.0565,0.0573 -3.64679,6.26023 -7.97833,13.78423 -4.33154,7.524 -9.99782,17.352 -12.59173,21.84 -2.59392,4.488 -5.1405,8.916 -5.65909,9.84 -0.51859,0.924 -2.57348,4.488 -4.56643,7.92 -7.28342,12.54258 -8.75008,15.11648 -8.75008,15.35583 0,0.13429 17.84311,0.24417 39.65136,0.24417 36.08522,0 39.62495,-0.0688 39.35779,-0.765 z m -273.3936,-7.395 c 0.85657,-1.452 3.54578,-6.096 5.97601,-10.32 11.69446,-20.3262 33.58769,-58.187 34.14187,-59.04286 0.70802,-1.09343 0.94791,-0.59615 -6.36649,-13.19714 -2.37526,-4.092 -7.302,-12.624 -10.94832,-18.96 -6.76979,-11.76348 -14.15686,-24.54096 -21.05027,-36.41084 l -3.86245,-6.65083 -1.43138,2.81083 c -2.5015,4.91225 -5.154,11.24876 -7.58178,18.11197 -13.1277,37.11132 -11.6511,79.54055 4.02787,115.73887 2.06568,4.76907 5.16743,10.95566 5.37926,10.72919 0.0871,-0.0931 0.8591,-1.35719 1.71568,-2.80919 z m 284.6295,-2.12376 c 8.29866,-17.72697 12.88726,-34.16569 14.94934,-53.55624 0.86517,-8.1355 0.73039,-25.27135 -0.26239,-33.36 -1.57964,-12.87007 -4.30941,-24.51503 -8.47956,-36.173 -2.57672,-7.20345 -8.16215,-19.43263 -8.64721,-18.93292 -0.33394,0.34404 -10.74003,18.15543 -13.82652,23.66592 -0.66541,1.188 -1.38284,2.232 -1.59427,2.32 -0.21144,0.088 -0.38444,0.38227 -0.38444,0.65393 0,0.49077 -1.51853,3.18946 -10.07554,17.90607 -2.45606,4.224 -5.75736,9.948 -7.33623,12.72 -1.57887,2.772 -4.36128,7.57446 -6.18314,10.67213 l -3.31247,5.63214 10.8779,18.84786 c 11.67184,20.22351 18.08605,31.34112 26.3131,45.60787 2.85446,4.95 5.28646,9 5.40446,9 0.11799,0 1.26863,-2.25169 2.55697,-5.00376 z m -312.8051,-29.6225 c 3.12526,-0.62765 3.08883,-0.52127 1.97996,-5.78236 -2.78032,-13.19136 -3.91658,-29.1582 -3.06796,-43.11138 0.46602,-7.66236 2.34205,-22.00717 3.32665,-25.43683 0.93494,-3.25665 0.72916,-3.71049 -1.94223,-4.2834 -3.79601,-0.8141 -10.05368,-0.64338 -13.2854,0.36244 -1.559,0.48522 -4.16754,1.78743 -5.79675,2.89381 -4.84524,3.29033 -6.97118,6.19295 -16.99032,23.19746 -2.13022,3.61542 -5.03786,7.97671 -6.46142,9.69176 l -2.588294,3.11826 3.014744,3.74825 c 1.6581,2.06154 3.90773,5.26025 4.99917,7.10825 5.63336,9.53826 8.3319,14.27988 8.3319,14.64004 0,0.21998 0.17719,0.47196 0.39376,0.55996 0.21657,0.088 0.9716,1.024 1.67784,2.08 1.8546,2.77306 6.47553,7.32567 8.8713,8.74012 4.73684,2.79663 11.31118,3.72395 17.53705,2.47362 z m 348.83293,-0.22669 c 3.89122,-1.15365 5.82043,-2.27972 9.08688,-5.30388 3.76411,-3.48488 6.16987,-6.87625 11.57947,-16.32332 4.72901,-8.25856 7.79256,-12.85897 10.38567,-15.59567 l 1.66363,-1.75581 -2.45943,-2.95529 c -2.91172,-3.49882 -4.17292,-5.44671 -10.09862,-15.59736 -6.51202,-11.15491 -9.48787,-14.88537 -14.5356,-18.2215 -4.42426,-2.92407 -11.61317,-3.94982 -18.2877,-2.60939 -3.00259,0.60301 -2.84795,0.18296 -1.7432,4.73517 0.68471,2.82136 2.3297,13.86623 2.85957,19.2 0.61704,6.21111 0.62938,23.43997 0.0216,30.24 -0.53141,5.94555 -2.0809,16.27174 -3.08348,20.54882 -0.53253,2.27182 -0.56898,3.07995 -0.14582,3.2334 3.60169,1.30607 11.02988,1.50984 14.75703,0.40483 z M 232.69995,277.68 c 21.24084,-36.71996 24.92778,-43.2042 24.74835,-43.52507 -0.27516,-0.49206 -78.34532,-0.40516 -78.64983,0.0875 -0.14426,0.23341 0.36357,1.46234 1.12851,2.73095 0.76494,1.26861 7.60248,13.10657 15.19455,26.30657 7.59206,13.2 15.85739,27.52798 18.36739,31.83995 l 4.56365,7.83995 1.90935,-3.27995 c 1.05015,-1.80397 6.78226,-11.70395 12.73803,-21.99995 z m 178.66408,15.84 c 2.72399,-4.752 6.71554,-11.664 8.87011,-15.36 2.15457,-3.696 7.01797,-12.12 10.80756,-18.72 3.78959,-6.6 8.5795,-14.90174 10.64423,-18.44831 2.06474,-3.54657 3.75407,-6.60711 3.75407,-6.80122 0,-0.41975 -78.67971,-0.40398 -78.93917,0.0158 -0.17677,0.28603 3.03732,5.9742 16.29245,28.83371 3.75049,6.468 10.45482,18.08267 14.89851,25.81038 4.4437,7.72771 8.22346,13.88371 8.39949,13.68 0.17602,-0.20373 2.54875,-4.2584 5.27275,-9.0104 z M 151.1386,257.87766 c 5.33124,-15.40699 12.21629,-29.12737 21.05601,-41.95998 3.26319,-4.73717 9.49058,-12.6759 13.29222,-16.94503 l 2.84682,-3.19691 -2.12682,-1.84712 c -4.99045,-4.33414 -9.3514,-6.25553 -15.01905,-6.61726 -6.3383,-0.40453 -11.12864,1.14493 -21.18778,6.85332 -12.73096,7.22459 -15.85487,8.83601 -19.13578,9.87094 -1.88332,0.59408 -3.47512,1.11399 -3.53733,1.15537 -0.0622,0.0414 0.21978,1.57233 0.62663,3.40212 0.52572,2.36433 0.81094,7.21544 0.98581,16.76689 0.27555,15.05012 0.88848,19.91333 3.09316,24.54215 1.66072,3.48675 5.06381,7.20665 8.29191,9.06384 2.74136,1.57716 7.45292,3.56742 8.4756,3.58027 0.48271,0.006 1.25344,-1.53255 2.3386,-4.6686 z M 481.2,260.19385 c 6.62549,-3.26161 10.70002,-8.30348 12.53342,-15.50892 0.56376,-2.21556 0.86991,-6.97683 1.1653,-18.12493 0.2928,-11.04768 0.60566,-15.94669 1.1616,-18.18938 0.41851,-1.68817 0.70214,-3.10334 0.63029,-3.14484 -0.0718,-0.0415 -1.42661,-0.46939 -3.01061,-0.95087 -3.01733,-0.91717 -11.24563,-5.02808 -16.56,-8.27351 -5.95547,-3.63693 -10.66162,-5.97374 -14.87036,-7.3838 -9.03441,-3.02681 -16.69156,-1.37398 -24.47326,5.28264 l -2.14361,1.83369 2.38361,2.74901 c 16.40868,18.92405 27.0384,36.95651 34.3423,58.25898 l 2.02605,5.90914 1.48763,-0.28342 c 0.8182,-0.15588 3.21564,-1.13409 5.32764,-2.17379 z M 267.8226,216.83643 c 2.49844,-4.28804 6.84005,-11.79243 9.64804,-16.67643 15.85761,-27.58154 25.69699,-44.6115 26.69289,-46.2 l 1.12851,-1.8 h -2.66494 c -1.46572,0 -4.76242,0.22704 -7.32602,0.50455 -30.72093,3.32542 -59.42092,15.18534 -83.62108,34.55539 -8.5836,6.8704 -19.12669,17.58417 -26.43217,26.86006 -2.23659,2.83984 -7.16783,9.90739 -7.16783,10.27308 0,0.15781 19.17,0.28531 42.6,0.28335 l 42.6,-0.003 4.5426,-7.79643 z m 81.6174,7.5582 c 0,-0.13495 -1.8018,-3.32095 -4.00399,-7.08 -2.2022,-3.75904 -7.36531,-12.66663 -11.4736,-19.79463 -4.10827,-7.128 -9.78365,-16.956 -12.61194,-21.84 -2.82829,-4.884 -6.02324,-10.446 -7.09989,-12.36 -1.07666,-1.914 -2.08901,-3.48 -2.24967,-3.48 -0.16066,0 -2.31817,3.51 -4.79445,7.8 -2.47629,4.29 -7.56364,13.092 -11.30523,19.56 -14.83005,25.63641 -21.34123,36.98889 -21.34123,37.20925 0,0.12691 16.848,0.23075 37.44,0.23075 20.592,0 37.44,-0.11041 37.44,-0.24537 z m 96.48,-0.058 c 0,-0.16687 -1.53966,-2.4599 -3.42146,-5.09563 -25.2783,-35.40583 -64.57204,-59.5535 -106.73854,-65.59535 -7.12382,-1.02075 -17.04,-1.9332 -17.04,-1.56796 0,0.10394 1.04984,1.947 2.33298,4.09566 1.28314,2.14866 7.68426,13.19466 14.2247,24.54666 6.54044,11.352 13.76785,23.88 16.0609,27.84 2.29305,3.96 5.31479,9.198 6.71497,11.64 l 2.54577,4.44 h 42.66034 c 23.46319,0 42.66034,-0.13652 42.66034,-0.30338 z M 199.71246,184.88346 c 16.40249,-14.69644 36.83073,-26.4863 58.91971,-34.00466 3.96076,-1.34811 3.99005,-1.37013 3.72211,-2.7988 -0.56339,-3.00406 -4.16105,-9.3859 -6.75143,-11.97628 -5.6367,-5.6367 -10.63581,-6.82373 -30.24285,-7.18109 -9.48738,-0.17291 -14.35757,-0.45728 -16.56,-0.96693 -3.94107,-0.91197 -3.83848,-0.91422 -3.84807,0.0843 -0.0183,1.901 -3.50921,9.23247 -8.9981,18.89734 -6.84641,12.0552 -8.75383,16.98898 -8.75383,22.6429 0,5.96951 2.0091,10.97812 6.61295,16.48579 0.96269,1.15168 1.8666,2.08905 2.00869,2.08302 0.1421,-0.006 1.89297,-1.47553 3.89082,-3.26559 z m 230.16485,1.46789 c 4.84544,-5.87545 6.92269,-10.76428 6.92269,-16.29263 0,-5.98801 -2.1448,-11.6229 -8.74827,-22.98368 -4.49892,-7.74006 -7.19047,-13.10639 -8.28332,-16.51504 -0.46553,-1.452 -0.98186,-2.78155 -1.14741,-2.95456 -0.16555,-0.17301 -1.705,-9.6e-4 -3.421,0.38202 -2.15505,0.48115 -7.27672,0.76232 -16.56,0.90911 -19.60092,0.30994 -24.59714,1.52188 -30.41924,7.37885 -2.79501,2.81174 -5.9369,8.38757 -6.52385,11.57771 l -0.30669,1.66687 5.42489,1.86227 c 21.02311,7.21686 40.49395,18.61474 57.74489,33.80283 1.848,1.62702 3.468,2.95808 3.6,2.9579 0.132,-1.6e-4 0.90479,-0.80641 1.71731,-1.79165 z M 278.16,145.71155 c 3.29317,-0.771 15.16949,-2.48122 20.16,-2.90309 14.36101,-1.214 32.04732,-0.18791 46.25284,2.68341 6.3551,1.28455 6.08438,1.35753 6.7209,-1.81192 0.83349,-4.15028 0.67458,-9.24361 -0.39652,-12.70939 -2.42318,-7.84069 -7.2783,-12.26203 -23.69098,-21.57433 -3.91257,-2.21992 -8.95481,-5.50318 -11.20498,-7.29611 l -4.09121,-3.259883 -2.47503,2.096063 c -3.39302,2.8735 -7.20616,5.38783 -13.99502,9.22812 -14.9539,8.45904 -19.78049,12.85715 -22.29227,20.31327 -1.11829,3.31957 -1.33156,9.47182 -0.46796,13.49868 0.59594,2.77873 0.77743,2.83619 5.48023,1.73518 z"
       id="path310" />
  </g>
</svg>
