<?xml version="1.0" encoding="UTF-8" standalone="no"?>
<svg
   width="200"
   height="200"
   style="overflow:visible"
   viewBox="0 0 200 200"
   version="1.1"
   id="svg23"
   sodipodi:docname="muladhara_chakra_with_background.svg"
   inkscape:version="1.2.1 (9c6d41e410, 2022-07-14)"
   xmlns:inkscape="http://www.inkscape.org/namespaces/inkscape"
   xmlns:sodipodi="http://sodipodi.sourceforge.net/DTD/sodipodi-0.dtd"
   xmlns="http://www.w3.org/2000/svg"
   xmlns:svg="http://www.w3.org/2000/svg">
  <defs
     id="defs12648" />
  <sodipodi:namedview
     id="namedview25"
     pagecolor="#ffffff"
     bordercolor="#000000"
     borderopacity="0.25"
     inkscape:showpageshadow="2"
     inkscape:pageopacity="0.0"
     inkscape:pagecheckerboard="0"
     inkscape:deskcolor="#d1d1d1"
     showgrid="true"
     inkscape:zoom="3.0652721"
     inkscape:cx="84.821181"
     inkscape:cy="126.90554"
     inkscape:window-width="1920"
     inkscape:window-height="1009"
     inkscape:window-x="-8"
     inkscape:window-y="-8"
     inkscape:window-maximized="1"
     inkscape:current-layer="svg23">
    <inkscape:grid
       type="xygrid"
       id="grid432"
       originx="-194.868"
       originy="-39.866736" />
  </sodipodi:namedview>
  <g
     transform="matrix(0.55396354,0,0,0.55396354,-179.05737,-42.299378)"
     data-uid="o_f2gb2gem6_86"
     id="g21">
    <path
       opacity="0.1"
       data-type="circle"
       data-cx="256.001"
       data-cy="256"
       data-r="182.701"
       d="m 503.74682,256.87499 m -180.51729,0 a 180.5173,180.47482 0 1 0 361.03459,0 180.5173,180.47482 0 1 0 -361.03459,0"
       data-uid="o_f2gb2gem6_49"
       id="path11"
       style="fill:#e583a1;fill-opacity:0.795918;stroke-width:1" />
    <path
       opacity="0.2"
       data-type="circle"
       data-cx="256.001"
       data-cy="255.999"
       data-r="162.926"
       d="m 503.98512,257.11555 m -162.46557,0 a 162.46557,162.40858 0 1 0 324.93112,0 162.46557,162.40858 0 1 0 -324.93112,0"
       data-uid="o_f2gb2gem6_50"
       id="path13"
       style="fill:#e583a1;fill-opacity:0.803571;stroke-width:0.999998" />
    <path
       opacity="0.2"
       data-type="circle"
       data-cx="256.001"
       data-cy="255.999"
       data-r="162.926"
       d="m 503.9851,257.11555 m -144.41383,0 a 144.41384,144.37584 0 1 0 288.82767,0 144.41384,144.37584 0 1 0 -288.82767,0"
       data-uid="o_f2gb2gem6_50"
       id="path13-5"
       style="overflow:visible;fill:#e583a1;fill-opacity:0.803571;stroke-width:1" />
    <path
       opacity="0.3"
       data-type="circle"
       data-cx="256.001"
       data-cy="256"
       data-r="128.997"
       d="m 503.98511,256.84729 m -126.36211,0 a 126.36211,126.36211 0 1 0 252.72422,0 126.36211,126.36211 0 1 0 -252.72422,0"
       data-uid="o_f2gb2gem6_51"
       id="path15"
       style="fill:#e583a0;fill-opacity:0.803571;stroke-width:0.999999" />
  </g>
  <g
     id="g188"
     transform="matrix(0.12658228,0,0,0.12659657,-180.2158,27.19575)"
     style="fill:#db587f;fill-opacity:1;stroke-width:7.89955">
    <g
       id="g879"
       transform="translate(1563.7048,-74.857851)"
       style="fill:#db587f;fill-opacity:1;stroke-width:7.89955">
      <path
         style="fill:#db587f;fill-opacity:1;stroke-width:7.89955"
         d="m 644.18895,1122.7523 c -1.27107,-0.6118 -4.07151,-4.0689 -6.22319,-7.6824 -11.56521,-19.4223 -31.25202,-32.7396 -86.46576,-58.4905 -53.16483,-24.7953 -75.965,-38.0422 -97.18194,-56.463 -29.86758,-25.93125 -43.5557,-58.29323 -40.33668,-95.36552 0.57002,-6.56472 1.54016,-13.93647 2.15587,-16.38167 0.61571,-2.4452 0.89861,-4.66668 0.62867,-4.93662 -0.26994,-0.26994 -4.47934,0.20474 -9.35422,1.05485 -11.90927,2.0768 -33.78577,2.07238 -43.86174,-0.009 -24.30651,-5.02065 -45.77794,-18.22382 -64.54281,-39.68855 -16.92714,-19.36259 -31.803,-44.88548 -53.52812,-91.83957 -10.50629,-22.70704 -22.98382,-47.1762 -28.9198,-56.71342 C 206.06129,679.37022 194.70722,667.23108 183.9561,661.37959 178.26988,658.28476 176,654.89092 176,649.48392 c 0,-5.28747 1.14858,-6.74625 9.32346,-11.84142 18.38783,-11.46063 32.24545,-31.661 54.97842,-80.1425 23.3567,-49.81168 28.85332,-60.27497 42.38683,-80.68685 23.66301,-35.68968 48.30983,-54.39855 80.81129,-61.34211 10.84882,-2.31773 32.08536,-2.35549 43.86321,-0.078 4.87477,0.94264 9.08121,1.49588 9.34766,1.22943 0.26645,-0.26645 -0.033,-2.878 -0.66543,-5.80346 -2.17844,-10.07678 -3.08803,-26.26462 -2.04239,-36.34838 3.49573,-33.7118 20.04547,-60.35019 52.49695,-84.49885 18.22691,-13.5635 47.66147,-29.77162 83.5,-45.97922 20.41884,-9.23421 47.22817,-23.26975 58,-30.36486 12.97625,-8.5471 23.74676,-18.84676 29.70669,-28.40802 5.0116,-8.0399 6.50627,-9.21967 11.68052,-9.21967 5.76063,0 8.48555,1.93483 12.59254,8.94133 11.10116,18.93855 34.8404,34.65862 91.52025,60.60451 50.70166,23.2093 78.08383,40.0574 99.04785,60.94361 15.74614,15.68769 25.3903,31.84611 30.63938,51.33512 2.92935,10.87621 3.64445,36.07805 1.39228,49.06763 -0.89564,5.16571 -1.44337,9.57727 -1.21718,9.80346 0.22619,0.22619 4.39969,-0.36845 9.27446,-1.32142 11.69548,-2.28637 32.90468,-2.23833 43.86321,0.0993 22.74629,4.85224 39.5108,14.31294 57.5,32.44891 11.1158,11.20649 18.2746,20.50537 28.7581,37.35488 7.9254,12.73811 23.722,43.53575 34.223,66.72263 8.6564,19.11378 23.0398,46.61824 29.5437,56.49427 7.6057,11.54911 19.1351,23.52843 27.9065,28.99535 7.5631,4.71387 9.5687,7.40412 9.5687,12.83493 0,4.63669 -2.0439,6.9767 -11.5777,13.25523 -17.9,11.78807 -31.0642,31.61565 -54.831,82.58517 -25.6748,55.06117 -37.5044,75.74778 -55.6611,97.33505 -16.46169,19.57196 -35.44301,32.44402 -57.75345,39.16511 -11.5876,3.4908 -36.56609,4.42673 -51.06895,1.91353 -5.16571,-0.89516 -9.56631,-1.45346 -9.77911,-1.24066 -0.2128,0.21279 0.30119,4.33275 1.1422,9.15545 1.97586,11.3304 1.98055,32.90582 0.009,43.29677 -6.26869,33.04584 -28.77901,61.4861 -67.98031,85.88853 -15.19123,9.4563 -39.16487,21.8605 -64,33.1141 -16.49717,7.4754 -47.741,23.3349 -55.72391,28.2857 -17.07737,10.591 -27.56019,20.1973 -35.0533,32.1221 -2.31571,3.6853 -5.24685,7.1728 -6.51364,7.75 -2.92289,1.3317 -8.03239,1.2398 -11.0202,-0.1983 z m 14.55775,-39.8141 c 16.27519,-15.4058 33.88395,-25.6063 88.19786,-51.0916 68.98693,-32.37024 93.28985,-50.2651 107.95577,-79.49059 6.54813,-13.04876 8.42466,-22.85465 7.81853,-40.85601 -0.63148,-18.75398 -2.73675,-28.51614 -5.26683,-24.42238 -1.57188,2.54335 -22.12392,18.05971 -35.95203,27.14302 -42.41774,27.86306 -93.62486,45.56773 -143.80447,49.71985 -84.39832,6.98356 -167.27577,-19.10097 -230.14566,-72.43515 -3.68641,-3.12728 -6.82683,-5.53283 -6.97869,-5.34566 -1.0129,1.24841 -2.85579,11.90529 -3.5083,20.28747 -2.69455,34.61431 10.06038,60.52001 41.43712,84.16019 16.29328,12.27586 35.20182,22.72146 74,40.87976 52.71017,24.6693 73.7135,36.8645 88.95457,51.6499 4.42499,4.2926 8.20968,7.8179 8.41043,7.8339 0.20075,0.016 4.19752,-3.5987 8.8817,-8.0327 z M 686.5,940.00882 c 51.36041,-6.91809 96.92652,-25.57201 139.75,-57.21107 3.7125,-2.74288 6.75,-5.39041 6.75,-5.88338 0,-0.5252 -76.08113,-0.89291 -183.75,-0.88809 l -183.75,0.008 4.42799,3.73275 c 5.17385,4.3615 5.14178,4.3387 20.65161,14.68331 37.59689,25.07604 85.78361,42.11794 131.49562,46.50526 11.69737,1.12268 53.63602,0.50621 64.42478,-0.947 z m -282.06258,-78.4655 c 4.18735,-0.80117 8.09272,-1.75293 8.6786,-2.11502 0.64996,-0.4017 -0.26076,-2.07543 -2.33609,-4.29333 C 392.42436,835.5185 369.06935,797.06484 356.98776,766.56701 341.85115,728.35727 335.00008,692.17279 335.01197,650.5 c 0.0107,-37.36236 5.38134,-70.34098 16.86307,-103.54759 12.41895,-35.91717 36.02953,-77.0378 58.5084,-101.89929 l 4.02071,-4.44688 -4.95208,-1.29432 c -8.1716,-2.1358 -24.96428,-3.24097 -34.40482,-2.26426 -29.51105,3.05317 -52.25574,19.58003 -74.97059,54.47548 -7.91111,12.15335 -19.5823,34.7475 -35.63057,68.97686 -22.43281,47.84694 -33.35299,66.18699 -49.2545,82.72113 l -6.46397,6.72113 7.90549,8.3516 c 8.57688,9.06087 17.0306,20.92135 25.27358,35.45855 5.27789,9.308 21.54016,42.43972 28.59006,58.24759 13.85794,31.07341 28.14732,55.93858 42.41104,73.80011 16.05179,20.10061 32.50852,31.0686 53.59221,35.71781 8.16455,1.80039 28.58893,1.81406 37.93742,0.0254 z M 939.5,860.01598 c 23.17347,-7.44235 40.37102,-21.83453 57.97287,-48.51598 11.46093,-17.37278 19.62333,-33.18961 43.09123,-83.5 16.3104,-34.9662 29.0419,-55.61927 43.2756,-70.20186 l 7.5177,-7.70185 -7.441,-7.79815 c -15.2525,-15.98469 -25.3373,-32.99283 -48.4012,-81.62894 -19.3105,-40.72116 -20.8766,-43.84969 -29.3338,-58.59789 C 997.53866,486.99936 986.59563,472.35844 976.60475,462.5 958.11706,444.25739 939.89744,436.72647 914.5,436.82956 c -9.97856,0.0405 -26.86766,2.23546 -28.34032,3.68318 -0.18717,0.18401 2.21838,3.35072 5.34566,7.03713 19.19355,22.62519 36.36736,50.53963 48.35254,78.59256 41.36258,96.81469 31.40909,209.17389 -26.25322,296.35757 -8.67619,13.11814 -24.11642,33.46218 -26.52704,34.95203 -2.79626,1.72818 -0.36389,2.66161 12.92238,4.95903 1.375,0.23776 9.25,0.30195 17.5,0.14266 12.25798,-0.23669 16.27961,-0.70059 22,-2.53774 z M 852.76371,649.75 853.02741,447 H 650.01371 447 V 650.00242 853.00484 L 649.75,852.75242 852.5,852.5 Z M 636.1007,773.25 C 634.48873,771.7375 627.88585,761.275 621.42764,750 614.96944,738.725 605.48122,722.20403 600.34272,713.28674 592.22684,699.20253 591,696.4646 591,692.43674 c 0,-3.93982 0.51103,-5.14777 3.4,-8.03674 l 3.4,-3.4 h 46.08422 46.08423 l 3.11409,2.78244 c 2.40334,2.14739 3.23581,3.8623 3.64738,7.51377 0.51023,4.52678 0.1315,5.43328 -8.76029,20.96756 -25.20421,44.03268 -35.24574,60.68713 -37.4684,62.14347 -1.33697,0.87602 -4.4646,1.59276 -6.95027,1.59276 -3.55309,0 -5.14607,-0.58799 -7.45026,-2.75 z m 17.78282,-50.7885 c 5.16093,-9.09029 9.16349,-16.74783 8.89456,-17.01675 -0.26892,-0.26892 -9.05509,-0.3665 -19.52482,-0.21685 l -19.03588,0.2721 9.56872,16.75 c 5.2628,9.2125 9.82639,16.74759 10.14131,16.74465 0.31492,-0.003 4.79517,-7.44286 9.95611,-16.53315 z M 586.5,765.01826 C 581.19772,762.39342 564.60717,745.52001 557.47658,735.5 543.42131,715.74935 537.16405,695.95729 538.34948,675 c 0.70355,-12.43824 2.49513,-19.66958 7.55643,-30.5 10.19413,-21.81391 29.62703,-36.04852 52.05913,-38.13337 11.14951,-1.03624 23.66904,1.80398 36.24919,8.22361 l 6.71422,3.42626 9.78578,-9.80735 C 658.44512,600.46121 662.0749,597.63316 668,594.7414 c 10.18924,-4.97289 19.35493,-6.95965 30.48237,-6.60739 L 707.5,588.41948 V 576.45974 564.5 l -82.66981,-0.5 -82.6698,-0.5 -2.58172,-2.42574 c -7.3955,-6.94871 -3.78209,-19.32069 6.11841,-20.94886 2.09161,-0.34397 50.75243,-0.4004 108.13516,-0.1254 l 104.33224,0.5 2.91776,3.26578 c 2.35795,2.63919 2.91776,4.17937 2.91776,8.02749 0,9.35815 -3.48453,11.53942 -19.5,12.20673 l -12,0.5 -0.27359,17.24543 -0.2736,17.24542 7.03441,6.63591 c 20.43781,19.27999 27.37808,46.96613 19.52939,77.90661 -6.03896,23.80626 -20.56458,47.2755 -43.94336,70.99987 -9.03447,9.16801 -11.75399,11.35667 -14.77057,11.88727 -9.61796,1.69177 -17.96675,-8.54273 -13.6526,-16.73625 0.63254,-1.20134 6.37004,-7.60909 12.75,-14.23944 6.37996,-6.63035 14.47005,-16.08035 17.97798,-21 7.95812,-11.16075 15.50141,-26.50274 18.12062,-36.85478 2.37318,-9.37967 2.65821,-24.53379 0.60639,-32.23985 -4.39752,-16.51587 -17.37122,-29.07899 -33.48836,-32.42854 -16.32517,-3.39279 -33.4106,6.43809 -43.62047,25.09901 -7.07964,12.93971 -13.76929,14.36449 -24.76428,5.27438 -2.62243,-2.16809 -8.24743,-5.70892 -12.5,-7.86851 C 613.69307,631.59804 613.23782,631.5 603,631.5 c -10.06122,0 -10.76414,0.14321 -16.82093,3.42713 -11.35771,6.15801 -19.57758,18.46962 -22.73501,34.0522 -2.56795,12.67336 -0.94109,23.54879 5.66411,37.86419 5.45892,11.83107 11.61594,20.09079 24.05347,32.268 C 603.56887,749.30093 604,749.89146 604,753.95723 c 0,5.2815 -2.44861,9.55323 -6.60719,11.52661 -4.20108,1.99355 -6.08822,1.91289 -10.89281,-0.46558 z M 712.26943,530.78817 c -1.22682,-0.59205 -3.1912,-3.06084 -4.36529,-5.48619 -2.0572,-4.2496 -2.07418,-4.56821 -0.4677,-8.77474 1.95619,-5.12218 5.32188,-7.63296 11.10592,-8.2849 8.46751,-0.95442 14.45764,4.35223 14.45764,12.808 0,3.38589 -0.62579,4.77545 -3.4,7.54966 -3.11585,3.11585 -3.88891,3.39434 -9.25,3.33232 -3.2175,-0.0372 -6.85376,-0.55209 -8.08057,-1.14415 z M 423.97858,649.84992 c 0.0104,-181.6896 -0.0152,-184.1268 -1.91425,-182.40814 -2.71681,2.45868 -16.2069,21.84004 -22.84352,32.81954 -22.11765,36.59101 -36.11879,79.37143 -40.33347,123.23868 -1.44402,15.02964 -0.57061,53.11183 1.54359,67.30355 1.93068,12.95987 5.85481,30.53152 9.73793,43.60499 8.7454,29.44352 26.7969,65.31492 44.26305,87.95819 3.33745,4.3267 6.68548,8.7142 7.44006,9.75 0.75459,1.0358 1.53489,1.88327 1.73401,1.88327 0.19912,0 0.36679,-82.86754 0.3726,-184.15008 z M 883.77013,824.75 c 30.79613,-41.222 49.05995,-86.29492 56.42494,-139.25 1.70049,-12.22669 1.68294,-57.02141 -0.0276,-70.5 -5.93507,-46.76616 -23.72729,-93.5852 -49.52907,-130.3324 -2.27611,-3.24167 -4.81338,-6.88792 -5.63838,-8.10278 -0.825,-1.21487 -3.17575,-4.20144 -5.22389,-6.63683 l -3.72389,-4.42799 -0.0312,184.25 c -0.0172,101.3375 0.16452,184.25 0.40371,184.25 0.23919,0 3.54461,-4.1625 7.34538,-9.25 z M 830.13649,420.38483 C 813.07543,405.7812 783.59176,388.78889 756.58591,377.99546 735.70794,369.65115 709.74954,362.92314 686.5,359.83029 c -13.34665,-1.77549 -59.65335,-1.77549 -73,0 -50.98239,6.78212 -97.94102,25.97483 -139.24199,56.91033 -3.98309,2.98345 -7.49921,5.84063 -7.81359,6.34931 -0.34933,0.56523 71.06302,0.91601 183.65403,0.90209 l 184.22562,-0.0228 -4.18758,-3.58442 z m -385.11381,-9.91216 c 0.74701,-0.90008 5.885,-5.12465 11.41776,-9.38791 34.20838,-26.35927 73.27886,-45.70703 113.28875,-56.10077 27.74021,-7.20634 50.52156,-9.99156 81.57528,-9.97328 47.63142,0.028 91.69734,10.01762 134.19553,30.4217 25.86456,12.41799 54.08002,30.7924 69.63497,45.34752 2.2179,2.07533 3.89163,2.98605 4.29333,2.33609 1.72643,-2.79343 3.57099,-17.51703 3.56469,-28.45399 -0.0246,-42.72864 -24.02953,-71.0615 -86.99299,-102.6773 -5.775,-2.8998 -23.325,-11.29914 -39,-18.66519 -43.87043,-20.61576 -63.3535,-32.15387 -78.49256,-46.48426 l -8.50744,-8.053 -8.32273,7.87816 C 626.05482,231.44839 602.3257,245.5784 564,262.915 c -18.80716,8.50741 -56.52975,27.5616 -66.5,33.59005 -34.00413,20.5604 -51.98333,41.25316 -58.60922,67.455 -1.81416,7.17403 -2.03487,10.37956 -1.64644,23.91228 0.51852,18.06489 2.1194,26.53855 4.748,25.13177 0.91968,-0.4922 2.28333,-1.63134 3.03034,-2.53143 z"
         id="path893" />
      <path
         style="fill:#db587f;fill-opacity:1;stroke-width:7.89955"
         d="m 642.84625,1120.25 c -1.39036,-1.5125 -3.58874,-4.55 -4.88527,-6.75 C 627.06876,1095.0178 604.6013,1080.1711 547.5,1053.7224 493.05529,1028.5042 468.25352,1013.3279 447.48826,992.52458 432.76733,977.77669 422.23253,959.93989 417.35202,941.5 c -2.35175,-8.88555 -2.64655,-11.83884 -2.64527,-26.5 9.9e-4,-11.34995 0.51089,-18.97525 1.63367,-24.43034 0.89772,-4.36169 1.46433,-8.09825 1.25911,-8.30346 -0.20521,-0.20521 -4.36155,0.40507 -9.23632,1.35619 -10.68539,2.08484 -33.83526,2.34865 -43.36321,0.49417 -21.74573,-4.2325 -41.19428,-15.06567 -58.5,-32.5855 C 286.1737,830.95328 269.35106,803.14254 244.78169,749.5 c -24.24862,-52.94226 -42.14455,-79.46368 -59.69377,-88.46505 -11.32665,-5.80967 -11.57402,-15.28631 -0.57082,-21.86761 20.83052,-12.45928 33.1817,-31.28738 65.01338,-99.10619 19.28147,-41.08003 31.99367,-62.81547 47.90297,-81.90493 17.54759,-21.05522 37.96876,-34.70157 61.06655,-40.80743 8.88061,-2.34757 11.84699,-2.64332 26.5,-2.64204 11.34995,9.9e-4 18.97525,0.51089 24.43034,1.63367 4.36169,0.89772 8.06804,1.49454 8.23633,1.32625 0.16829,-0.16829 -0.42853,-3.87464 -1.32625,-8.23633 -1.12278,-5.45509 -1.63268,-13.08039 -1.63367,-24.43034 -10e-4,-14.66831 0.29243,-17.60751 2.64577,-26.47652 5.15721,-19.43598 17.5752,-39.84658 32.88587,-54.05223 21.25524,-19.72119 43.97068,-33.44846 94.47603,-57.09322 62.12904,-29.08654 81.30634,-41.64921 93.32681,-61.13656 8.30476,-13.46351 16.19817,-13.3385 23.93993,0.37915 4.03409,7.14801 14.73773,17.61304 25.55725,24.98751 13.56581,9.24632 29.98545,17.94716 64.03794,33.93401 32.73451,15.36809 53.06765,25.99087 67.19996,35.10774 38.20183,24.64434 58.22186,50.63669 65.35392,84.85012 1.82812,8.76973 1.54267,32.18861 -0.52246,42.86321 -0.94307,4.87477 -1.5127,9.06519 -1.26583,9.31207 0.24687,0.24687 3.98343,-0.32635 8.30346,-1.27382 5.6887,-1.24764 12.40446,-1.71901 24.3546,-1.70941 14.53194,0.0117 17.65767,0.32082 26.20581,2.5918 19.6487,5.22005 36.04071,14.94817 51.79419,30.73817 20.751,20.79904 35.1171,44.18629 60.4922,98.47798 28.7254,61.45989 40.1185,78.70068 60.6941,91.84684 6.8936,4.4045 8.8137,6.96225 8.8137,11.74081 0,4.65181 -2.5673,7.90438 -9.2455,11.71319 -7.2795,4.15177 -13.0763,9.37597 -19.8201,17.86233 -11.2643,14.17502 -19.7045,29.20809 -36.5325,65.06964 -6.2542,13.32804 -14.4906,30.45951 -18.3031,38.06994 -31.1343,62.1501 -61.18175,91.88744 -101.87444,100.82311 -10.6322,2.33471 -33.68719,2.33696 -45.58757,0.004 -4.87477,-0.95547 -9.06132,-1.53911 -9.30346,-1.29698 -0.24213,0.24214 0.23662,4.20369 1.06389,8.80346 5.95405,33.10535 -0.27224,62.32271 -18.53453,86.97481 -18.35535,24.77775 -47.08512,45.00235 -97.86269,68.89125 -36.10023,16.9838 -61.76713,29.8076 -70,34.9736 -18.59811,11.6701 -30.82697,22.8836 -35.98802,33.0001 -2.78945,5.4678 -6.4397,8.0235 -11.45975,8.0235 -3.27837,0 -4.7224,-0.5922 -6.70598,-2.75 z m 15.88176,-36.2941 c 16.31327,-15.4418 36.28727,-26.9606 91.73932,-52.9051 64.34999,-30.1075 90.71474,-49.56831 104.6194,-77.2233 6.69021,-13.30616 8.38647,-21.04511 8.40082,-38.3275 0.0115,-13.86367 -1.42861,-26.16857 -3.4444,-29.43019 -0.58004,-0.93852 -3.50173,0.95818 -10.67094,6.92734 -21.53645,17.93151 -57.87637,39.4118 -83.37221,49.28078 -29.81571,11.54112 -57.01793,18.02262 -87.34603,20.81203 -16.82879,1.54781 -58.40261,0.64279 -72.65397,-1.58162 -36.13389,-5.63991 -66.31122,-15.16888 -96.5,-30.47141 -23.9563,-12.14331 -43.76416,-25.10396 -61.96816,-40.54689 -3.77512,-3.20253 -7.09928,-5.3226 -7.58461,-4.83727 -2.17378,2.17378 -4.15799,20.02855 -3.70588,33.34723 0.40363,11.89041 0.84866,14.66171 3.7326,23.24352 6.20227,18.45629 18.32896,34.11223 37.67192,48.63563 18.01206,13.52415 36.9607,23.82605 86.35413,46.94875 44.18668,20.6853 65.03972,33.357 79.96584,48.5928 3.00621,3.0686 5.64546,5.5793 5.865,5.5793 0.21954,0 4.22326,-3.6198 8.89717,-8.0441 z m 28.90762,-143.42747 c 43.1944,-5.91886 82.38392,-20.11747 118.62152,-42.97731 C 818.20099,890.01656 834.22007,878.053 834.7791,876.25 835.08819,875.25311 797.69004,875 650.08333,875 540.03064,875 465,875.36764 465,875.90688 c 0,1.31631 8.09077,7.83427 19,15.3065 41.25463,28.25716 86.99185,45.08159 136.62499,50.25747 16.89701,1.76207 50.74823,1.28599 67.01064,-0.94242 z M 408.2961,861.68824 c 3.18786,-0.79591 6.041,-1.692 6.34032,-1.99132 0.29931,-0.29932 -2.01448,-3.56038 -5.14176,-7.24679 -31.67894,-37.34287 -54.80775,-83.56446 -65.87853,-131.65448 -17.73898,-77.05575 -6.53351,-155.52673 32.06936,-224.57906 9.99147,-17.87261 26.38728,-41.21607 36.14769,-51.4651 2.26262,-2.37589 3.22082,-4.09749 2.61676,-4.70155 C 412.70103,438.30103 395.87024,436 384.82685,436 c -42.60439,0 -71.84947,24.45652 -102.83874,86 -2.35402,4.675 -10.96546,22.65975 -19.13653,39.96612 -21.78853,46.1482 -32.31446,63.79443 -47.76472,80.07524 -3.89298,4.10225 -7.0801,7.62289 -7.0825,7.82364 -0.002,0.20075 3.61547,4.1891 8.03971,8.86301 15.31473,16.17895 27.59541,37.46247 52.86822,91.62538 23.95025,51.32846 39.44498,75.54271 59.35455,92.75579 11.52338,9.96268 26.68466,17.15163 42.73316,20.26257 4.88863,0.94764 31.58397,-0.25736 37.2961,-1.68351 z m 530.5189,-0.60485 c 18.90587,-5.49583 35.18328,-17.16661 49.7187,-35.64796 13.7929,-17.53727 25.7554,-39.25306 48.821,-88.62631 21.0802,-45.12305 31.8706,-63.00974 47.9577,-79.49651 l 7.0132,-7.18739 -7.6214,-8.10152 C 1067.9574,624.22167 1059.6315,609.91357 1032.3193,552 1007.1828,498.69968 994.06328,477.51392 975.35622,460.01438 958.18115,443.94795 942.063,437.16345 919,436.29275 c -13.30937,-0.50246 -31.13918,1.44643 -33.33663,3.64388 -0.47119,0.47119 1.92121,4.14742 5.34181,8.20838 40.39666,47.95921 65.85285,108.57068 71.93527,171.27867 1.34141,13.82962 1.36971,47.17794 0.0515,60.72037 -6.22827,63.98617 -31.81793,124.39208 -73.36842,173.19051 -5.78115,6.7896 -5.67045,6.9885 4.85444,8.72157 3.8621,0.63595 7.472,1.32597 8.022,1.53339 0.55,0.20742 7.3,0.20683 15,-10e-4 10.43322,-0.28201 15.86364,-0.92017 21.315,-2.50484 z M 853.5,650 V 446.5 H 650 446.5 L 446.24355,649 c -0.14105,111.375 -0.0438,203.05951 0.21607,203.74336 0.37494,0.98662 42.44819,1.1931 203.75645,1 L 853.5,853.5 Z M 640.41867,774.90019 c -1.69474,-0.47848 -3.77603,-1.66426 -4.62509,-2.63508 C 634.94452,771.2943 624.64826,753.85 612.913,733.5 c -23.03454,-39.94399 -23.62007,-41.37644 -19.29661,-47.20711 1.13902,-1.53609 3.60379,-3.31869 5.47727,-3.96133 4.09874,-1.40594 80.89741,-1.74549 87.87721,-0.38853 5.93377,1.15361 9.02913,4.71544 9.02913,10.38985 0,3.57038 -1.89844,7.53268 -12.31077,25.69424 -33.01625,57.58815 -31.93667,55.94971 -37.68923,57.19977 -1.375,0.29879 -3.8866,0.15178 -5.58133,-0.3267 z m 13.97789,-51.66872 C 659.67845,714.00878 664,705.90878 664,705.23147 664,704.29735 659.18511,704 644.05902,704 c -10.96754,0 -20.1663,0.36456 -20.44167,0.81013 -0.27538,0.44557 2.10246,5.28307 5.28408,10.75 3.18163,5.46693 7.67523,13.20237 9.98579,17.18987 2.31055,3.9875 4.5846,7.25 5.05345,7.25 0.46885,0 5.174,-7.54584 10.45589,-16.76853 z m -69.56981,39.80416 c -6.40123,-4.27698 -21.1944,-19.97937 -27.65218,-29.35175 -7.09783,-10.3013 -12.76255,-22.64603 -15.8212,-34.47807 -2.22936,-8.62398 -2.45754,-11.15482 -2.04714,-22.70581 0.76746,-21.60079 7.13854,-36.96572 21.17071,-51.05668 13.48973,-13.54627 27.48555,-19.17564 45.02306,-18.10908 10.83932,0.65919 17.31187,2.47058 28.28035,7.91443 l 8.28035,4.10969 1.60598,-2.42918 c 0.8833,-1.33605 5.09998,-5.87003 9.37041,-10.07551 C 666.04888,594.0398 679.51139,588.73876 698,589.14894 l 10.5,0.23294 0.28267,-11.79911 c 0.1879,-7.84329 -0.1046,-12.26574 -0.87244,-13.19094 C 706.94059,563.22349 693.62489,563 624.98331,563 h -81.7718 l -3.02834,-2.8289 c -5.64516,-5.27336 -4.92101,-13.67586 1.54366,-17.91168 C 544.24682,540.60826 550.90886,540.5 650,540.5 c 100.58756,0 105.72006,0.0866 108.3775,1.82778 6.69107,4.38415 6.86675,14.7233 0.31803,18.71631 -2.6831,1.63599 -5.06257,1.94903 -14.83854,1.95217 -9.69212,0.003 -11.74472,0.26878 -12.25,1.58553 C 731.27314,565.45177 731,573.55223 731,582.5828 v 16.41923 l 6.65271,6.24898 c 19.66227,18.46906 27.18504,44.10268 21.34834,72.74386 -5.39738,26.48537 -20.92587,52.11048 -47.6941,78.70478 -9.00924,8.9507 -12.70873,10.61921 -18.35751,8.27941 -6.06275,-2.51127 -8.76774,-9.63702 -5.80604,-15.2948 0.62887,-1.20134 6.14158,-7.35926 12.25047,-13.68426 16.32798,-16.90562 26.19362,-30.97589 32.27347,-46.02811 13.09998,-32.43226 5.24935,-62.53516 -19.47515,-74.67662 C 707.05755,612.7738 705.47152,612.5 696,612.5 c -9.33274,0 -11.14428,0.30188 -16.29551,2.71551 -7.68582,3.60123 -16.35404,12.4181 -21.59245,21.96277 -2.30846,4.20613 -4.86797,8.2042 -5.6878,8.88459 -0.81983,0.6804 -3.61317,1.43296 -6.20742,1.67235 -4.4359,0.40933 -5.13448,0.1175 -11.72972,-4.89998 -3.8571,-2.93438 -10.3821,-6.91024 -14.5,-8.83524 -6.90996,-3.23021 -8.22057,-3.5 -17.00227,-3.5 -8.73121,0 -10.0647,0.27029 -16.18482,3.28057 -24.16381,11.88537 -32.13066,46.76968 -17.37357,76.07335 5.05471,10.03732 14.18737,21.74323 23.89506,30.62781 11.59821,10.6148 13.17774,15.79161 6.70917,21.98888 -4.38661,4.20264 -9.4765,4.3918 -15.20392,0.56502 z M 714.26969,530.56965 c -3.40422,-1.53496 -7.25964,-6.79788 -7.26595,-9.91852 -0.007,-3.24098 2.93359,-8.18289 5.91671,-9.94507 5.55861,-3.28355 13.96399,-1.74566 17.75228,3.24805 3.32814,4.38713 1.75495,12.40911 -3.05111,15.55816 -3.53862,2.31859 -9.50664,2.79122 -13.35193,1.05738 z M 424.98147,651.25 c -0.0139,-101.6125 -0.38041,-185.31405 -0.8145,-186.00345 -0.53627,-0.85166 -2.90331,1.55246 -7.38437,7.5 -41.18554,54.6641 -61.68986,118.90734 -59.44593,186.25345 1.16035,34.82521 6.38984,61.45309 18.46079,94 8.61042,23.21629 24.32541,52.07679 38.7769,71.21359 4.63615,6.13923 9.48303,11.78641 10.11608,11.78641 0.17395,0 0.30491,-83.1375 0.29103,-184.75 z M 881.7672,828.75 C 897.52562,808.81035 911.41947,784.5913 921.781,759 955.00646,676.93848 948.64733,582.43628 904.73315,505.65421 894.33407,487.47187 878.36512,465 875.84346,465 875.37956,465 875,548.25 875,650 c 0,111.04674 0.36533,185 0.9139,185 0.50264,0 3.13663,-2.8125 5.8533,-6.25 z m -45.78449,-404.5 c -0.01,-0.4125 -4.80322,-4.35 -10.6527,-8.75 C 761.46138,367.45777 680.84508,347.91311 601,361.11332 c -45.04591,7.44711 -88.31077,26.02207 -126.22443,54.19211 -5.89843,4.38257 -10.48438,8.35671 -10.19098,8.83144 0.65289,1.0564 371.42247,1.16934 371.39812,0.11313 z M 443.12756,413.32359 c 2.88107,-3.51917 21.89358,-18.02176 33.87244,-25.83764 37.73105,-24.61848 74.46345,-39.302 118.5,-47.36954 32.93745,-6.03417 75.20473,-6.02678 109,0.0191 54.03605,9.66685 105.80361,33.8603 147.37294,68.87442 5.38577,4.53647 7.58803,5.86228 8.17094,4.9191 3.67409,-5.9448 4.77131,-39.4345 1.66858,-50.929 -2.06235,-7.64029 -8.29446,-21.07866 -12.83762,-27.68192 C 843.52379,327.5406 832.0902,316.19824 821.74745,308.40716 804.68233,295.55218 784.09308,284.25599 743.57179,265.51645 694.55659,242.8488 675.19524,231.4941 658.0389,215.35466 L 650,207.79223 l -8.11985,7.63857 c -16.77889,15.78438 -33.738,25.71333 -86.88015,50.86522 -46.08701,21.81274 -62.3656,30.86307 -79.5,44.19923 -21.14985,16.46149 -34.44764,36.54134 -38.41614,58.00891 -1.55221,8.39671 -1.33663,25.78436 0.44647,36.00941 1.96859,11.28875 2.66742,12.38871 5.59723,8.81002 z"
         id="path891" />
      <path
         style="fill:#db587f;fill-opacity:1;stroke-width:7.89955"
         d="m 645.26144,1121.7846 c -1.2312,-0.594 -4.25574,-4.3165 -6.72118,-8.2721 -2.46544,-3.9556 -7.98309,-10.5291 -12.26144,-14.6078 -13.98946,-13.3365 -29.7767,-22.5235 -76.77668,-44.6784 -31.38888,-14.7961 -53.20352,-26.0804 -66.1559,-34.2212 -35.42554,-22.26535 -56.11049,-46.64791 -64.90315,-76.5051 -3.68997,-12.53 -4.49642,-33.57643 -1.91703,-50.0296 0.98971,-6.31301 1.60942,-11.66825 1.37715,-11.90052 -0.23227,-0.23228 -3.34302,0.22756 -6.91276,1.02185 -9.64938,2.14705 -32.02849,2.92523 -42.03729,1.46175 -36.47934,-5.33399 -65.75129,-28.56083 -92.62252,-73.49454 -7.86669,-13.15457 -19.25616,-35.54323 -31.01897,-60.97498 C 220.6925,696.35611 205.17889,673.10958 186.5121,661.47507 179.19795,656.91636 177,654.07431 177,649.17545 c 0,-3.89146 2.19517,-6.53032 8.29697,-9.97396 10.47151,-5.90975 21.43028,-17.6996 31.59343,-33.98937 7.65799,-12.27443 13.72487,-24.09403 28.20138,-54.94244 27.804,-59.24832 40.79198,-80.46985 62.29513,-101.78627 17.33902,-17.18845 30.953,-25.24478 52.61309,-31.13477 8.35263,-2.27132 37.64373,-2.54092 49.27153,-0.4535 4.27434,0.76733 8.04486,1.1218 8.37895,0.78771 0.33408,-0.33408 -0.18342,-5.42896 -1.15002,-11.32196 -2.13541,-13.01888 -1.62893,-37.24327 0.97977,-46.86089 6.03447,-22.24761 16.57316,-39.13269 35.20746,-56.40934 19.90297,-18.45289 45.50975,-33.74837 93.81231,-56.0361 57.24593,-26.41437 81.23287,-42.20813 91.95872,-60.5485 4.32715,-7.39909 6.70246,-9.50606 10.71673,-9.50606 4.88144,0 7.73637,2.1913 12.25761,9.40831 12.14187,19.3814 30.67404,31.6259 90.73294,59.94869 37.91526,17.88022 52.764,25.76961 69.834,37.10403 33.37839,22.16312 51.96534,45.41603 60.24098,75.36354 1.80708,6.53938 2.1218,10.41364 2.12631,26.17543 0.004,13.4893 -0.43192,20.39289 -1.60894,25.48873 -0.88782,3.84381 -1.42341,7.17955 -1.19019,7.41276 0.23322,0.23322 5.58923,-0.38572 11.90224,-1.37543 14.70093,-2.30469 37.34746,-1.69089 48.0296,1.30178 19.31539,5.41132 33.19925,13.33377 48.12231,27.4597 21.42799,20.28338 37.11969,45.23754 62.38669,99.21246 28.9828,61.91244 42.0701,81.92794 61.4789,94.02493 12.8036,7.9801 12.9432,15.21493 0.4346,22.52035 -7.0308,4.1062 -16.0652,12.56635 -22.9526,21.49376 -9.439,12.23464 -20.9962,33.72912 -38.6923,71.96096 -9.7384,21.03945 -22.4062,45.70244 -29.6142,57.65603 -23.52948,39.02074 -49.34314,61.22035 -81.48797,70.07923 -10.17811,2.80501 -40.64456,3.1187 -51.67543,0.53207 -3.85,-0.90279 -7.30917,-1.33226 -7.68705,-0.95438 -0.37788,0.37788 0.0482,3.83705 0.94687,7.68705 1.18508,5.07702 1.64103,11.9448 1.65975,25 0.0221,15.4204 -0.28955,19.18927 -2.17476,26.29852 -5.18274,19.54444 -14.89054,35.89672 -30.71679,51.74079 -20.51726,20.54039 -43.37438,34.70759 -95.28007,59.05609 -34.19821,16.0421 -54.46062,26.5036 -65.59863,33.8685 -12.06297,7.9766 -24.79296,20.2209 -29.62522,28.4948 -4.95526,8.4846 -9.60873,10.795 -15.76266,7.8259 z m 11.07752,-34.8856 c 16.59292,-16.7481 35.49168,-27.8716 93.38706,-54.9661 65.50371,-30.6553 91.14353,-49.5606 105.68202,-77.92397 9.36847,-18.27709 11.57177,-37.67682 6.92901,-61.00893 -0.82082,-4.125 -1.82966,-7.84972 -2.24188,-8.27716 -0.41222,-0.42744 -4.31477,2.20067 -8.67233,5.84025 -47.63994,39.7904 -105.35047,64.54989 -166.92284,71.61474 -14.31176,1.64213 -54.82341,1.61428 -69.5,-0.0478 -13.83716,-1.56701 -32.37517,-5.15649 -48,-9.29414 -41.00447,-10.85851 -88.74537,-36.09315 -119.88653,-63.36902 -3.67023,-3.21467 -6.76028,-5.22007 -7.26529,-4.71506 -2.12255,2.12255 -4.12494,16.30299 -4.20066,29.74818 -0.0654,11.60747 0.31152,15.45056 2.20538,22.48801 7.13529,26.5142 24.82853,46.79174 58.6471,67.2132 12.95874,7.8252 24.82847,13.9271 52,26.7318 61.22949,28.8546 78.63488,39.1462 95.46584,56.4482 3.00621,3.0903 5.65997,5.6188 5.89723,5.6188 0.23727,0 3.15142,-2.7455 6.47589,-6.101 z M 692,940.53305 c 23.16332,-3.66995 46.41275,-9.91294 66,-17.72248 13.25799,-5.28603 35.93067,-16.76741 47,-23.80067 11.57774,-7.3563 31,-21.76884 31,-23.00396 0,-0.66982 -58.72407,-1.08947 -175.75,-1.25594 -178.17703,-0.25345 -195.15277,-0.18057 -196.17562,0.84229 -1.4459,1.4459 23.10288,19.1348 40.42562,29.12912 34.23478,19.75171 74.50578,32.79675 115,37.25212 12.99699,1.43 60.31674,0.48982 72.5,-1.44048 z M 407,862.36918 c 4.125,-0.83849 7.82639,-1.83846 8.2253,-2.22216 0.39892,-0.38369 -2.45697,-4.51124 -6.34642,-9.17232 -38.1444,-45.71194 -62.44312,-101.14688 -70.41405,-160.64214 -3.59354,-26.82231 -2.93751,-63.65092 1.63354,-91.70525 8.99737,-55.22031 34.0896,-109.19128 70.7207,-152.11341 2.8098,-3.29236 4.75809,-6.33674 4.32954,-6.76529 -2.21169,-2.21169 -16.3844,-4.0879 -30.64861,-4.05731 -13.28491,0.0285 -16.0058,0.33487 -23.79659,2.67956 -20.56408,6.18888 -37.2438,18.74038 -53.21792,40.0465 -12.18767,16.2558 -21.29596,33.06454 -44.32098,81.7914 -22.88938,48.43984 -32.84631,65.16718 -48.54058,81.54672 l -7.91009,8.25548 6.24409,6.18625 c 17.06657,16.90848 27.95608,35.43528 55.70931,94.7807 26.63933,56.96356 43.04261,81.14438 66.78002,98.44351 9.53654,6.94995 26.72818,13.29244 40.55274,14.96108 5.89851,0.71196 23.08347,-0.40414 31,-2.01332 z m 529.77607,-0.43266 c 27.93859,-7.1197 49.62764,-27.16883 72.46253,-66.98356 4.2012,-7.32521 17.7242,-34.76475 28.561,-57.95296 21.1687,-45.29635 32.8386,-64.52706 48.9098,-80.59829 l 6.5732,-6.5732 -7.5547,-7.66425 c -15.3077,-15.52965 -28.0533,-36.6164 -47.2237,-78.12891 -19.2231,-41.62635 -29.2759,-60.81345 -40.73185,-77.74184 -18.25635,-26.97725 -37.17049,-42.14938 -60.39419,-48.44566 -6.32288,-1.71422 -10.7407,-2.13974 -22.37816,-2.15543 -13.84481,-0.0187 -27.99028,1.89786 -30.18164,4.08922 -0.44671,0.44671 1.47197,3.49109 4.26373,6.76528 29.53869,34.64308 52.81463,79.02174 64.35287,122.69724 7.38966,27.97193 9.86574,47.78319 9.96818,79.75584 0.0817,25.50763 -1.04898,39.66405 -4.59264,57.5 -3.38273,17.02596 -3.6614,18.20608 -7.26645,30.77181 -11.75955,40.98895 -32.75685,80.29764 -60.94778,114.09931 -3.61053,4.32911 -6.36726,8.19041 -6.12608,8.58065 0.5743,0.92924 9.97135,3.01193 18.36574,4.07045 9.38011,1.18282 24.84288,0.23259 33.94014,-2.0857 z m -83.06321,-8.31605 c 0.50012,-0.50011 0.51151,-406.72943 0.0114,-407.22952 -0.55868,-0.55868 -406.79887,-0.6497 -407.35729,-0.0913 -0.27472,0.27472 -0.46974,82.55717 -0.43338,182.8499 0.0364,100.29273 0.0662,191.90341 0.0663,203.57928 l 1.4e-4,21.22886 19.75,0.27114 c 30.36361,0.41685 387.49767,-0.14319 387.96286,-0.60839 z M 637.08523,772.25 c -1.62047,-1.5125 -7.9772,-11.525 -14.12604,-22.25 -6.14885,-10.725 -15.63011,-27.22579 -21.06946,-36.66841 -11.51903,-19.99686 -12.06433,-22.35699 -6.46024,-27.96108 l 3.4295,-3.4295 45.49074,0.2795 45.49074,0.27949 2.56446,2.40993 c 3.66567,3.4448 4.3438,8.37542 1.85268,13.47071 -5.15039,10.5345 -41.6098,72.37441 -43.84649,74.36936 -3.67879,3.28119 -9.50914,3.06243 -13.32589,-0.5 z m 17.90045,-49.12242 C 660.49356,713.57275 665,705.36025 665,704.87758 665,704.39491 655.55,704 644,704 c -14.39878,0 -21,0.34024 -21,1.08237 0,0.97248 4.37842,8.87061 16.20124,29.22508 2.17474,3.74409 4.36269,6.66909 4.8621,6.5 0.49941,-0.1691 5.41446,-8.12504 10.92234,-17.67987 z m -70.73328,38.9403 C 577.86573,757.4414 566.31539,745.43657 559.81311,736.66695 552.37273,726.63211 544.78693,711.12107 541.88084,700 c -2.88199,-11.02884 -3.09897,-29.12227 -0.4737,-39.5 2.35355,-9.30361 9.44543,-23.7699 14.78328,-30.15549 19.78412,-23.66747 48.0805,-29.27973 76.25222,-15.12375 l 8.90561,4.47498 10.07588,-10.13747 c 15.53982,-15.63482 25.61675,-20.0226 45.85359,-19.96594 l 11.77772,0.033 -0.27772,-13.06266 L 708.5,563.5 626.5,563 c -63.28101,-0.38586 -82.50192,-0.78712 -84.19872,-1.75774 -6.0221,-3.44484 -7.13746,-11.15566 -2.38331,-16.47648 L 542.83594,541.5 H 650 757.16406 l 2.91797,3.26578 c 4.75415,5.32082 3.63879,13.03164 -2.38331,16.47648 -1.2602,0.72087 -7.32094,1.47117 -14.19872,1.75774 l -12,0.5 -0.27371,17.90727 -0.27372,17.90727 7.57133,7.49805 c 8.53092,8.44835 14.41672,17.61865 18.21533,28.38016 2.22108,6.29237 2.63596,9.39055 2.98712,22.30725 0.36893,13.57018 0.16707,15.9354 -2.1177,24.81318 -6.30493,24.49864 -20.03596,46.82344 -43.59431,70.87841 C 702.48836,764.96054 702.43398,765 697.74064,765 c -3.7901,0 -5.34641,-0.56945 -7.97486,-2.91797 -2.75997,-2.46603 -3.26578,-3.60621 -3.26578,-7.36159 0,-4.31162 0.34502,-4.80147 11.61438,-16.49023 14.22418,-14.75355 23.08075,-26.40473 29.70899,-39.08341 9.4378,-18.05286 12.76605,-35.19666 9.73604,-50.15035 -3.72003,-18.35912 -14.73195,-31.25763 -30.87081,-36.15965 -18.19258,-5.52583 -36.60851,2.90699 -47.60228,21.7975 -1.87752,3.22614 -4.05002,6.91579 -4.82778,8.19923 -1.81883,3.00139 -7.77522,5.50459 -11.10789,4.66814 -1.41092,-0.35411 -5.28451,-2.70168 -8.60798,-5.21681 -7.89182,-5.97236 -18.62627,-11.04723 -26.18272,-12.37828 -16.25601,-2.86344 -32.42543,6.3447 -40.98384,23.33942 -8.73444,17.3443 -8.36176,35.50752 1.13483,55.30725 5.69746,11.87882 11.64779,19.75644 24.18807,32.02248 C 601.57427,749.25691 603,751.0999 603,753.89147 c 0,10.1311 -10.01786,14.5002 -18.7476,8.17641 z M 713.11007,529.60449 c -5.17862,-2.87029 -6.778,-11.21434 -3.05642,-15.94556 4.71476,-5.99385 16.1664,-5.62609 19.98822,0.64189 3.42624,5.61922 1.96796,12.6085 -3.1869,15.27418 -3.42913,1.77327 -10.5711,1.7886 -13.7449,0.0295 z m -288.0736,144.29373 c -2.3e-4,-89.31902 -0.009,-173.08572 -0.0184,-186.14822 -0.0113,-14.91951 -0.3844,-23.75 -1.00341,-23.75 -3.28309,0 -25.17232,32.84695 -35.68687,53.55169 -31.79926,62.6175 -39.97377,131.18212 -23.90122,200.47421 7.03917,30.34733 22.24631,65.50915 39.88397,92.21936 8.07424,12.22751 19.55738,27.22019 20.28845,26.48912 0.24087,-0.24086 0.43775,-73.51714 0.43752,-162.83616 z M 885.31051,824.75 c 21.7334,-29.46277 36.95755,-60.03516 46.5135,-93.40611 6.87253,-24.00001 9.78194,-41.51977 11.01675,-66.34015 2.9344,-58.983 -11.08708,-115.4413 -41.10301,-165.50374 -9.44153,-15.74718 -25.21219,-37.3589 -26.39712,-36.17397 -0.30735,0.30736 -0.57414,265.53139 -0.36406,361.92397 0.0142,6.52678 0.41862,10.75 1.02937,10.75 0.55326,0 4.74032,-5.0625 9.30457,-11.25 z M 676.08179,425 c 88.50501,0 160.90477,-0.3375 160.88834,-0.75 -0.0407,-1.02284 -18.46305,-14.68852 -29.32561,-21.75375 C 788.24843,389.88064 759.11927,376.39413 736.3095,369.46884 706.0581,360.28419 681.88081,356.7102 650,356.7102 c -48.41827,0 -90.10033,10.03475 -133.49144,32.13741 C 496.64635,398.96507 464,420.81854 464,423.99684 c 0,0.84726 45.96239,2.01041 49.83179,1.26107 C 514.56427,425.11606 587.57677,425 676.08179,425 Z M 446.8461,410.63668 c 21.77862,-19.3425 56.88053,-40.55623 87.1539,-52.6712 54.57237,-21.83907 119.38643,-27.67242 177.6429,-15.98808 47.82216,9.59155 96.44291,32.27722 133.36749,62.22716 11.18393,9.0714 14.63084,11.49056 15.34382,10.76881 C 862.1337,413.17195 864.27727,396.92373 864.3085,385 864.36,365.33437 860.62797,352.5089 850.25686,336.71009 835.38344,314.0527 806.57774,294.18928 752,268.95553 695.09961,242.64791 675.92043,231.57255 658.75138,215.10743 L 650,206.71486 l -8.75,8.43152 c -15.01301,14.46656 -36.45386,27.36771 -76.25,45.88032 -47.04781,21.88599 -71.06007,34.85603 -87.06198,47.02586 -27.5188,20.9287 -40.41137,42.37407 -42.51865,70.72507 -0.99903,13.44074 2.25005,36.22237 5.16597,36.22237 0.74134,0 3.55869,-1.96349 6.26076,-4.36332 z"
         id="path889" />
      <path
         style="fill:#db587f;fill-opacity:1;stroke-width:7.89955"
         d="m 647.5,1122.2808 c -3.02759,-0.7376 -5.15201,-2.9992 -8.61478,-9.171 -4.53124,-8.0762 -16.71301,-19.6041 -29.92649,-28.3202 -11.51763,-7.5974 -35.02667,-19.8442 -61.95873,-32.2769 -49.47476,-22.839 -75.61695,-38.5851 -95.25859,-57.37661 -17.72047,-16.95351 -28.04568,-33.55294 -33.40721,-53.70747 -2.31193,-8.69075 -2.64861,-11.92345 -2.70045,-25.92862 -0.0425,-11.487 0.43896,-18.49998 1.70698,-24.86321 0.9714,-4.87477 1.53318,-9.09621 1.24841,-9.38099 -0.28478,-0.28478 -4.69634,0.32656 -9.80346,1.35853 -14.29854,2.88923 -37.13859,2.48126 -49.90456,-0.89139 C 318.99757,871.18608 289.56177,840.30954 258.56801,776.5 c -3.74007,-7.7 -9.3896,-19.625 -12.55451,-26.5 -25.18326,-54.70447 -41.28876,-78.8015 -59.55952,-89.11288 -7.01085,-3.95668 -8.90853,-6.26594 -8.90853,-10.84068 0,-4.82325 0.85906,-5.80042 11.07543,-12.59816 9.49404,-6.31711 17.44862,-14.93952 26.08785,-28.27804 3.08859,-4.76863 6.34565,-9.79524 7.23792,-11.17024 2.4278,-3.74128 16.46199,-32.23283 30.04699,-61 14.01834,-29.68479 21.11174,-42.74616 32.58495,-60 21.54837,-32.40525 44.89676,-50.93336 73.92141,-58.66034 8.9093,-2.37185 11.79966,-2.66204 26.5,-2.6606 11.45359,0.001 18.934,0.50666 24.45832,1.65295 4.37708,0.90824 8.31084,1.29883 8.74168,0.86799 0.43084,-0.43084 0.0403,-4.3646 -0.86799,-8.74168 -1.14629,-5.52432 -1.65183,-13.00473 -1.65295,-24.45832 -10e-4,-14.64155 0.2956,-17.62633 2.6372,-26.5 8.13651,-30.83397 29.8528,-56.40893 67.68374,-79.7102 15.31733,-9.43442 30.23715,-17.15456 59.5,-30.78777 60.14905,-28.02273 79.33226,-40.42044 91.99858,-59.45674 6.7444,-10.13621 7.72956,-10.99984 12.54786,-10.99984 4.38554,0 7.26495,2.18836 10.04405,7.6335 3.22639,6.32154 11.52607,15.416 20.13462,22.06272 15.79826,12.19795 27.83301,18.81753 72.13256,39.67567 17.40646,8.19571 37.60931,18.15359 44.89522,22.12862 51.30609,27.99144 76.71498,55.84108 85.3531,93.55203 2.45476,10.71662 2.43444,33.34989 -0.0415,46.20504 -0.98548,5.11667 -1.56659,9.52822 -1.29136,9.80346 0.27524,0.27523 4.48887,-0.29436 9.36364,-1.26576 6.36323,-1.26802 13.37621,-1.74949 24.86321,-1.70698 14.02341,0.0519 17.23247,0.38701 25.97652,2.7126 36.36736,9.67233 64.2513,36.75715 92.2986,89.65365 3.3538,6.325 11.7799,23.65 18.7248,38.5 20.8733,44.63268 29.6594,60.4819 41.7219,75.26238 6.7353,8.25289 12.5237,13.38145 20.0642,17.77699 3.426,1.99708 5.8298,4.28546 7.0096,6.67303 2.8175,5.7017 0.7951,9.27753 -8.5368,15.09383 -14.0332,8.74651 -26.2087,24.14075 -41.1788,52.0647 -2.0259,3.77902 -9.0907,18.40402 -15.6995,32.5 -29.1803,62.23946 -43.5729,85.85754 -65.03172,106.71657 -16.83147,16.36103 -32.58743,25.21497 -53.44679,30.034 -10.73858,2.48088 -33.32448,2.46055 -46.20504,-0.0416 -5.11667,-0.99395 -9.5553,-1.55491 -9.86364,-1.24658 -0.30833,0.30834 0.16074,4.52197 1.04238,9.36364 7.17929,39.42625 -2.21136,71.49532 -29.1263,99.46641 -18.96152,19.70553 -44.49581,36.21483 -86.59025,55.98513 -73.52507,34.5321 -93.04847,46.8686 -105.31213,66.5448 -3.38801,5.4359 -5.63641,7.9475 -7.99786,8.9342 -1.80672,0.7549 -3.41189,1.3203 -3.56705,1.2565 -0.15517,-0.064 -1.18212,-0.3353 -2.28212,-0.6032 z m 10.73028,-36.8155 c 8.04365,-7.5669 21.52327,-17.469 31.76972,-23.3379 9.84317,-5.638 35.99947,-18.6464 59.5,-29.5913 48.38112,-22.5325 72.62335,-37.47609 89.56858,-55.21245 11.96594,-12.52462 18.88758,-24.19204 23.15562,-39.03216 2.99727,-10.42162 3.23258,-34.65249 0.45196,-46.54149 -0.99692,-4.2625 -2.23411,-7.75 -2.74931,-7.75 -0.51521,0 -5.99701,4.09947 -12.18179,9.10994 -48.0278,38.90868 -106.31975,62.95316 -167.24506,68.98585 -16.26348,1.61037 -47.94296,1.37714 -65,-0.47854 -58.70673,-6.38688 -115.16706,-29.85005 -161.55408,-67.13688 -14.64985,-11.77585 -13.83325,-11.25233 -14.89533,-9.54928 -2.20374,3.53374 -3.54798,15.45889 -3.50217,31.06891 0.047,16.01143 0.14689,16.78851 3.37414,26.24352 4.22031,12.36445 10.99413,23.37596 20.77732,33.77555 18.63021,19.80403 40.47057,32.95463 104.30012,62.80153 43.65372,20.4126 63.2691,32.2951 78,47.2502 3.575,3.6294 6.88719,6.6733 7.36043,6.7641 0.47324,0.091 4.46467,-3.2255 8.86985,-7.3696 z m 28.69211,-143.92766 c 42.44978,-5.50764 82.64913,-19.94298 119.04353,-42.7478 12.7317,-7.97771 31.15935,-21.91402 30.71986,-23.23254 -0.49019,-1.47062 -371.64783,-1.99525 -373.11568,-0.5274 -1.39688,1.39688 5.01379,6.78143 20.57064,17.27803 41.82779,28.22229 86.96406,45.01647 133.35926,49.61996 6.05,0.6003 12.575,1.27324 14.5,1.49542 7.06556,0.81549 43.83277,-0.44685 54.92239,-1.88567 z M 408.75,862.52789 c 3.9875,-0.92851 7.25,-2.15947 7.25,-2.73548 0,-0.57601 -3.08233,-4.70244 -6.84962,-9.16985 -26.45371,-31.36993 -48.88105,-73.27198 -60.1454,-112.37246 -13.10421,-45.48697 -15.9796,-93.58682 -8.3841,-140.2501 8.6667,-53.24421 33.61713,-107.31537 68.86744,-149.24564 3.58142,-4.26011 6.51168,-8.18904 6.51168,-8.73095 0,-0.54192 -1.2375,-1.26255 -2.75,-1.60141 -1.5125,-0.33886 -4.325,-1.04188 -6.25,-1.56228 -5.86128,-1.58451 -28.88247,-2.21193 -36.62258,-0.9981 -26.82256,4.20638 -48.64264,20.32251 -69.32345,51.20173 -10.16999,15.18516 -18.06797,30.22214 -37.74272,71.85842 -23.23883,49.17869 -34.06243,67.39226 -49.35572,83.05397 -3.82554,3.91771 -6.95553,7.59462 -6.95553,8.17092 0,0.5763 2.25649,3.0766 5.01443,5.55622 6.17597,5.55273 18.13563,21.29611 24.97772,32.88001 6.7923,11.49961 15.51833,28.96384 31.58681,63.21771 20.61087,43.93706 33.84583,65.97021 49.77027,82.85598 15.60362,16.54558 31.7902,25.78505 51.48163,29.38625 7.19875,1.31651 30.68557,0.40228 38.91914,-1.51494 z M 939,861.9508 c 18.84128,-5.51175 35.15194,-17.23943 50.69516,-36.4508 12.02464,-14.86241 26.63644,-41.45787 48.33924,-87.98378 6.1532,-13.19108 12.768,-26.91608 14.6996,-30.5 1.9316,-3.58392 5.102,-9.44122 7.0452,-13.01622 6.2183,-11.43991 17.3586,-27.0127 25.405,-35.51312 4.2987,-4.54128 7.8158,-8.49196 7.8158,-8.77929 0,-0.28732 -2.8481,-3.37657 -6.3292,-6.865 -16.9109,-16.9467 -25.6166,-32.06546 -58.4737,-101.54791 -30.25894,-63.98819 -53.26135,-91.36699 -85.95358,-102.30692 -8.17435,-2.73541 -11.67777,-3.33933 -21.75394,-3.74991 C 904.94209,434.60431 884,437.32897 884,439.9853 c 0,0.49021 4.6125,6.65655 10.25,13.70299 38.89323,48.61353 61.35002,103.52376 67.81248,165.81171 1.4922,14.38254 1.50241,45.85436 0.0198,61 -6.14507,62.77447 -32.3639,124.61088 -72.92855,172 -2.82477,3.3 -5.13995,6.53181 -5.14483,7.18179 -0.008,1.04806 8.92553,3.45353 17.49111,4.70977 1.65,0.24199 9.075,0.28547 16.5,0.0966 10.16698,-0.25859 15.35168,-0.88505 21,-2.53738 z m -85.38661,-8.0449 C 854.78719,852.93173 855,821.64947 855,650.07756 855,493.77279 854.72544,447.12544 853.8,446.2 c -1.74636,-1.74636 -405.85364,-1.74636 -407.6,0 -1.69068,1.69068 -1.75232,405.84768 -0.0621,407.53785 1.64664,1.64664 405.49327,1.81318 407.47554,0.16805 z m -213.7988,-80.00954 c -1.47698,-0.56098 -4.01795,-3.12966 -5.64659,-5.70816 -8.62723,-13.65882 -41.27612,-71.47878 -41.77771,-73.98675 -0.81245,-4.06224 1.98382,-9.04199 6.02562,-10.73076 2.58352,-1.07946 11.65905,-1.38514 42.59257,-1.43457 21.62023,-0.0345 41.48405,0.22564 44.14183,0.57821 6.52286,0.86529 9.84969,4.17225 9.84969,9.79088 0,3.5536 -2.93646,9.23439 -20.96246,40.55337 -11.52936,20.03149 -21.99186,37.44961 -23.25,38.70693 -2.7207,2.71893 -7.25881,3.64154 -10.97295,2.23085 z m 15.93039,-51.05761 c 5.63473,-9.9253 9.99567,-18.44936 9.69098,-18.94237 -0.78611,-1.27196 -42.15584,-1.15864 -42.94462,0.11763 -0.51124,0.82721 7.05811,14.82129 18.75802,34.67949 1.03484,1.75643 2.41457,2.968 3.06608,2.69237 0.65151,-0.27562 5.7948,-8.62182 11.42954,-18.54712 z M 586,762.92432 c -4.94146,-3.07884 -19.63024,-18.12066 -25.80412,-26.42432 -6.72073,-9.03913 -13.27884,-21.78906 -16.71684,-32.5 -3.93729,-12.26641 -4.63269,-31.00085 -1.59641,-43.00772 8.48775,-33.5645 33.74955,-54.47447 63.61737,-52.65804 10.86466,0.66073 17.31175,2.47031 28.38566,7.96733 l 8.38566,4.1626 2.55493,-3.48209 c 4.27758,-5.82987 14.54599,-15.29481 20.33488,-18.74374 10.78204,-6.42379 15.90518,-7.71623 30.63256,-7.72785 13.17324,-0.0104 13.29913,-0.0321 13.89262,-2.3968 1.06131,-4.22859 -0.43164,-24.33613 -1.87487,-25.25139 -0.72129,-0.45742 -37.98644,-0.84857 -82.81144,-0.86922 -75.69655,-0.0349 -81.65188,-0.16058 -83.63296,-1.76532 -6.86554,-5.56129 -4.9778,-15.85355 3.33094,-18.16082 2.55397,-0.70921 37.3771,-1.05762 106.08414,-1.06136 113.77094,-0.006 107.92146,-0.3526 110.81057,6.56202 1.97473,4.7262 1.05745,8.70756 -2.74293,11.90537 -2.84343,2.39258 -3.63571,2.52703 -14.8913,2.52703 -10.72995,0 -11.98894,0.18844 -12.92328,1.93426 C 730.44135,565.04385 730,572.91709 730,582.40101 v 16.53249 l 8.25,8.29624 c 9.38981,9.44243 14.62321,17.73685 18.46821,29.27026 2.40508,7.21426 2.67068,9.47326 2.70419,23 0.0311,12.56535 -0.3316,16.3523 -2.23476,23.33163 -6.53032,23.94825 -19.95225,45.69121 -42.52913,68.89538 -12.78141,13.13654 -15.64549,14.76366 -21.62643,12.28628 C 689.11744,762.39179 687,758.9246 687,754.13607 c 0,-3.6244 0.73978,-4.68376 9.39209,-13.44932 11.25782,-11.40518 17.998,-19.39064 24.49251,-29.01763 23.03959,-34.15217 24.1677,-69.19741 2.8757,-89.3345 -8.04212,-7.6059 -13.0753,-9.86443 -25.21948,-11.31672 -16.04189,-1.91841 -30.8608,7.4811 -41.62687,26.40355 -2.38883,4.19859 -5.24175,7.86251 -6.60631,8.48424 -4.89398,2.22985 -8.64971,1.33567 -14.88285,-3.54336 -3.25863,-2.55072 -9.74979,-6.48822 -14.42479,-8.75 -8.12933,-3.933 -8.91505,-4.11233 -18.01755,-4.11233 -8.7063,0 -10.07774,0.27563 -16.08946,3.23363 C 570.90544,640.60011 561,658.55364 561,679.66444 c 0,11.14165 2.6025,20.96424 8.49929,32.0788 5.81279,10.95625 11.30722,17.91592 22.74864,28.81519 10.41676,9.92317 12.03472,13.06053 9.38143,18.19141 -2.08748,4.03674 -3.95669,5.3574 -8.34014,5.89258 -2.74984,0.33573 -4.74926,-0.13555 -7.28922,-1.7181 z M 714.31471,529.53634 c -6.85902,-2.98319 -8.03833,-12.06678 -2.20398,-16.97606 6.3245,-5.32172 17.71848,-2.16736 19.37245,5.36316 0.98386,4.47946 -1.76661,9.87921 -5.91507,11.61255 -4.30695,1.79956 -7.11641,1.79965 -11.2534,3.5e-4 z M 425.98691,651.46549 C 425.9718,549.49131 425.69543,465.36987 425.37273,464.52895 425.05004,463.68803 424.3815,463 423.88707,463 c -0.49442,0 -4.74039,5.1657 -9.43549,11.47934 -31.07048,41.78133 -50.29352,90.00574 -56.61176,142.02066 -1.7137,14.10796 -1.71409,53.71705 -6.7e-4,67.5 5.53994,44.56405 21.54059,88.7883 45.2259,125 10.11889,15.47044 20.75957,29.22643 22.00983,28.45372 0.58069,-0.35888 0.929,-71.39097 0.91203,-185.98823 z M 884.747,826.25 c 31.54362,-41.8451 51.301,-91.31043 57.41646,-143.75 1.64539,-14.10916 1.65344,-50.78615 0.0143,-65 C 936.72502,570.21814 920.39822,526.17973 893.42541,486 881.55527,468.31778 876.76747,462.40764 875.13206,463.41838 874.29589,463.93517 874,512.67406 874,649.89235 c 0,102.17587 0.3,186.07432 0.66667,186.44098 1.30621,1.30621 2.07252,0.53967 10.08033,-10.08333 z m -46.98765,-401.5 c -0.22403,-0.6875 -5.15774,-4.85297 -10.9638,-9.2566 -58.19099,-44.13521 -131.75802,-65.07073 -204.1744,-58.10346 -54.72343,5.26501 -103.5128,24.09977 -148.37115,57.27755 -10.84656,8.02225 -12.03212,9.21705 -10.58333,10.66584 C 464.03333,425.7 548.44583,426 651.25,426 c 149.0839,0 186.83422,-0.25301 186.50935,-1.25 z M 447.65634,410.40434 c 76.78418,-65.13805 181.37084,-89.25834 279.37949,-64.43185 44.70702,11.32469 89.21404,34.06829 123.58673,63.15425 4.46741,3.78029 8.59922,6.87326 9.18179,6.87326 2.40111,0 4.68466,-15.15021 4.67254,-31 -0.01,-13.04684 -0.3665,-16.73315 -2.25269,-23.29149 -9.15493,-31.83201 -34.34508,-55.7023 -86.22891,-81.71087 C 769.5767,276.7801 754.91448,269.80629 743.41257,264.50028 696.10145,242.67493 672.63181,228.74984 657.15741,213.32307 653.66898,209.84538 650.33715,207 649.75334,207 c -0.58382,0 -2.59237,1.7885 -4.46345,3.97444 -4.69464,5.48463 -18.07878,16.09126 -28.42434,22.52565 -13.24686,8.23885 -28.38925,16.00041 -64.08409,32.84768 -54.72439,25.82885 -73.9396,37.63744 -92.39012,56.77779 -12.98804,13.47364 -21.75697,30.0722 -24.3596,46.10988 -1.94222,11.96814 -0.65775,34.49604 2.56659,45.01456 0.81981,2.67441 1.92564,2.20491 9.05801,-3.84566 z"
         id="path887" />
      <path
         style="fill:#db587f;fill-opacity:1;stroke-width:7.89955"
         d="m 645.44401,1120.8661 c -1.1308,-0.5492 -3.45172,-3.3321 -5.1576,-6.1841 -12.51874,-20.93 -33.27724,-34.8971 -92.66781,-62.3504 -18.19908,-8.4126 -41.07209,-19.8529 -51.72688,-25.8722 -46.6122,-26.3327 -71.58551,-55.38376 -78.48251,-91.29737 -1.88664,-9.824 -1.79753,-31.549 0.17655,-43.04114 0.87217,-5.07735 1.35506,-9.83273 1.0731,-10.56751 -0.4251,-1.10778 -1.59269,-1.08819 -6.83576,0.11471 -10.4765,2.40358 -36.89864,2.90299 -46.85481,0.88562 C 329.81739,875.43122 302.96366,853.43743 277.60343,811 268.24945,795.34718 261.82677,782.89558 250.00749,757.5 220.88073,694.91657 207.60619,674.14144 189.13869,662.23819 180.20798,656.48189 178,654.10496 178,650.24717 c 0,-4.98677 1.21007,-6.52159 8.50542,-10.78807 3.86022,-2.25755 9.81816,-7.21118 14.32692,-11.9119 13.7989,-14.3864 23.05404,-30.16416 44.9021,-76.5472 27.94671,-59.33034 40.45032,-79.95867 61.26556,-101.07534 15.54853,-15.77369 32.46131,-26.14583 50.71622,-31.10285 9.62888,-2.61466 35.25455,-3.654 45.88408,-1.86098 3.79484,0.64013 8.87816,1.42677 11.29627,1.74809 l 4.39658,0.58423 -0.58423,-4.39658 c -0.32132,-2.41811 -1.10796,-7.50143 -1.74809,-11.29627 -1.83633,-10.88631 -0.75067,-36.28074 1.97089,-46.1003 6.02084,-21.72361 19.87339,-42.156 39.91165,-58.86936 19.27229,-16.07448 41.42292,-28.90031 86.15663,-49.8871 37.26107,-17.481 53.7098,-26.08406 66.44164,-34.7505 11.7328,-7.9864 23.88704,-20.03049 28.52435,-28.26583 3.61863,-6.42627 5.36564,-7.74195 10.21827,-7.69541 4.34055,0.0416 5.66818,1.17445 10.66451,9.0996 2.29939,3.64726 7.70841,10.00174 12.02005,14.12106 14.41283,13.76993 29.24836,22.40518 78.29522,45.57295 49.79984,23.52344 71.0457,35.81523 90.6464,52.44345 20.72285,17.58019 33.93322,37.74752 39.78124,60.73114 2.52303,9.91591 2.64805,40.82078 0.20761,51.32242 -1.91142,8.22519 -1.41063,8.69896 7.11827,6.73409 9.59139,-2.20964 36.49623,-2.55906 46.16666,-0.59958 38.76018,7.85382 66.61638,32.88558 95.75178,86.04307 3.9189,7.15 13.0168,25.6 20.2177,41 20.1448,43.08216 31.1227,63.33554 40.6524,75 6.15,7.52773 15.3638,16.02866 21.4945,19.83137 6.7293,4.17407 8.7994,6.78087 8.7994,11.08082 0,3.14104 -3.4005,7.24134 -7.916,9.54496 -10.0075,5.10544 -21.9512,17.93419 -32.3281,34.72379 -8.1282,13.15115 -12.3423,21.30097 -25.2429,48.81906 -15.2996,32.63536 -26.8758,55.43235 -34.9367,68.80102 -23.22794,38.52276 -50.11123,61.36226 -81.5763,69.30561 -9.83257,2.48223 -40.84098,2.61201 -51.18561,0.21424 -4.11533,-0.95389 -7.04267,-1.19259 -7.61439,-0.62087 -0.57172,0.57172 -0.32434,3.49906 0.64345,7.61439 1.1519,4.89819 1.56716,11.89901 1.55325,26.18561 -0.0179,18.33676 -0.18168,20.03688 -2.74603,28.5 -5.63778,18.60638 -15.05143,33.92867 -30.12883,49.03976 -19.07838,19.12104 -43.67433,34.31694 -93.07854,57.50614 -48.72266,22.8693 -61.20227,29.6619 -77.7438,42.3152 -8.21776,6.2861 -16.53352,15.4331 -19.73396,21.7065 -3.49288,6.8465 -9.05807,9.452 -14.52153,6.7985 z m 13.45526,-35.1161 c 16.84559,-16.1535 34.59486,-26.4745 91.10073,-52.9742 66.05582,-30.9783 92.2404,-50.27347 106.2245,-78.2758 6.76253,-13.54156 8.82458,-22.74537 8.87606,-39.61765 C 865.1433,900.87354 862.33094,883 860.08395,883 c -0.46143,0 -4.15658,2.78166 -8.21146,6.18146 -30.46839,25.54617 -65.46926,45.22671 -102.37249,57.56275 -11.68716,3.90679 -15.89185,5.0628 -33.5,9.21028 -38.50077,9.06861 -88.74633,9.26105 -130,0.49792 -49.50167,-10.51518 -94.20197,-31.75877 -132.36103,-62.90391 -12.31347,-10.05016 -13.56524,-10.95556 -14.22906,-10.29175 -1.32468,1.32469 -3.48497,12.18939 -4.44685,22.36447 -1.733,18.33233 0.76299,32.75691 8.33652,48.17762 8.03955,16.3696 22.83691,31.65351 44.20042,45.65377 17.32313,11.35249 32.92592,19.47829 76,39.58049 43.38125,20.2455 64.88284,33.3792 79.9687,48.8471 3.28278,3.3659 6.16183,6.1198 6.39789,6.1198 0.23606,0 4.30076,-3.7125 9.03268,-8.25 z m 22.78341,-143.28593 c 43.04893,-4.52078 87.75844,-19.97816 123.81732,-42.80726 16.13025,-10.21216 33.66656,-23.82358 32.3672,-25.12294 -0.33411,-0.33411 -335.17467,-0.85373 -370.6172,-0.57514 -5.85591,0.046 -6.96028,1.69063 -2.91513,4.34112 1.28418,0.84143 3.64522,2.91818 5.24676,4.61501 1.60153,1.69683 3.26955,3.08514 3.70671,3.08514 0.43716,0 5.12635,2.97808 10.42042,6.61797 20.20118,13.88908 44.9933,26.56909 68.12425,34.84234 21.81748,7.80347 48.75141,13.59586 73.66699,15.84276 11.2829,1.0175 43.01692,0.5436 56.18268,-0.839 z M 406.13953,863.43119 c 4.59826,-0.86285 8.93499,-2.12843 9.63717,-2.81242 1.02877,-1.00209 -0.49349,-3.36768 -7.83862,-12.18119 C 385.78266,821.85305 365.05767,784.91872 353.82397,752 c -7.87422,-23.07425 -13.55381,-49.40224 -15.74789,-73 -1.97143,-21.20321 -1.05785,-56.8448 1.89681,-74 0.521,-3.025 1.46566,-8.65 2.09925,-12.5 1.51679,-9.21672 6.23024,-27.64782 10.10147,-39.5 12.73876,-39.00103 33.16527,-75.2885 60.22619,-106.99119 5.60883,-6.57091 5.21583,-7.25055 -5.3998,-9.33818 -39.94755,-7.85593 -71.92922,4.73514 -98.12647,38.63204 -13.69515,17.72029 -22.25872,33.25744 -45.8777,83.23731 -23.4578,49.6388 -34.06382,67.38144 -50.35574,84.23932 l -7.03491,7.2793 7.57978,7.7207 c 16.93804,17.25294 27.30791,34.96596 54.30688,92.76286 24.43397,52.306 40.9631,77.98989 60.79016,94.45918 10.72356,8.90749 26.16059,16.43293 38.79319,18.9114 7.60874,1.4928 30.01456,1.21661 39.06434,-0.48155 z M 940.5,862.02743 c 17.7038,-5.70824 32.93364,-16.30072 45.81489,-31.86463 16.43171,-19.85382 26.31191,-37.4389 52.90551,-94.1628 6.5753,-14.025 12.7574,-26.85 13.738,-28.5 0.9806,-1.65 3.6978,-6.6 6.0382,-11 7.4481,-14.00255 17.1561,-27.72102 26.3569,-37.24525 l 8.9312,-9.24526 -7.9184,-8.25474 C 1069.2956,623.95919 1060.8179,609.45648 1033.3148,551 c -20.0312,-42.57526 -31.1324,-62.02165 -45.47594,-79.66198 -22.25834,-27.37431 -50.16707,-39.66962 -82.6103,-36.39432 -9.91683,1.00115 -20.69829,3.1927 -21.97181,4.46621 -0.66606,0.66607 0.11885,1.74008 11.12038,15.21621 31.0878,38.08045 54.77254,89.33579 63.24847,136.87388 6.28762,35.26475 6.95021,73.38416 1.85119,106.5 -1.56295,10.15061 -3.04489,16.86954 -7.67672,34.80515 -10.5966,41.03268 -33.1549,83.92658 -62.61861,119.06734 -3.3998,4.05488 -6.18146,7.73705 -6.18146,8.18262 0,1.00374 2.07055,1.67291 10.71751,3.46371 4.69588,0.97252 11.85867,1.30637 23.28249,1.08515 13.80548,-0.26734 17.64313,-0.6881 23.5,-2.57654 z m -86.26361,-7.86382 c 1.1656,-1.1656 1.17925,-407.14797 0.0137,-408.31349 -1.21287,-1.21287 -407.21402,-1.28622 -408.42645,-0.0738 -1.1779,1.1779 -1.22168,407.22566 -0.044,408.40331 1.21287,1.21287 25.38657,1.33401 222.62505,1.11567 111.93379,-0.12391 185.27053,-0.57053 185.8317,-1.1317 z M 637.65311,771.75 c -1.35213,-1.2375 -9.19211,-13.95 -17.42219,-28.25 -8.23008,-14.3 -17.72388,-30.80043 -21.09735,-36.66763 -7.2733,-12.64987 -7.82678,-16.29301 -3.18105,-20.93874 l 2.95253,-2.95253 45.44332,0.27945 c 42.91688,0.26391 45.55921,0.38437 47.52792,2.16674 3.21624,2.91182 3.76748,8.1145 1.37667,12.99335 -5.17399,10.55838 -41.59179,72.31673 -43.54634,73.84712 -3.19032,2.498 -9.05615,2.26549 -12.05351,-0.47776 z M 655.75,723.56523 C 661.3875,713.79128 666,705.16567 666,704.39721 666,703.24327 662.16955,703 644,703 c -19.83301,0 -22,0.16354 -22,1.66032 0,1.52668 14.82718,28.16455 19.2806,34.63868 1.05896,1.53946 2.44153,2.62757 3.07239,2.41803 0.63085,-0.20954 5.75951,-8.37785 11.39701,-18.1518 z m -66.61412,40.19017 c -4.59655,-1.19108 -21.20951,-17.45342 -29.17912,-28.56329 -7.39093,-10.30318 -13.96168,-23.62289 -17.11396,-34.69211 -1.85068,-6.49865 -2.27481,-10.43969 -2.25997,-21 0.0216,-15.39857 1.45345,-21.68181 8.06219,-35.37921 3.70387,-7.67673 6.00734,-10.87629 12.69013,-17.62686 9.21056,-9.30397 16.37845,-13.47948 28.43129,-16.56207 9.04346,-2.31293 13.28591,-2.39989 23.32864,-0.47816 8.70164,1.6651 15.47897,4.16008 23.31817,8.58425 l 5.48427,3.09513 2.26807,-2.81654 c 1.24744,-1.5491 5.71128,-6.24328 9.91963,-10.43153 13.17322,-13.11024 28.2901,-18.78646 46.60365,-17.49915 l 9.36631,0.65839 -0.27759,-14.27213 L 709.5,562.5 627,562 c -86.75594,-0.52579 -85.56971,-0.45895 -87.97708,-4.95718 -1.82435,-3.40883 -1.19369,-8.73275 1.39035,-11.73706 l 2.41327,-2.80576 106.65024,-0.26341 106.65024,-0.26341 2.93649,2.93648 c 2.1738,2.17381 2.93649,3.88259 2.93649,6.57916 0,8.27487 -2.87656,9.86624 -19,10.51118 l -12.5,0.5 -0.27144,18.58043 -0.27144,18.58043 8.35219,8.41957 c 12.68691,12.78926 18.45682,24.66291 20.77724,42.75659 2.40136,18.72479 -3.0885,41.5786 -14.98073,62.36354 -6.71022,11.72795 -19.58912,28.24464 -31.10582,39.892 -11.21143,11.33862 -13.93123,12.79916 -19.49974,10.47141 -4.35255,-1.81945 -6.00026,-4.31374 -6.00026,-9.08317 0,-4.02755 0.52985,-4.75996 12.11211,-16.74228 17.92157,-18.54059 27.85744,-32.96152 34.40158,-49.93049 11.61701,-30.12292 4.2878,-59.14265 -18.22395,-72.15713 -20.69247,-11.9627 -44.91595,-3.89697 -57.78974,19.24236 -5.61458,10.09164 -6.98249,11.3917 -12.10726,11.50677 -3.85735,0.0866 -5.31714,-0.55412 -10.92258,-4.79408 -22.22392,-16.81024 -43.52676,-17.17978 -59.67141,-1.03513 -8.72802,8.72802 -15.23243,25.20947 -15.28139,38.72134 -0.027,7.45967 2.82964,19.49099 6.53322,27.51568 5.53626,11.99564 12.18973,21.05567 24.14143,32.87336 C 600.80929,749.68504 602,751.2301 602,754.35447 c 0,4.06317 -3.76089,9.17551 -7.2391,9.84041 -1.24357,0.23772 -3.77483,0.04 -5.62502,-0.43948 z m 122.7872,-236.67848 c -5.88464,-5.88464 -2.90428,-15.05181 5.40001,-16.60971 10.91128,-2.04697 18.18145,9.1821 10.75383,16.60971 C 725.60237,529.55147 724.36302,530 720,530 c -4.36302,0 -5.60237,-0.44853 -8.07692,-2.92308 z M 426.0687,674.87498 C 426.0607,585.01874 426.0419,500.3625 426.027,486.75 426.0053,466.91396 425.73757,462 424.67826,462 c -0.72695,0 -4.95688,4.8375 -9.39984,10.75 -31.14255,41.4431 -50.71857,88.94112 -57.29204,139.00978 -2.83253,21.57474 -2.81028,53.99625 0.0527,76.74022 5.11557,40.63941 20.73369,83.42011 43.39297,118.86082 10.47835,16.38886 22.9682,32.57229 24.19299,31.34749 0.2521,-0.2521 0.45176,-73.9771 0.44368,-163.83333 z M 888.74594,821.65146 C 917.93885,780.61818 936.06157,734.60941 942.17866,686 c 1.75636,-13.9569 1.73508,-60.31273 -0.0335,-73 -5.45227,-39.11268 -17.9577,-76.38247 -36.40587,-108.5 -5.31408,-9.25162 -20.90221,-32.80968 -22.30346,-33.70684 -0.6072,-0.38877 -2.36486,-2.52627 -3.90591,-4.75 -3.81831,-5.50982 -5.52338,-5.29285 -5.55474,0.70684 -0.38883,74.38036 0.12343,369.60052 0.64278,370.44085 0.90286,1.46086 6.10052,-4.25605 14.12799,-15.53939 z M 834.25,425.99996 c 2.6125,2e-5 4.75,-0.40175 4.75,-0.89283 0,-0.49108 -4.3875,-4.25418 -9.75,-8.36244 -35.5031,-27.19923 -76.76662,-46.18028 -119.75,-55.0845 -37.99098,-7.87003 -81.05406,-7.86869 -119,0.004 -46.24287,9.59369 -86.65943,28.84574 -126.5,60.25707 -6.17587,4.86922 -15.89298,4.66045 201.5,4.32901 90.2,-0.13752 166.1375,-0.25002 168.75,-0.25 z M 454.99497,405.17324 c 80.4284,-65.0169 190.73035,-85.32051 290.50503,-53.47414 38.10551,12.16262 79.03694,35.04121 107.93793,60.33182 7.14653,6.25376 7.78489,5.87743 9.99326,-5.89139 2.30825,-12.30107 2.09713,-32.74065 -0.44134,-42.72957 -5.46071,-21.48789 -18.9682,-40.08211 -41.01624,-56.46236 C 804.2045,293.74631 787.92526,284.85296 742.4098,263.48187 693.47741,240.50642 675.15112,229.70725 658.98197,214.32021 L 650,205.7727 l -9.00627,8.57063 c -16.47102,15.67432 -35.77529,26.94425 -88.49373,51.66308 -60.58935,28.40939 -83.36491,43.4141 -100.58391,66.26543 -10.27369,13.63422 -15.03607,25.64291 -16.90497,42.62709 -1.49376,13.57505 0.89935,36.56129 4.25266,40.84746 1.10254,1.40926 -0.0487,2.183 15.73119,-10.57315 z"
         id="path885" />
    </g>
  </g>
</svg>
