<svg xmlns="http://www.w3.org/2000/svg" width="140.909" height="104.595" viewBox="0 0 140.909 104.595">
  <g id="g296" transform="translate(-30)">
    <path id="path328" d="M111.082,32.209A44.03,44.03,0,1,0,155.1,76.239,44.048,44.048,0,0,0,111.082,32.209Zm0,2.9A41.135,41.135,0,1,1,69.955,76.239,41.109,41.109,0,0,1,111.082,35.1Zm-27.1,16.279a18.125,18.125,0,0,0-.2,3.7l-.155-.088a3.166,3.166,0,0,1-.5-1.392,18.134,18.134,0,0,0-.195,3.7l-.537-.3a20.271,20.271,0,0,0,.922,5.354,20.886,20.886,0,0,0,2.48,5.529c2.489,4.077,6.1,5.965,10.133,7.326a25.754,25.754,0,0,0,3.989.881,12.663,12.663,0,0,1,3.939-.842,7.505,7.505,0,0,1,3.987.838,13.007,13.007,0,0,0,.059-2.586,6.14,6.14,0,0,1,.788.367,14.1,14.1,0,0,0-2.133-9.233,18.233,18.233,0,0,0-7.8-6.463,49.617,49.617,0,0,0-9.188-2.476c-.8-.173-2.706-.964-2.951-1.645a1.979,1.979,0,0,0-.44.957C86.23,55,84.019,52.779,83.982,51.383Zm54.587.021c-.036,1.4-2.248,3.618-2.2,3.619a1.978,1.978,0,0,0-.44-.957c-.245.68-2.151,1.472-2.951,1.644a49.623,49.623,0,0,0-9.188,2.476,18.233,18.233,0,0,0-7.8,6.463,14.1,14.1,0,0,0-2.133,9.233,6.124,6.124,0,0,1,.791-.368A13.218,13.218,0,0,0,114.7,76.1a7.508,7.508,0,0,1,3.988-.837,12.664,12.664,0,0,1,3.939.842,25.8,25.8,0,0,0,3.989-.881c4.032-1.362,7.644-3.25,10.133-7.327a20.885,20.885,0,0,0,2.48-5.529,20.286,20.286,0,0,0,.922-5.354l-.537.305a18.136,18.136,0,0,0-.195-3.7,3.165,3.165,0,0,1-.5,1.393l-.153.087A18.128,18.128,0,0,0,138.57,51.4ZM111.378,67.667a4.156,4.156,0,0,0-1.476,3.174,4.111,4.111,0,0,0,1.21,2.934,1.545,1.545,0,0,0,.266.24,3.9,3.9,0,0,0,.66-.7,4.068,4.068,0,0,0,.815-2.474,4.16,4.16,0,0,0-1.475-3.173Zm-6.923,10.488a12.7,12.7,0,0,0-5.066,1.033,18.232,18.232,0,0,0-7.8,6.472,49.591,49.591,0,0,0-4.134,8.57c-.318.754-1.449,2.48-2.163,2.6,0,0,.47.554.859.61.007-.043-2.586,1.718-3.965,1.5a18.134,18.134,0,0,0,3.6.877l-.4.471a20.288,20.288,0,0,0,5.432.085,20.887,20.887,0,0,0,5.892-1.413c4.467-1.691,6.992-4.89,9.077-8.6a25.768,25.768,0,0,0,1.6-3.757,12.666,12.666,0,0,1-.1-4.027,7.506,7.506,0,0,1,1.561-3.763A14.285,14.285,0,0,0,104.455,78.155Zm13.694.007a14.275,14.275,0,0,0-4.4.647,7.5,7.5,0,0,1,1.561,3.763,12.665,12.665,0,0,1-.1,4.027,25.784,25.784,0,0,0,1.6,3.757c2.085,3.71,4.609,6.91,9.076,8.6a20.889,20.889,0,0,0,5.893,1.414,20.275,20.275,0,0,0,5.432-.085l-.4-.471a18.139,18.139,0,0,0,3.6-.876c-1.378.222-3.972-1.539-3.965-1.5.388-.057.859-.61.859-.61-.714-.115-1.845-1.841-2.163-2.6a49.6,49.6,0,0,0-4.134-8.57,18.234,18.234,0,0,0-7.8-6.472A12.7,12.7,0,0,0,118.149,78.162Zm-6.787.514a18.171,18.171,0,0,0-1.073,3.009,33.2,33.2,0,0,0-1.083,8.828,31.027,31.027,0,0,0,1.768,10.944,5.515,5.515,0,0,0,.389.893,16.934,16.934,0,0,0,.965-2.615,36.4,36.4,0,0,0,.108-18.05A18.161,18.161,0,0,0,111.362,78.677ZM43.027,127.342v1.466h3.091v7.863h1.733v-7.863h3.092v-1.466Zm11.187,0v9.329h1.733v-4h4.824v4H62.5v-9.329H60.772v3.851H55.947v-3.851Zm12.76,0v9.329h7v-1.453H68.708v-2.572h4.5V131.22h-4.5V128.8h5.077v-1.453Zm16.539,0v9.329h1.732v-9.329Zm6.216,0v9.329h1.72v-6.317l5.144,6.317H98.02v-9.329H96.3v6.317l-5.144-6.317Zm12.761,0v9.329h1.719v-6.317l5.144,6.317h1.426v-9.329h-1.719v6.317l-5.144-6.317Zm12.76,0v9.329h7v-1.453h-5.264v-2.572h4.5V131.22h-4.5V128.8h5.078v-1.453Zm10.895,0v9.329h1.733v-2.719h2.106a3.574,3.574,0,0,0,.36-.013l1.906,2.732h1.866l-2.146-3.065a3.013,3.013,0,0,0,1.466-1.133,3.132,3.132,0,0,0,.52-1.813,3.205,3.205,0,0,0-.48-1.772,3.067,3.067,0,0,0-1.386-1.146,5.117,5.117,0,0,0-2.106-.4Zm17.351,0v9.329h1.733V133.1h4.5v-1.466h-4.5V128.8h5.078v-1.453Zm10.375,0v5.264a4.251,4.251,0,0,0,1.079,3.119,4.071,4.071,0,0,0,3.012,1.079,4.026,4.026,0,0,0,3-1.079,4.251,4.251,0,0,0,1.079-3.119v-5.264h-1.706v5.2q0,2.745-2.359,2.746t-2.372-2.746v-5.2Zm12.56,0v9.329h7v-1.453h-5.264v-2.572h4.5V131.22h-4.5V128.8h5.078v-1.453Zm10.895,0v9.329h6.61v-1.466h-4.878v-7.863Zm-49.448,1.466H129.9a2.661,2.661,0,0,1,1.719.48,1.672,1.672,0,0,1,.586,1.373,1.711,1.711,0,0,1-.586,1.386,2.661,2.661,0,0,1-1.719.48h-2.026Z" transform="translate(-13.027 -32.209)" fill="#104f7e" fill-rule="evenodd"/>
  </g>
</svg>
